G04 #@! TF.FileFunction,Legend,Top*
%FSLAX46Y46*%
G04 Gerber Fmt 4.6, Leading zero omitted, Abs format (unit mm)*
G04 Created by KiCad (PCBNEW 4.0.2-stable) date 4/25/2016 1:55:35 PM*
%MOMM*%
G01*
G04 APERTURE LIST*
%ADD10C,0.100000*%
%ADD11C,0.381000*%
%ADD12C,0.150000*%
%ADD13C,0.010000*%
G04 APERTURE END LIST*
D10*
D11*
X63650000Y-112700000D02*
X65428000Y-112700000D01*
X74572000Y-112700000D02*
X76350000Y-112700000D01*
X76350000Y-112700000D02*
X76350000Y-114478000D01*
X76350000Y-123622000D02*
X76350000Y-125400000D01*
X76350000Y-125400000D02*
X74572000Y-125400000D01*
X65428000Y-125400000D02*
X63650000Y-125400000D01*
X63650000Y-125400000D02*
X63650000Y-123622000D01*
X63650000Y-114478000D02*
X63650000Y-112700000D01*
D12*
X92850640Y-80400820D02*
X85149360Y-80400820D01*
X92850640Y-79400060D02*
X85149360Y-79400060D01*
X85149360Y-79400060D02*
X85149360Y-88599940D01*
X85149360Y-88599940D02*
X92850640Y-88599940D01*
X92850640Y-88599940D02*
X92850640Y-79400060D01*
X67633480Y-92002540D02*
X66236480Y-92002540D01*
X72078480Y-92002540D02*
X73602480Y-92002540D01*
X71697480Y-92764540D02*
X71697480Y-91240540D01*
X71951480Y-92764540D02*
X71951480Y-91240540D01*
X72205480Y-92002540D02*
X72205480Y-91240540D01*
X72205480Y-91240540D02*
X67633480Y-91240540D01*
X67633480Y-91240540D02*
X67633480Y-92764540D01*
X67633480Y-92764540D02*
X72205480Y-92764540D01*
X72205480Y-92764540D02*
X72205480Y-92002540D01*
X67633480Y-127502540D02*
X66236480Y-127502540D01*
X72078480Y-127502540D02*
X73602480Y-127502540D01*
X71697480Y-128264540D02*
X71697480Y-126740540D01*
X71951480Y-128264540D02*
X71951480Y-126740540D01*
X72205480Y-127502540D02*
X72205480Y-126740540D01*
X72205480Y-126740540D02*
X67633480Y-126740540D01*
X67633480Y-126740540D02*
X67633480Y-128264540D01*
X67633480Y-128264540D02*
X72205480Y-128264540D01*
X72205480Y-128264540D02*
X72205480Y-127502540D01*
X67633480Y-130102540D02*
X66236480Y-130102540D01*
X72078480Y-130102540D02*
X73602480Y-130102540D01*
X71697480Y-130864540D02*
X71697480Y-129340540D01*
X71951480Y-130864540D02*
X71951480Y-129340540D01*
X72205480Y-130102540D02*
X72205480Y-129340540D01*
X72205480Y-129340540D02*
X67633480Y-129340540D01*
X67633480Y-129340540D02*
X67633480Y-130864540D01*
X67633480Y-130864540D02*
X72205480Y-130864540D01*
X72205480Y-130864540D02*
X72205480Y-130102540D01*
X86683480Y-92002540D02*
X85286480Y-92002540D01*
X91128480Y-92002540D02*
X92652480Y-92002540D01*
X90747480Y-92764540D02*
X90747480Y-91240540D01*
X91001480Y-92764540D02*
X91001480Y-91240540D01*
X91255480Y-92002540D02*
X91255480Y-91240540D01*
X91255480Y-91240540D02*
X86683480Y-91240540D01*
X86683480Y-91240540D02*
X86683480Y-92764540D01*
X86683480Y-92764540D02*
X91255480Y-92764540D01*
X91255480Y-92764540D02*
X91255480Y-92002540D01*
X86683480Y-127502540D02*
X85286480Y-127502540D01*
X91128480Y-127502540D02*
X92652480Y-127502540D01*
X90747480Y-128264540D02*
X90747480Y-126740540D01*
X91001480Y-128264540D02*
X91001480Y-126740540D01*
X91255480Y-127502540D02*
X91255480Y-126740540D01*
X91255480Y-126740540D02*
X86683480Y-126740540D01*
X86683480Y-126740540D02*
X86683480Y-128264540D01*
X86683480Y-128264540D02*
X91255480Y-128264540D01*
X91255480Y-128264540D02*
X91255480Y-127502540D01*
X86683480Y-130102540D02*
X85286480Y-130102540D01*
X91128480Y-130102540D02*
X92652480Y-130102540D01*
X90747480Y-130864540D02*
X90747480Y-129340540D01*
X91001480Y-130864540D02*
X91001480Y-129340540D01*
X91255480Y-130102540D02*
X91255480Y-129340540D01*
X91255480Y-129340540D02*
X86683480Y-129340540D01*
X86683480Y-129340540D02*
X86683480Y-130864540D01*
X86683480Y-130864540D02*
X91255480Y-130864540D01*
X91255480Y-130864540D02*
X91255480Y-130102540D01*
X105733480Y-92002540D02*
X104336480Y-92002540D01*
X110178480Y-92002540D02*
X111702480Y-92002540D01*
X109797480Y-92764540D02*
X109797480Y-91240540D01*
X110051480Y-92764540D02*
X110051480Y-91240540D01*
X110305480Y-92002540D02*
X110305480Y-91240540D01*
X110305480Y-91240540D02*
X105733480Y-91240540D01*
X105733480Y-91240540D02*
X105733480Y-92764540D01*
X105733480Y-92764540D02*
X110305480Y-92764540D01*
X110305480Y-92764540D02*
X110305480Y-92002540D01*
X105733480Y-127502540D02*
X104336480Y-127502540D01*
X110178480Y-127502540D02*
X111702480Y-127502540D01*
X109797480Y-128264540D02*
X109797480Y-126740540D01*
X110051480Y-128264540D02*
X110051480Y-126740540D01*
X110305480Y-127502540D02*
X110305480Y-126740540D01*
X110305480Y-126740540D02*
X105733480Y-126740540D01*
X105733480Y-126740540D02*
X105733480Y-128264540D01*
X105733480Y-128264540D02*
X110305480Y-128264540D01*
X110305480Y-128264540D02*
X110305480Y-127502540D01*
X105733480Y-130102540D02*
X104336480Y-130102540D01*
X110178480Y-130102540D02*
X111702480Y-130102540D01*
X109797480Y-130864540D02*
X109797480Y-129340540D01*
X110051480Y-130864540D02*
X110051480Y-129340540D01*
X110305480Y-130102540D02*
X110305480Y-129340540D01*
X110305480Y-129340540D02*
X105733480Y-129340540D01*
X105733480Y-129340540D02*
X105733480Y-130864540D01*
X105733480Y-130864540D02*
X110305480Y-130864540D01*
X110305480Y-130864540D02*
X110305480Y-130102540D01*
X107199000Y-80686000D02*
X107199000Y-80886000D01*
X107199000Y-83280000D02*
X107199000Y-83100000D01*
X103971256Y-82969643D02*
G75*
G03X107199000Y-83286000I1727744J1003643D01*
G01*
X104646994Y-83099068D02*
G75*
G03X106750000Y-83100000I1052006J1133068D01*
G01*
X107186220Y-80659274D02*
G75*
G03X103949000Y-81006000I-1497220J-1306726D01*
G01*
X106712889Y-80886747D02*
G75*
G03X104665000Y-80906000I-1013889J-1079253D01*
G01*
X97925000Y-81250000D02*
X97925000Y-82250000D01*
X96575000Y-82250000D02*
X96575000Y-81250000D01*
X100925000Y-81250000D02*
X100925000Y-82250000D01*
X99575000Y-82250000D02*
X99575000Y-81250000D01*
D11*
X63650000Y-93650000D02*
X65428000Y-93650000D01*
X74572000Y-93650000D02*
X76350000Y-93650000D01*
X76350000Y-93650000D02*
X76350000Y-95428000D01*
X76350000Y-104572000D02*
X76350000Y-106350000D01*
X76350000Y-106350000D02*
X74572000Y-106350000D01*
X65428000Y-106350000D02*
X63650000Y-106350000D01*
X63650000Y-106350000D02*
X63650000Y-104572000D01*
X63650000Y-95428000D02*
X63650000Y-93650000D01*
X63650000Y-131750000D02*
X65428000Y-131750000D01*
X74572000Y-131750000D02*
X76350000Y-131750000D01*
X76350000Y-131750000D02*
X76350000Y-133528000D01*
X76350000Y-142672000D02*
X76350000Y-144450000D01*
X76350000Y-144450000D02*
X74572000Y-144450000D01*
X65428000Y-144450000D02*
X63650000Y-144450000D01*
X63650000Y-144450000D02*
X63650000Y-142672000D01*
X63650000Y-133528000D02*
X63650000Y-131750000D01*
X82700000Y-93650000D02*
X84478000Y-93650000D01*
X93622000Y-93650000D02*
X95400000Y-93650000D01*
X95400000Y-93650000D02*
X95400000Y-95428000D01*
X95400000Y-104572000D02*
X95400000Y-106350000D01*
X95400000Y-106350000D02*
X93622000Y-106350000D01*
X84478000Y-106350000D02*
X82700000Y-106350000D01*
X82700000Y-106350000D02*
X82700000Y-104572000D01*
X82700000Y-95428000D02*
X82700000Y-93650000D01*
X82700000Y-112700000D02*
X84478000Y-112700000D01*
X93622000Y-112700000D02*
X95400000Y-112700000D01*
X95400000Y-112700000D02*
X95400000Y-114478000D01*
X95400000Y-123622000D02*
X95400000Y-125400000D01*
X95400000Y-125400000D02*
X93622000Y-125400000D01*
X84478000Y-125400000D02*
X82700000Y-125400000D01*
X82700000Y-125400000D02*
X82700000Y-123622000D01*
X82700000Y-114478000D02*
X82700000Y-112700000D01*
X82700000Y-131750000D02*
X84478000Y-131750000D01*
X93622000Y-131750000D02*
X95400000Y-131750000D01*
X95400000Y-131750000D02*
X95400000Y-133528000D01*
X95400000Y-142672000D02*
X95400000Y-144450000D01*
X95400000Y-144450000D02*
X93622000Y-144450000D01*
X84478000Y-144450000D02*
X82700000Y-144450000D01*
X82700000Y-144450000D02*
X82700000Y-142672000D01*
X82700000Y-133528000D02*
X82700000Y-131750000D01*
X101750000Y-93650000D02*
X103528000Y-93650000D01*
X112672000Y-93650000D02*
X114450000Y-93650000D01*
X114450000Y-93650000D02*
X114450000Y-95428000D01*
X114450000Y-104572000D02*
X114450000Y-106350000D01*
X114450000Y-106350000D02*
X112672000Y-106350000D01*
X103528000Y-106350000D02*
X101750000Y-106350000D01*
X101750000Y-106350000D02*
X101750000Y-104572000D01*
X101750000Y-95428000D02*
X101750000Y-93650000D01*
X101750000Y-112700000D02*
X103528000Y-112700000D01*
X112672000Y-112700000D02*
X114450000Y-112700000D01*
X114450000Y-112700000D02*
X114450000Y-114478000D01*
X114450000Y-123622000D02*
X114450000Y-125400000D01*
X114450000Y-125400000D02*
X112672000Y-125400000D01*
X103528000Y-125400000D02*
X101750000Y-125400000D01*
X101750000Y-125400000D02*
X101750000Y-123622000D01*
X101750000Y-114478000D02*
X101750000Y-112700000D01*
X101750000Y-131750000D02*
X103528000Y-131750000D01*
X112672000Y-131750000D02*
X114450000Y-131750000D01*
X114450000Y-131750000D02*
X114450000Y-133528000D01*
X114450000Y-142672000D02*
X114450000Y-144450000D01*
X114450000Y-144450000D02*
X112672000Y-144450000D01*
X103528000Y-144450000D02*
X101750000Y-144450000D01*
X101750000Y-144450000D02*
X101750000Y-142672000D01*
X101750000Y-133528000D02*
X101750000Y-131750000D01*
D12*
X103239890Y-87550220D02*
X100739890Y-87550220D01*
X100739890Y-87550220D02*
X100739890Y-86450220D01*
X100739890Y-86450220D02*
X103239890Y-86450220D01*
X103239890Y-86450220D02*
X103239890Y-87550220D01*
X103489890Y-86200220D02*
X100489890Y-86200220D01*
X103489890Y-87800220D02*
X100489890Y-87800220D01*
X100489890Y-87800220D02*
X100489890Y-86200220D01*
X103489890Y-87800220D02*
X103489890Y-86200220D01*
X104989890Y-85250220D02*
X98989890Y-85250220D01*
X104989890Y-88750220D02*
X98989890Y-88750220D01*
X104989890Y-88750220D02*
X104989890Y-85250220D01*
X98989890Y-88750220D02*
X98989890Y-85250220D01*
X109730000Y-83270000D02*
X109730000Y-88350000D01*
X109450000Y-80450000D02*
X111000000Y-80450000D01*
X112270000Y-80730000D02*
X112270000Y-83270000D01*
X112270000Y-83270000D02*
X109730000Y-83270000D01*
X109730000Y-88350000D02*
X114810000Y-88350000D01*
X114810000Y-88350000D02*
X114810000Y-83270000D01*
X109450000Y-80450000D02*
X109450000Y-82000000D01*
X114810000Y-80730000D02*
X112270000Y-80730000D01*
X114810000Y-83270000D02*
X114810000Y-80730000D01*
X82630509Y-83369491D02*
X82630509Y-84069491D01*
X81430509Y-84069491D02*
X81430509Y-83369491D01*
D13*
G36*
X70414696Y-85625011D02*
X70655284Y-85795197D01*
X70776217Y-86045159D01*
X70784193Y-86136956D01*
X70703489Y-86475501D01*
X70460443Y-86816543D01*
X70052247Y-87163589D01*
X69859649Y-87293676D01*
X69473773Y-87565582D01*
X69215299Y-87802183D01*
X69097187Y-87991012D01*
X69091035Y-88033092D01*
X69168843Y-88045684D01*
X69375279Y-88055085D01*
X69669643Y-88059638D01*
X69747202Y-88059825D01*
X70078336Y-88063236D01*
X70276625Y-88080245D01*
X70378521Y-88121012D01*
X70420476Y-88195701D01*
X70430564Y-88250325D01*
X70436068Y-88334855D01*
X70404337Y-88389752D01*
X70306246Y-88421407D01*
X70112671Y-88436216D01*
X69794486Y-88440569D01*
X69562731Y-88440825D01*
X68667843Y-88440825D01*
X68668159Y-88165658D01*
X68734556Y-87824435D01*
X68940197Y-87497238D01*
X69295976Y-87169921D01*
X69595601Y-86961449D01*
X69987016Y-86674947D01*
X70214320Y-86421671D01*
X70279016Y-86199544D01*
X70237150Y-86074970D01*
X70100890Y-85997487D01*
X69881981Y-86000094D01*
X69643040Y-86075869D01*
X69514509Y-86154825D01*
X69288742Y-86287714D01*
X69102450Y-86323862D01*
X68988875Y-86269591D01*
X68981261Y-86131225D01*
X69012319Y-86059302D01*
X69179001Y-85884718D01*
X69453779Y-85724956D01*
X69775937Y-85608083D01*
X70084755Y-85562164D01*
X70087838Y-85562158D01*
X70414696Y-85625011D01*
X70414696Y-85625011D01*
G37*
X70414696Y-85625011D02*
X70655284Y-85795197D01*
X70776217Y-86045159D01*
X70784193Y-86136956D01*
X70703489Y-86475501D01*
X70460443Y-86816543D01*
X70052247Y-87163589D01*
X69859649Y-87293676D01*
X69473773Y-87565582D01*
X69215299Y-87802183D01*
X69097187Y-87991012D01*
X69091035Y-88033092D01*
X69168843Y-88045684D01*
X69375279Y-88055085D01*
X69669643Y-88059638D01*
X69747202Y-88059825D01*
X70078336Y-88063236D01*
X70276625Y-88080245D01*
X70378521Y-88121012D01*
X70420476Y-88195701D01*
X70430564Y-88250325D01*
X70436068Y-88334855D01*
X70404337Y-88389752D01*
X70306246Y-88421407D01*
X70112671Y-88436216D01*
X69794486Y-88440569D01*
X69562731Y-88440825D01*
X68667843Y-88440825D01*
X68668159Y-88165658D01*
X68734556Y-87824435D01*
X68940197Y-87497238D01*
X69295976Y-87169921D01*
X69595601Y-86961449D01*
X69987016Y-86674947D01*
X70214320Y-86421671D01*
X70279016Y-86199544D01*
X70237150Y-86074970D01*
X70100890Y-85997487D01*
X69881981Y-86000094D01*
X69643040Y-86075869D01*
X69514509Y-86154825D01*
X69288742Y-86287714D01*
X69102450Y-86323862D01*
X68988875Y-86269591D01*
X68981261Y-86131225D01*
X69012319Y-86059302D01*
X69179001Y-85884718D01*
X69453779Y-85724956D01*
X69775937Y-85608083D01*
X70084755Y-85562164D01*
X70087838Y-85562158D01*
X70414696Y-85625011D01*
G36*
X72719157Y-85628485D02*
X72988324Y-85822702D01*
X73147110Y-86137665D01*
X73191410Y-86566231D01*
X73146664Y-86959899D01*
X73013947Y-87444556D01*
X72818698Y-87861682D01*
X72582192Y-88171264D01*
X72445118Y-88279448D01*
X72107813Y-88412685D01*
X71739652Y-88445126D01*
X71399335Y-88378896D01*
X71161661Y-88233006D01*
X71051779Y-88102800D01*
X70988908Y-87953825D01*
X70960460Y-87735796D01*
X70953843Y-87402963D01*
X70963102Y-87305528D01*
X71377670Y-87305528D01*
X71403699Y-87611282D01*
X71474039Y-87835105D01*
X71510223Y-87884444D01*
X71741476Y-88009604D01*
X72008237Y-87991961D01*
X72266290Y-87838098D01*
X72340062Y-87760862D01*
X72542467Y-87433131D01*
X72676673Y-87041157D01*
X72732068Y-86641178D01*
X72698039Y-86289430D01*
X72644197Y-86149258D01*
X72486272Y-86000707D01*
X72265728Y-85976041D01*
X72016193Y-86059825D01*
X71771296Y-86236624D01*
X71564664Y-86491001D01*
X71467229Y-86689503D01*
X71398124Y-86978163D01*
X71377670Y-87305528D01*
X70963102Y-87305528D01*
X71010697Y-86804726D01*
X71175208Y-86309980D01*
X71438293Y-85930753D01*
X71790871Y-85679072D01*
X72223860Y-85566966D01*
X72343712Y-85562158D01*
X72719157Y-85628485D01*
X72719157Y-85628485D01*
G37*
X72719157Y-85628485D02*
X72988324Y-85822702D01*
X73147110Y-86137665D01*
X73191410Y-86566231D01*
X73146664Y-86959899D01*
X73013947Y-87444556D01*
X72818698Y-87861682D01*
X72582192Y-88171264D01*
X72445118Y-88279448D01*
X72107813Y-88412685D01*
X71739652Y-88445126D01*
X71399335Y-88378896D01*
X71161661Y-88233006D01*
X71051779Y-88102800D01*
X70988908Y-87953825D01*
X70960460Y-87735796D01*
X70953843Y-87402963D01*
X70963102Y-87305528D01*
X71377670Y-87305528D01*
X71403699Y-87611282D01*
X71474039Y-87835105D01*
X71510223Y-87884444D01*
X71741476Y-88009604D01*
X72008237Y-87991961D01*
X72266290Y-87838098D01*
X72340062Y-87760862D01*
X72542467Y-87433131D01*
X72676673Y-87041157D01*
X72732068Y-86641178D01*
X72698039Y-86289430D01*
X72644197Y-86149258D01*
X72486272Y-86000707D01*
X72265728Y-85976041D01*
X72016193Y-86059825D01*
X71771296Y-86236624D01*
X71564664Y-86491001D01*
X71467229Y-86689503D01*
X71398124Y-86978163D01*
X71377670Y-87305528D01*
X70963102Y-87305528D01*
X71010697Y-86804726D01*
X71175208Y-86309980D01*
X71438293Y-85930753D01*
X71790871Y-85679072D01*
X72223860Y-85566966D01*
X72343712Y-85562158D01*
X72719157Y-85628485D01*
G36*
X74706295Y-85581179D02*
X74742302Y-85669646D01*
X74719127Y-85874666D01*
X74718292Y-85879658D01*
X74667301Y-86141688D01*
X74592749Y-86477980D01*
X74538125Y-86705158D01*
X74447448Y-87101158D01*
X74378925Y-87465045D01*
X74336726Y-87765551D01*
X74325022Y-87971408D01*
X74347984Y-88051348D01*
X74358946Y-88048430D01*
X74480808Y-88052632D01*
X74591613Y-88155092D01*
X74629806Y-88292440D01*
X74622751Y-88320015D01*
X74546277Y-88387129D01*
X74362434Y-88425607D01*
X74043983Y-88440299D01*
X73944243Y-88440825D01*
X73620475Y-88436381D01*
X73433279Y-88417713D01*
X73350005Y-88376810D01*
X73338008Y-88305667D01*
X73340192Y-88292658D01*
X73441060Y-88166701D01*
X73590496Y-88118656D01*
X73699051Y-88094948D01*
X73775056Y-88031728D01*
X73834309Y-87895482D01*
X73892608Y-87652692D01*
X73949653Y-87356656D01*
X74017209Y-87002644D01*
X74078670Y-86696593D01*
X74123843Y-86488732D01*
X74134210Y-86447407D01*
X74140795Y-86321791D01*
X74035973Y-86279625D01*
X73951928Y-86278074D01*
X73771270Y-86248665D01*
X73687971Y-86183249D01*
X73732359Y-86081433D01*
X73883794Y-85938034D01*
X74096529Y-85784466D01*
X74324818Y-85652142D01*
X74522917Y-85572476D01*
X74592434Y-85562158D01*
X74706295Y-85581179D01*
X74706295Y-85581179D01*
G37*
X74706295Y-85581179D02*
X74742302Y-85669646D01*
X74719127Y-85874666D01*
X74718292Y-85879658D01*
X74667301Y-86141688D01*
X74592749Y-86477980D01*
X74538125Y-86705158D01*
X74447448Y-87101158D01*
X74378925Y-87465045D01*
X74336726Y-87765551D01*
X74325022Y-87971408D01*
X74347984Y-88051348D01*
X74358946Y-88048430D01*
X74480808Y-88052632D01*
X74591613Y-88155092D01*
X74629806Y-88292440D01*
X74622751Y-88320015D01*
X74546277Y-88387129D01*
X74362434Y-88425607D01*
X74043983Y-88440299D01*
X73944243Y-88440825D01*
X73620475Y-88436381D01*
X73433279Y-88417713D01*
X73350005Y-88376810D01*
X73338008Y-88305667D01*
X73340192Y-88292658D01*
X73441060Y-88166701D01*
X73590496Y-88118656D01*
X73699051Y-88094948D01*
X73775056Y-88031728D01*
X73834309Y-87895482D01*
X73892608Y-87652692D01*
X73949653Y-87356656D01*
X74017209Y-87002644D01*
X74078670Y-86696593D01*
X74123843Y-86488732D01*
X74134210Y-86447407D01*
X74140795Y-86321791D01*
X74035973Y-86279625D01*
X73951928Y-86278074D01*
X73771270Y-86248665D01*
X73687971Y-86183249D01*
X73732359Y-86081433D01*
X73883794Y-85938034D01*
X74096529Y-85784466D01*
X74324818Y-85652142D01*
X74522917Y-85572476D01*
X74592434Y-85562158D01*
X74706295Y-85581179D01*
G36*
X76857158Y-85609317D02*
X76870566Y-85733769D01*
X76767004Y-85909971D01*
X76555255Y-86112385D01*
X76519317Y-86139983D01*
X76294679Y-86322634D01*
X76121022Y-86489336D01*
X76066000Y-86557886D01*
X76027370Y-86644683D01*
X76077043Y-86682886D01*
X76247305Y-86684618D01*
X76380809Y-86676093D01*
X76654216Y-86672831D01*
X76836380Y-86727029D01*
X77001705Y-86860992D01*
X77003459Y-86862744D01*
X77157346Y-87081063D01*
X77219176Y-87302347D01*
X77150220Y-87649453D01*
X76970892Y-87990109D01*
X76722499Y-88249929D01*
X76675619Y-88281170D01*
X76359985Y-88403394D01*
X75998635Y-88440211D01*
X75658307Y-88391748D01*
X75429389Y-88278807D01*
X75312971Y-88158057D01*
X75253609Y-88002501D01*
X75234739Y-87756291D01*
X75234790Y-87622641D01*
X75235232Y-87619191D01*
X75676706Y-87619191D01*
X75725926Y-87856842D01*
X75825115Y-87987777D01*
X76077385Y-88093865D01*
X76326388Y-88034110D01*
X76503358Y-87894340D01*
X76647269Y-87682171D01*
X76709266Y-87448262D01*
X76684016Y-87247235D01*
X76577251Y-87137550D01*
X76302020Y-87088046D01*
X76013760Y-87117218D01*
X75833223Y-87194610D01*
X75712733Y-87372917D01*
X75676706Y-87619191D01*
X75235232Y-87619191D01*
X75304057Y-87082256D01*
X75420393Y-86781629D01*
X75575953Y-86546521D01*
X75802420Y-86280310D01*
X76064802Y-86015883D01*
X76328105Y-85786125D01*
X76557337Y-85623922D01*
X76717504Y-85562159D01*
X76717999Y-85562158D01*
X76857158Y-85609317D01*
X76857158Y-85609317D01*
G37*
X76857158Y-85609317D02*
X76870566Y-85733769D01*
X76767004Y-85909971D01*
X76555255Y-86112385D01*
X76519317Y-86139983D01*
X76294679Y-86322634D01*
X76121022Y-86489336D01*
X76066000Y-86557886D01*
X76027370Y-86644683D01*
X76077043Y-86682886D01*
X76247305Y-86684618D01*
X76380809Y-86676093D01*
X76654216Y-86672831D01*
X76836380Y-86727029D01*
X77001705Y-86860992D01*
X77003459Y-86862744D01*
X77157346Y-87081063D01*
X77219176Y-87302347D01*
X77150220Y-87649453D01*
X76970892Y-87990109D01*
X76722499Y-88249929D01*
X76675619Y-88281170D01*
X76359985Y-88403394D01*
X75998635Y-88440211D01*
X75658307Y-88391748D01*
X75429389Y-88278807D01*
X75312971Y-88158057D01*
X75253609Y-88002501D01*
X75234739Y-87756291D01*
X75234790Y-87622641D01*
X75235232Y-87619191D01*
X75676706Y-87619191D01*
X75725926Y-87856842D01*
X75825115Y-87987777D01*
X76077385Y-88093865D01*
X76326388Y-88034110D01*
X76503358Y-87894340D01*
X76647269Y-87682171D01*
X76709266Y-87448262D01*
X76684016Y-87247235D01*
X76577251Y-87137550D01*
X76302020Y-87088046D01*
X76013760Y-87117218D01*
X75833223Y-87194610D01*
X75712733Y-87372917D01*
X75676706Y-87619191D01*
X75235232Y-87619191D01*
X75304057Y-87082256D01*
X75420393Y-86781629D01*
X75575953Y-86546521D01*
X75802420Y-86280310D01*
X76064802Y-86015883D01*
X76328105Y-85786125D01*
X76557337Y-85623922D01*
X76717504Y-85562159D01*
X76717999Y-85562158D01*
X76857158Y-85609317D01*
G36*
X71153729Y-81868706D02*
X71199425Y-81993739D01*
X71205089Y-82154325D01*
X71190577Y-82451371D01*
X71155248Y-82828753D01*
X71105088Y-83244407D01*
X71046085Y-83656270D01*
X70984228Y-84022278D01*
X70925504Y-84300368D01*
X70879370Y-84442443D01*
X70674944Y-84673998D01*
X70403882Y-84787028D01*
X70117065Y-84773161D01*
X69865374Y-84624026D01*
X69853146Y-84611287D01*
X69723773Y-84399908D01*
X69716439Y-84207559D01*
X69826625Y-84078983D01*
X69909404Y-84054389D01*
X70081544Y-84092354D01*
X70147943Y-84202555D01*
X70249787Y-84343807D01*
X70389350Y-84371877D01*
X70483825Y-84299197D01*
X70510178Y-84189831D01*
X70547995Y-83946211D01*
X70592532Y-83602638D01*
X70639044Y-83193413D01*
X70646259Y-83125028D01*
X70693567Y-82706460D01*
X70741069Y-82346111D01*
X70783661Y-82079023D01*
X70816240Y-81940234D01*
X70819942Y-81932656D01*
X70945814Y-81851951D01*
X71043506Y-81836825D01*
X71153729Y-81868706D01*
X71153729Y-81868706D01*
G37*
X71153729Y-81868706D02*
X71199425Y-81993739D01*
X71205089Y-82154325D01*
X71190577Y-82451371D01*
X71155248Y-82828753D01*
X71105088Y-83244407D01*
X71046085Y-83656270D01*
X70984228Y-84022278D01*
X70925504Y-84300368D01*
X70879370Y-84442443D01*
X70674944Y-84673998D01*
X70403882Y-84787028D01*
X70117065Y-84773161D01*
X69865374Y-84624026D01*
X69853146Y-84611287D01*
X69723773Y-84399908D01*
X69716439Y-84207559D01*
X69826625Y-84078983D01*
X69909404Y-84054389D01*
X70081544Y-84092354D01*
X70147943Y-84202555D01*
X70249787Y-84343807D01*
X70389350Y-84371877D01*
X70483825Y-84299197D01*
X70510178Y-84189831D01*
X70547995Y-83946211D01*
X70592532Y-83602638D01*
X70639044Y-83193413D01*
X70646259Y-83125028D01*
X70693567Y-82706460D01*
X70741069Y-82346111D01*
X70783661Y-82079023D01*
X70816240Y-81940234D01*
X70819942Y-81932656D01*
X70945814Y-81851951D01*
X71043506Y-81836825D01*
X71153729Y-81868706D01*
G36*
X63035758Y-81840681D02*
X63278932Y-81944158D01*
X63355523Y-82016249D01*
X63384141Y-82114886D01*
X63366420Y-82285438D01*
X63303993Y-82573278D01*
X63301906Y-82582232D01*
X63228366Y-83027048D01*
X63246227Y-83348137D01*
X63253515Y-83375953D01*
X63293257Y-83579351D01*
X63285493Y-83709019D01*
X63284059Y-83711545D01*
X63162574Y-83775949D01*
X62989854Y-83770601D01*
X62868034Y-83699262D01*
X62755587Y-83660424D01*
X62656937Y-83699262D01*
X62382131Y-83779647D01*
X62071703Y-83776158D01*
X61798091Y-83695680D01*
X61674798Y-83605900D01*
X61553727Y-83362247D01*
X61520147Y-83040943D01*
X61523394Y-83020393D01*
X61989147Y-83020393D01*
X62023469Y-83236941D01*
X62132327Y-83390915D01*
X62298745Y-83453275D01*
X62505749Y-83394981D01*
X62656509Y-83276158D01*
X62794390Y-83032346D01*
X62838543Y-82768158D01*
X62848746Y-82524541D01*
X62858038Y-82347300D01*
X62859709Y-82323658D01*
X62809319Y-82238214D01*
X62666407Y-82239342D01*
X62475309Y-82313893D01*
X62280360Y-82448720D01*
X62212009Y-82515733D01*
X62046335Y-82770310D01*
X61989147Y-83020393D01*
X61523394Y-83020393D01*
X61572679Y-82708476D01*
X61698860Y-82445840D01*
X61986952Y-82153085D01*
X62333190Y-81945943D01*
X62696489Y-81837460D01*
X63035758Y-81840681D01*
X63035758Y-81840681D01*
G37*
X63035758Y-81840681D02*
X63278932Y-81944158D01*
X63355523Y-82016249D01*
X63384141Y-82114886D01*
X63366420Y-82285438D01*
X63303993Y-82573278D01*
X63301906Y-82582232D01*
X63228366Y-83027048D01*
X63246227Y-83348137D01*
X63253515Y-83375953D01*
X63293257Y-83579351D01*
X63285493Y-83709019D01*
X63284059Y-83711545D01*
X63162574Y-83775949D01*
X62989854Y-83770601D01*
X62868034Y-83699262D01*
X62755587Y-83660424D01*
X62656937Y-83699262D01*
X62382131Y-83779647D01*
X62071703Y-83776158D01*
X61798091Y-83695680D01*
X61674798Y-83605900D01*
X61553727Y-83362247D01*
X61520147Y-83040943D01*
X61523394Y-83020393D01*
X61989147Y-83020393D01*
X62023469Y-83236941D01*
X62132327Y-83390915D01*
X62298745Y-83453275D01*
X62505749Y-83394981D01*
X62656509Y-83276158D01*
X62794390Y-83032346D01*
X62838543Y-82768158D01*
X62848746Y-82524541D01*
X62858038Y-82347300D01*
X62859709Y-82323658D01*
X62809319Y-82238214D01*
X62666407Y-82239342D01*
X62475309Y-82313893D01*
X62280360Y-82448720D01*
X62212009Y-82515733D01*
X62046335Y-82770310D01*
X61989147Y-83020393D01*
X61523394Y-83020393D01*
X61572679Y-82708476D01*
X61698860Y-82445840D01*
X61986952Y-82153085D01*
X62333190Y-81945943D01*
X62696489Y-81837460D01*
X63035758Y-81840681D01*
G36*
X64463093Y-80843608D02*
X64521837Y-80876384D01*
X64529508Y-80979341D01*
X64506893Y-81219215D01*
X64457939Y-81567086D01*
X64386590Y-81994032D01*
X64321512Y-82344825D01*
X64220254Y-82860411D01*
X64141214Y-83232850D01*
X64076919Y-83485703D01*
X64019895Y-83642531D01*
X63962669Y-83726898D01*
X63897767Y-83762365D01*
X63870166Y-83767833D01*
X63708192Y-83761097D01*
X63647848Y-83725500D01*
X63649607Y-83623510D01*
X63680190Y-83384390D01*
X63735110Y-83037034D01*
X63809879Y-82610336D01*
X63875287Y-82260818D01*
X63978932Y-81734857D01*
X64061652Y-81353732D01*
X64130043Y-81095196D01*
X64190696Y-80937000D01*
X64250205Y-80856898D01*
X64297930Y-80834711D01*
X64463093Y-80843608D01*
X64463093Y-80843608D01*
G37*
X64463093Y-80843608D02*
X64521837Y-80876384D01*
X64529508Y-80979341D01*
X64506893Y-81219215D01*
X64457939Y-81567086D01*
X64386590Y-81994032D01*
X64321512Y-82344825D01*
X64220254Y-82860411D01*
X64141214Y-83232850D01*
X64076919Y-83485703D01*
X64019895Y-83642531D01*
X63962669Y-83726898D01*
X63897767Y-83762365D01*
X63870166Y-83767833D01*
X63708192Y-83761097D01*
X63647848Y-83725500D01*
X63649607Y-83623510D01*
X63680190Y-83384390D01*
X63735110Y-83037034D01*
X63809879Y-82610336D01*
X63875287Y-82260818D01*
X63978932Y-81734857D01*
X64061652Y-81353732D01*
X64130043Y-81095196D01*
X64190696Y-80937000D01*
X64250205Y-80856898D01*
X64297930Y-80834711D01*
X64463093Y-80843608D01*
G36*
X66121671Y-81866038D02*
X66334090Y-81963785D01*
X66381843Y-82006158D01*
X66505579Y-82150900D01*
X66551176Y-82241319D01*
X66470246Y-82429635D01*
X66238319Y-82631349D01*
X65871690Y-82833638D01*
X65708018Y-82904892D01*
X65427993Y-83030650D01*
X65226185Y-83142300D01*
X65139047Y-83219124D01*
X65138603Y-83228533D01*
X65230350Y-83310702D01*
X65392909Y-83383958D01*
X65590915Y-83411844D01*
X65823925Y-83354031D01*
X66007772Y-83272804D01*
X66281112Y-83161603D01*
X66443300Y-83150544D01*
X66484072Y-83175187D01*
X66541199Y-83319363D01*
X66458109Y-83467884D01*
X66262633Y-83604279D01*
X65982604Y-83712079D01*
X65645854Y-83774813D01*
X65455032Y-83784158D01*
X65156386Y-83765071D01*
X64954949Y-83692883D01*
X64811661Y-83576340D01*
X64646584Y-83323034D01*
X64618907Y-83016523D01*
X64712767Y-82686697D01*
X65111843Y-82686697D01*
X65180461Y-82700276D01*
X65358585Y-82651846D01*
X65604617Y-82555830D01*
X65876959Y-82426650D01*
X65906448Y-82411189D01*
X66010479Y-82332860D01*
X65964671Y-82262805D01*
X65948781Y-82252354D01*
X65786207Y-82184572D01*
X65732172Y-82176788D01*
X65607144Y-82227550D01*
X65428597Y-82351520D01*
X65252000Y-82503104D01*
X65132824Y-82636704D01*
X65111843Y-82686697D01*
X64712767Y-82686697D01*
X64727605Y-82634556D01*
X64764399Y-82549836D01*
X65000064Y-82168039D01*
X65300930Y-81936063D01*
X65686031Y-81840811D01*
X65800594Y-81836825D01*
X66121671Y-81866038D01*
X66121671Y-81866038D01*
G37*
X66121671Y-81866038D02*
X66334090Y-81963785D01*
X66381843Y-82006158D01*
X66505579Y-82150900D01*
X66551176Y-82241319D01*
X66470246Y-82429635D01*
X66238319Y-82631349D01*
X65871690Y-82833638D01*
X65708018Y-82904892D01*
X65427993Y-83030650D01*
X65226185Y-83142300D01*
X65139047Y-83219124D01*
X65138603Y-83228533D01*
X65230350Y-83310702D01*
X65392909Y-83383958D01*
X65590915Y-83411844D01*
X65823925Y-83354031D01*
X66007772Y-83272804D01*
X66281112Y-83161603D01*
X66443300Y-83150544D01*
X66484072Y-83175187D01*
X66541199Y-83319363D01*
X66458109Y-83467884D01*
X66262633Y-83604279D01*
X65982604Y-83712079D01*
X65645854Y-83774813D01*
X65455032Y-83784158D01*
X65156386Y-83765071D01*
X64954949Y-83692883D01*
X64811661Y-83576340D01*
X64646584Y-83323034D01*
X64618907Y-83016523D01*
X64712767Y-82686697D01*
X65111843Y-82686697D01*
X65180461Y-82700276D01*
X65358585Y-82651846D01*
X65604617Y-82555830D01*
X65876959Y-82426650D01*
X65906448Y-82411189D01*
X66010479Y-82332860D01*
X65964671Y-82262805D01*
X65948781Y-82252354D01*
X65786207Y-82184572D01*
X65732172Y-82176788D01*
X65607144Y-82227550D01*
X65428597Y-82351520D01*
X65252000Y-82503104D01*
X65132824Y-82636704D01*
X65111843Y-82686697D01*
X64712767Y-82686697D01*
X64727605Y-82634556D01*
X64764399Y-82549836D01*
X65000064Y-82168039D01*
X65300930Y-81936063D01*
X65686031Y-81840811D01*
X65800594Y-81836825D01*
X66121671Y-81866038D01*
G36*
X69028074Y-81896629D02*
X69057360Y-81935273D01*
X69035682Y-82056213D01*
X68875489Y-82246109D01*
X68587406Y-82493723D01*
X68388045Y-82643400D01*
X68150830Y-82814976D01*
X68415442Y-83180262D01*
X68556520Y-83406956D01*
X68631945Y-83592973D01*
X68634272Y-83664853D01*
X68524150Y-83777564D01*
X68354121Y-83757289D01*
X68154409Y-83614394D01*
X68017737Y-83453399D01*
X67779984Y-83122640D01*
X67378329Y-83417482D01*
X67063622Y-83611876D01*
X66829542Y-83677446D01*
X66686142Y-83612218D01*
X66659389Y-83558582D01*
X66704786Y-83459500D01*
X66856611Y-83311075D01*
X66995909Y-83205894D01*
X67285563Y-82998408D01*
X67447473Y-82845746D01*
X67497054Y-82712292D01*
X67449721Y-82562432D01*
X67345942Y-82397225D01*
X67224860Y-82180064D01*
X67172212Y-82004340D01*
X67176628Y-81958176D01*
X67286665Y-81844095D01*
X67451119Y-81860431D01*
X67632405Y-81995437D01*
X67736509Y-82133158D01*
X67861194Y-82317896D01*
X67951473Y-82421435D01*
X67967528Y-82429491D01*
X68054179Y-82380105D01*
X68226834Y-82252875D01*
X68377038Y-82133158D01*
X68673640Y-81920782D01*
X68886248Y-81843220D01*
X69028074Y-81896629D01*
X69028074Y-81896629D01*
G37*
X69028074Y-81896629D02*
X69057360Y-81935273D01*
X69035682Y-82056213D01*
X68875489Y-82246109D01*
X68587406Y-82493723D01*
X68388045Y-82643400D01*
X68150830Y-82814976D01*
X68415442Y-83180262D01*
X68556520Y-83406956D01*
X68631945Y-83592973D01*
X68634272Y-83664853D01*
X68524150Y-83777564D01*
X68354121Y-83757289D01*
X68154409Y-83614394D01*
X68017737Y-83453399D01*
X67779984Y-83122640D01*
X67378329Y-83417482D01*
X67063622Y-83611876D01*
X66829542Y-83677446D01*
X66686142Y-83612218D01*
X66659389Y-83558582D01*
X66704786Y-83459500D01*
X66856611Y-83311075D01*
X66995909Y-83205894D01*
X67285563Y-82998408D01*
X67447473Y-82845746D01*
X67497054Y-82712292D01*
X67449721Y-82562432D01*
X67345942Y-82397225D01*
X67224860Y-82180064D01*
X67172212Y-82004340D01*
X67176628Y-81958176D01*
X67286665Y-81844095D01*
X67451119Y-81860431D01*
X67632405Y-81995437D01*
X67736509Y-82133158D01*
X67861194Y-82317896D01*
X67951473Y-82421435D01*
X67967528Y-82429491D01*
X68054179Y-82380105D01*
X68226834Y-82252875D01*
X68377038Y-82133158D01*
X68673640Y-81920782D01*
X68886248Y-81843220D01*
X69028074Y-81896629D01*
G36*
X73195758Y-81840681D02*
X73438932Y-81944158D01*
X73515523Y-82016249D01*
X73544141Y-82114886D01*
X73526420Y-82285438D01*
X73463993Y-82573278D01*
X73461906Y-82582232D01*
X73388366Y-83027048D01*
X73406227Y-83348137D01*
X73413515Y-83375953D01*
X73453257Y-83579351D01*
X73445493Y-83709019D01*
X73444059Y-83711545D01*
X73322574Y-83775949D01*
X73149854Y-83770601D01*
X73028034Y-83699262D01*
X72915587Y-83660424D01*
X72816937Y-83699262D01*
X72542131Y-83779647D01*
X72231703Y-83776158D01*
X71958091Y-83695680D01*
X71834798Y-83605900D01*
X71713727Y-83362247D01*
X71680147Y-83040943D01*
X71683394Y-83020393D01*
X72149147Y-83020393D01*
X72183469Y-83236941D01*
X72292327Y-83390915D01*
X72458745Y-83453275D01*
X72665749Y-83394981D01*
X72816509Y-83276158D01*
X72954390Y-83032346D01*
X72998543Y-82768158D01*
X73008746Y-82524541D01*
X73018038Y-82347300D01*
X73019709Y-82323658D01*
X72969319Y-82238214D01*
X72826407Y-82239342D01*
X72635309Y-82313893D01*
X72440360Y-82448720D01*
X72372009Y-82515733D01*
X72206335Y-82770310D01*
X72149147Y-83020393D01*
X71683394Y-83020393D01*
X71732679Y-82708476D01*
X71858860Y-82445840D01*
X72146952Y-82153085D01*
X72493190Y-81945943D01*
X72856489Y-81837460D01*
X73195758Y-81840681D01*
X73195758Y-81840681D01*
G37*
X73195758Y-81840681D02*
X73438932Y-81944158D01*
X73515523Y-82016249D01*
X73544141Y-82114886D01*
X73526420Y-82285438D01*
X73463993Y-82573278D01*
X73461906Y-82582232D01*
X73388366Y-83027048D01*
X73406227Y-83348137D01*
X73413515Y-83375953D01*
X73453257Y-83579351D01*
X73445493Y-83709019D01*
X73444059Y-83711545D01*
X73322574Y-83775949D01*
X73149854Y-83770601D01*
X73028034Y-83699262D01*
X72915587Y-83660424D01*
X72816937Y-83699262D01*
X72542131Y-83779647D01*
X72231703Y-83776158D01*
X71958091Y-83695680D01*
X71834798Y-83605900D01*
X71713727Y-83362247D01*
X71680147Y-83040943D01*
X71683394Y-83020393D01*
X72149147Y-83020393D01*
X72183469Y-83236941D01*
X72292327Y-83390915D01*
X72458745Y-83453275D01*
X72665749Y-83394981D01*
X72816509Y-83276158D01*
X72954390Y-83032346D01*
X72998543Y-82768158D01*
X73008746Y-82524541D01*
X73018038Y-82347300D01*
X73019709Y-82323658D01*
X72969319Y-82238214D01*
X72826407Y-82239342D01*
X72635309Y-82313893D01*
X72440360Y-82448720D01*
X72372009Y-82515733D01*
X72206335Y-82770310D01*
X72149147Y-83020393D01*
X71683394Y-83020393D01*
X71732679Y-82708476D01*
X71858860Y-82445840D01*
X72146952Y-82153085D01*
X72493190Y-81945943D01*
X72856489Y-81837460D01*
X73195758Y-81840681D01*
G36*
X75241423Y-81852528D02*
X75426114Y-81885248D01*
X75546523Y-81964557D01*
X75610105Y-82116918D01*
X75624318Y-82368795D01*
X75596616Y-82746653D01*
X75567256Y-83009011D01*
X75521748Y-83362994D01*
X75479325Y-83582515D01*
X75427036Y-83701684D01*
X75351935Y-83754611D01*
X75278156Y-83770612D01*
X75076071Y-83799400D01*
X75130700Y-83029779D01*
X75151569Y-82622931D01*
X75137886Y-82372545D01*
X75079299Y-82267490D01*
X74965456Y-82296632D01*
X74786007Y-82448839D01*
X74685019Y-82550463D01*
X74424879Y-82925983D01*
X74302566Y-83291296D01*
X74228979Y-83562556D01*
X74147431Y-83706855D01*
X74032140Y-83765628D01*
X74004375Y-83770534D01*
X73892075Y-83777410D01*
X73840505Y-83729300D01*
X73836722Y-83587324D01*
X73863474Y-83347201D01*
X73952890Y-82740323D01*
X74051912Y-82295158D01*
X74164203Y-82004188D01*
X74293423Y-81859899D01*
X74443233Y-81854774D01*
X74556243Y-81924867D01*
X74693846Y-81983333D01*
X74800267Y-81926395D01*
X74960591Y-81866678D01*
X75198136Y-81849892D01*
X75241423Y-81852528D01*
X75241423Y-81852528D01*
G37*
X75241423Y-81852528D02*
X75426114Y-81885248D01*
X75546523Y-81964557D01*
X75610105Y-82116918D01*
X75624318Y-82368795D01*
X75596616Y-82746653D01*
X75567256Y-83009011D01*
X75521748Y-83362994D01*
X75479325Y-83582515D01*
X75427036Y-83701684D01*
X75351935Y-83754611D01*
X75278156Y-83770612D01*
X75076071Y-83799400D01*
X75130700Y-83029779D01*
X75151569Y-82622931D01*
X75137886Y-82372545D01*
X75079299Y-82267490D01*
X74965456Y-82296632D01*
X74786007Y-82448839D01*
X74685019Y-82550463D01*
X74424879Y-82925983D01*
X74302566Y-83291296D01*
X74228979Y-83562556D01*
X74147431Y-83706855D01*
X74032140Y-83765628D01*
X74004375Y-83770534D01*
X73892075Y-83777410D01*
X73840505Y-83729300D01*
X73836722Y-83587324D01*
X73863474Y-83347201D01*
X73952890Y-82740323D01*
X74051912Y-82295158D01*
X74164203Y-82004188D01*
X74293423Y-81859899D01*
X74443233Y-81854774D01*
X74556243Y-81924867D01*
X74693846Y-81983333D01*
X74800267Y-81926395D01*
X74960591Y-81866678D01*
X75198136Y-81849892D01*
X75241423Y-81852528D01*
G36*
X76701476Y-80835771D02*
X76768720Y-80898034D01*
X76791729Y-81033745D01*
X76772487Y-81269041D01*
X76712979Y-81630053D01*
X76667758Y-81871032D01*
X76611271Y-82184963D01*
X76574476Y-82427027D01*
X76563413Y-82556033D01*
X76565814Y-82566352D01*
X76639676Y-82531045D01*
X76810291Y-82413713D01*
X77042612Y-82238641D01*
X77073307Y-82214644D01*
X77397479Y-81987543D01*
X77653956Y-81862842D01*
X77825718Y-81845810D01*
X77895747Y-81941714D01*
X77896509Y-81959835D01*
X77834785Y-82080025D01*
X77677180Y-82251172D01*
X77557843Y-82355005D01*
X77364746Y-82523656D01*
X77242114Y-82656660D01*
X77219176Y-82702153D01*
X77263231Y-82812648D01*
X77374113Y-83002399D01*
X77430843Y-83088637D01*
X77592396Y-83382340D01*
X77641701Y-83609322D01*
X77578111Y-83748470D01*
X77452009Y-83782478D01*
X77296251Y-83726087D01*
X77129962Y-83544377D01*
X77015648Y-83366563D01*
X76868958Y-83134413D01*
X76766645Y-83026973D01*
X76675607Y-83018388D01*
X76611313Y-83050743D01*
X76485646Y-83194535D01*
X76380486Y-83421719D01*
X76367077Y-83466658D01*
X76287499Y-83681202D01*
X76178839Y-83771289D01*
X76072912Y-83784158D01*
X75915362Y-83754988D01*
X75864509Y-83700144D01*
X75879740Y-83589360D01*
X75921376Y-83346524D01*
X75983331Y-83005773D01*
X76059522Y-82601244D01*
X76072032Y-82535978D01*
X76155572Y-82096864D01*
X76231651Y-81689191D01*
X76292115Y-81357155D01*
X76328811Y-81144949D01*
X76329868Y-81138324D01*
X76381562Y-80925978D01*
X76470392Y-80836087D01*
X76588012Y-80820824D01*
X76701476Y-80835771D01*
X76701476Y-80835771D01*
G37*
X76701476Y-80835771D02*
X76768720Y-80898034D01*
X76791729Y-81033745D01*
X76772487Y-81269041D01*
X76712979Y-81630053D01*
X76667758Y-81871032D01*
X76611271Y-82184963D01*
X76574476Y-82427027D01*
X76563413Y-82556033D01*
X76565814Y-82566352D01*
X76639676Y-82531045D01*
X76810291Y-82413713D01*
X77042612Y-82238641D01*
X77073307Y-82214644D01*
X77397479Y-81987543D01*
X77653956Y-81862842D01*
X77825718Y-81845810D01*
X77895747Y-81941714D01*
X77896509Y-81959835D01*
X77834785Y-82080025D01*
X77677180Y-82251172D01*
X77557843Y-82355005D01*
X77364746Y-82523656D01*
X77242114Y-82656660D01*
X77219176Y-82702153D01*
X77263231Y-82812648D01*
X77374113Y-83002399D01*
X77430843Y-83088637D01*
X77592396Y-83382340D01*
X77641701Y-83609322D01*
X77578111Y-83748470D01*
X77452009Y-83782478D01*
X77296251Y-83726087D01*
X77129962Y-83544377D01*
X77015648Y-83366563D01*
X76868958Y-83134413D01*
X76766645Y-83026973D01*
X76675607Y-83018388D01*
X76611313Y-83050743D01*
X76485646Y-83194535D01*
X76380486Y-83421719D01*
X76367077Y-83466658D01*
X76287499Y-83681202D01*
X76178839Y-83771289D01*
X76072912Y-83784158D01*
X75915362Y-83754988D01*
X75864509Y-83700144D01*
X75879740Y-83589360D01*
X75921376Y-83346524D01*
X75983331Y-83005773D01*
X76059522Y-82601244D01*
X76072032Y-82535978D01*
X76155572Y-82096864D01*
X76231651Y-81689191D01*
X76292115Y-81357155D01*
X76328811Y-81144949D01*
X76329868Y-81138324D01*
X76381562Y-80925978D01*
X76470392Y-80836087D01*
X76588012Y-80820824D01*
X76701476Y-80835771D01*
G36*
X79376425Y-81840681D02*
X79619599Y-81944158D01*
X79696189Y-82016249D01*
X79724807Y-82114886D01*
X79707086Y-82285438D01*
X79644660Y-82573278D01*
X79642573Y-82582232D01*
X79569033Y-83027048D01*
X79586893Y-83348137D01*
X79594181Y-83375953D01*
X79633923Y-83579351D01*
X79626160Y-83709019D01*
X79624726Y-83711545D01*
X79503241Y-83775949D01*
X79330521Y-83770601D01*
X79208701Y-83699262D01*
X79096254Y-83660424D01*
X78997604Y-83699262D01*
X78722797Y-83779647D01*
X78412369Y-83776158D01*
X78138758Y-83695680D01*
X78015465Y-83605900D01*
X77894394Y-83362247D01*
X77860814Y-83040943D01*
X77864060Y-83020393D01*
X78329813Y-83020393D01*
X78364135Y-83236941D01*
X78472993Y-83390915D01*
X78639412Y-83453275D01*
X78846416Y-83394981D01*
X78997176Y-83276158D01*
X79135057Y-83032346D01*
X79179209Y-82768158D01*
X79189413Y-82524541D01*
X79198705Y-82347300D01*
X79200376Y-82323658D01*
X79149985Y-82238214D01*
X79007073Y-82239342D01*
X78815975Y-82313893D01*
X78621027Y-82448720D01*
X78552676Y-82515733D01*
X78387002Y-82770310D01*
X78329813Y-83020393D01*
X77864060Y-83020393D01*
X77913345Y-82708476D01*
X78039527Y-82445840D01*
X78327618Y-82153085D01*
X78673857Y-81945943D01*
X79037155Y-81837460D01*
X79376425Y-81840681D01*
X79376425Y-81840681D01*
G37*
X79376425Y-81840681D02*
X79619599Y-81944158D01*
X79696189Y-82016249D01*
X79724807Y-82114886D01*
X79707086Y-82285438D01*
X79644660Y-82573278D01*
X79642573Y-82582232D01*
X79569033Y-83027048D01*
X79586893Y-83348137D01*
X79594181Y-83375953D01*
X79633923Y-83579351D01*
X79626160Y-83709019D01*
X79624726Y-83711545D01*
X79503241Y-83775949D01*
X79330521Y-83770601D01*
X79208701Y-83699262D01*
X79096254Y-83660424D01*
X78997604Y-83699262D01*
X78722797Y-83779647D01*
X78412369Y-83776158D01*
X78138758Y-83695680D01*
X78015465Y-83605900D01*
X77894394Y-83362247D01*
X77860814Y-83040943D01*
X77864060Y-83020393D01*
X78329813Y-83020393D01*
X78364135Y-83236941D01*
X78472993Y-83390915D01*
X78639412Y-83453275D01*
X78846416Y-83394981D01*
X78997176Y-83276158D01*
X79135057Y-83032346D01*
X79179209Y-82768158D01*
X79189413Y-82524541D01*
X79198705Y-82347300D01*
X79200376Y-82323658D01*
X79149985Y-82238214D01*
X79007073Y-82239342D01*
X78815975Y-82313893D01*
X78621027Y-82448720D01*
X78552676Y-82515733D01*
X78387002Y-82770310D01*
X78329813Y-83020393D01*
X77864060Y-83020393D01*
X77913345Y-82708476D01*
X78039527Y-82445840D01*
X78327618Y-82153085D01*
X78673857Y-81945943D01*
X79037155Y-81837460D01*
X79376425Y-81840681D01*
G36*
X71305550Y-81045915D02*
X71347684Y-81200014D01*
X71326059Y-81278851D01*
X71210860Y-81380041D01*
X71026905Y-81411622D01*
X70863250Y-81365378D01*
X70824550Y-81325116D01*
X70824590Y-81191850D01*
X70933269Y-81061739D01*
X71098730Y-80991920D01*
X71128546Y-80990158D01*
X71305550Y-81045915D01*
X71305550Y-81045915D01*
G37*
X71305550Y-81045915D02*
X71347684Y-81200014D01*
X71326059Y-81278851D01*
X71210860Y-81380041D01*
X71026905Y-81411622D01*
X70863250Y-81365378D01*
X70824550Y-81325116D01*
X70824590Y-81191850D01*
X70933269Y-81061739D01*
X71098730Y-80991920D01*
X71128546Y-80990158D01*
X71305550Y-81045915D01*
D12*
X108428095Y-80712381D02*
X108428095Y-79712381D01*
X108999524Y-80712381D02*
X108570952Y-80140952D01*
X108999524Y-79712381D02*
X108428095Y-80283810D01*
X96452381Y-81916666D02*
X95976190Y-82250000D01*
X96452381Y-82488095D02*
X95452381Y-82488095D01*
X95452381Y-82107142D01*
X95500000Y-82011904D01*
X95547619Y-81964285D01*
X95642857Y-81916666D01*
X95785714Y-81916666D01*
X95880952Y-81964285D01*
X95928571Y-82011904D01*
X95976190Y-82107142D01*
X95976190Y-82488095D01*
X96452381Y-80964285D02*
X96452381Y-81535714D01*
X96452381Y-81250000D02*
X95452381Y-81250000D01*
X95595238Y-81345238D01*
X95690476Y-81440476D01*
X95738095Y-81535714D01*
X99452381Y-82166666D02*
X98976190Y-82500000D01*
X99452381Y-82738095D02*
X98452381Y-82738095D01*
X98452381Y-82357142D01*
X98500000Y-82261904D01*
X98547619Y-82214285D01*
X98642857Y-82166666D01*
X98785714Y-82166666D01*
X98880952Y-82214285D01*
X98928571Y-82261904D01*
X98976190Y-82357142D01*
X98976190Y-82738095D01*
X98547619Y-81785714D02*
X98500000Y-81738095D01*
X98452381Y-81642857D01*
X98452381Y-81404761D01*
X98500000Y-81309523D01*
X98547619Y-81261904D01*
X98642857Y-81214285D01*
X98738095Y-81214285D01*
X98880952Y-81261904D01*
X99452381Y-81833333D01*
X99452381Y-81214285D01*
X84287652Y-83886157D02*
X84335271Y-83933776D01*
X84382890Y-84076633D01*
X84382890Y-84171871D01*
X84335271Y-84314729D01*
X84240033Y-84409967D01*
X84144795Y-84457586D01*
X83954319Y-84505205D01*
X83811461Y-84505205D01*
X83620985Y-84457586D01*
X83525747Y-84409967D01*
X83430509Y-84314729D01*
X83382890Y-84171871D01*
X83382890Y-84076633D01*
X83430509Y-83933776D01*
X83478128Y-83886157D01*
X83811461Y-83314729D02*
X83763842Y-83409967D01*
X83716223Y-83457586D01*
X83620985Y-83505205D01*
X83573366Y-83505205D01*
X83478128Y-83457586D01*
X83430509Y-83409967D01*
X83382890Y-83314729D01*
X83382890Y-83124252D01*
X83430509Y-83029014D01*
X83478128Y-82981395D01*
X83573366Y-82933776D01*
X83620985Y-82933776D01*
X83716223Y-82981395D01*
X83763842Y-83029014D01*
X83811461Y-83124252D01*
X83811461Y-83314729D01*
X83859080Y-83409967D01*
X83906699Y-83457586D01*
X84001938Y-83505205D01*
X84192414Y-83505205D01*
X84287652Y-83457586D01*
X84335271Y-83409967D01*
X84382890Y-83314729D01*
X84382890Y-83124252D01*
X84335271Y-83029014D01*
X84287652Y-82981395D01*
X84192414Y-82933776D01*
X84001938Y-82933776D01*
X83906699Y-82981395D01*
X83859080Y-83029014D01*
X83811461Y-83124252D01*
M02*
