G04 #@! TF.FileFunction,Legend,Bot*
%FSLAX46Y46*%
G04 Gerber Fmt 4.6, Leading zero omitted, Abs format (unit mm)*
G04 Created by KiCad (PCBNEW 4.0.2-stable) date 4/25/2016 1:55:35 PM*
%MOMM*%
G01*
G04 APERTURE LIST*
%ADD10C,0.100000*%
%ADD11C,0.150000*%
%ADD12C,0.010000*%
G04 APERTURE END LIST*
D10*
D11*
X65180509Y-105569491D02*
X65880509Y-105569491D01*
X65880509Y-104369491D02*
X65180509Y-104369491D01*
X77680509Y-105569491D02*
X78380509Y-105569491D01*
X78380509Y-104369491D02*
X77680509Y-104369491D01*
X87650000Y-104600000D02*
X88350000Y-104600000D01*
X88350000Y-103400000D02*
X87650000Y-103400000D01*
X112600000Y-110350000D02*
X112600000Y-109650000D01*
X111400000Y-109650000D02*
X111400000Y-110350000D01*
X108650000Y-104600000D02*
X109350000Y-104600000D01*
X109350000Y-103400000D02*
X108650000Y-103400000D01*
X87650000Y-112600000D02*
X88350000Y-112600000D01*
X88350000Y-111400000D02*
X87650000Y-111400000D01*
X98630509Y-117369491D02*
X97930509Y-117369491D01*
X97930509Y-118569491D02*
X98630509Y-118569491D01*
X100825000Y-95750000D02*
X100825000Y-96750000D01*
X102175000Y-96750000D02*
X102175000Y-95750000D01*
X91681445Y-108000000D02*
X92158742Y-107522703D01*
X99000000Y-115318555D02*
X99477297Y-114841258D01*
X106318555Y-108000000D02*
X105841258Y-108477297D01*
X99000000Y-100681445D02*
X98522703Y-101158742D01*
X91681445Y-108000000D02*
X92158742Y-108477297D01*
X99000000Y-100681445D02*
X99477297Y-101158742D01*
X106318555Y-108000000D02*
X105841258Y-107522703D01*
X99000000Y-115318555D02*
X98522703Y-114841258D01*
X92158742Y-107522703D02*
X91257181Y-106621142D01*
X71280509Y-111969491D02*
X77030509Y-111969491D01*
X77030509Y-111969491D02*
X77030509Y-106969491D01*
X77030509Y-106969491D02*
X65530509Y-106969491D01*
X65530509Y-106969491D02*
X65530509Y-111969491D01*
X65530509Y-111969491D02*
X71280509Y-111969491D01*
D12*
G36*
X73146322Y-85625011D02*
X72905734Y-85795197D01*
X72784801Y-86045159D01*
X72776825Y-86136956D01*
X72857529Y-86475501D01*
X73100575Y-86816543D01*
X73508771Y-87163589D01*
X73701369Y-87293676D01*
X74087245Y-87565582D01*
X74345719Y-87802183D01*
X74463831Y-87991012D01*
X74469983Y-88033092D01*
X74392175Y-88045684D01*
X74185739Y-88055085D01*
X73891375Y-88059638D01*
X73813816Y-88059825D01*
X73482682Y-88063236D01*
X73284393Y-88080245D01*
X73182497Y-88121012D01*
X73140542Y-88195701D01*
X73130454Y-88250325D01*
X73124950Y-88334855D01*
X73156681Y-88389752D01*
X73254772Y-88421407D01*
X73448347Y-88436216D01*
X73766532Y-88440569D01*
X73998287Y-88440825D01*
X74893175Y-88440825D01*
X74892859Y-88165658D01*
X74826462Y-87824435D01*
X74620821Y-87497238D01*
X74265042Y-87169921D01*
X73965417Y-86961449D01*
X73574002Y-86674947D01*
X73346698Y-86421671D01*
X73282002Y-86199544D01*
X73323868Y-86074970D01*
X73460128Y-85997487D01*
X73679037Y-86000094D01*
X73917978Y-86075869D01*
X74046509Y-86154825D01*
X74272276Y-86287714D01*
X74458568Y-86323862D01*
X74572143Y-86269591D01*
X74579757Y-86131225D01*
X74548699Y-86059302D01*
X74382017Y-85884718D01*
X74107239Y-85724956D01*
X73785081Y-85608083D01*
X73476263Y-85562164D01*
X73473180Y-85562158D01*
X73146322Y-85625011D01*
X73146322Y-85625011D01*
G37*
X73146322Y-85625011D02*
X72905734Y-85795197D01*
X72784801Y-86045159D01*
X72776825Y-86136956D01*
X72857529Y-86475501D01*
X73100575Y-86816543D01*
X73508771Y-87163589D01*
X73701369Y-87293676D01*
X74087245Y-87565582D01*
X74345719Y-87802183D01*
X74463831Y-87991012D01*
X74469983Y-88033092D01*
X74392175Y-88045684D01*
X74185739Y-88055085D01*
X73891375Y-88059638D01*
X73813816Y-88059825D01*
X73482682Y-88063236D01*
X73284393Y-88080245D01*
X73182497Y-88121012D01*
X73140542Y-88195701D01*
X73130454Y-88250325D01*
X73124950Y-88334855D01*
X73156681Y-88389752D01*
X73254772Y-88421407D01*
X73448347Y-88436216D01*
X73766532Y-88440569D01*
X73998287Y-88440825D01*
X74893175Y-88440825D01*
X74892859Y-88165658D01*
X74826462Y-87824435D01*
X74620821Y-87497238D01*
X74265042Y-87169921D01*
X73965417Y-86961449D01*
X73574002Y-86674947D01*
X73346698Y-86421671D01*
X73282002Y-86199544D01*
X73323868Y-86074970D01*
X73460128Y-85997487D01*
X73679037Y-86000094D01*
X73917978Y-86075869D01*
X74046509Y-86154825D01*
X74272276Y-86287714D01*
X74458568Y-86323862D01*
X74572143Y-86269591D01*
X74579757Y-86131225D01*
X74548699Y-86059302D01*
X74382017Y-85884718D01*
X74107239Y-85724956D01*
X73785081Y-85608083D01*
X73476263Y-85562164D01*
X73473180Y-85562158D01*
X73146322Y-85625011D01*
G36*
X70841861Y-85628485D02*
X70572694Y-85822702D01*
X70413908Y-86137665D01*
X70369608Y-86566231D01*
X70414354Y-86959899D01*
X70547071Y-87444556D01*
X70742320Y-87861682D01*
X70978826Y-88171264D01*
X71115900Y-88279448D01*
X71453205Y-88412685D01*
X71821366Y-88445126D01*
X72161683Y-88378896D01*
X72399357Y-88233006D01*
X72509239Y-88102800D01*
X72572110Y-87953825D01*
X72600558Y-87735796D01*
X72607175Y-87402963D01*
X72597916Y-87305528D01*
X72183348Y-87305528D01*
X72157319Y-87611282D01*
X72086979Y-87835105D01*
X72050795Y-87884444D01*
X71819542Y-88009604D01*
X71552781Y-87991961D01*
X71294728Y-87838098D01*
X71220956Y-87760862D01*
X71018551Y-87433131D01*
X70884345Y-87041157D01*
X70828950Y-86641178D01*
X70862979Y-86289430D01*
X70916821Y-86149258D01*
X71074746Y-86000707D01*
X71295290Y-85976041D01*
X71544825Y-86059825D01*
X71789722Y-86236624D01*
X71996354Y-86491001D01*
X72093789Y-86689503D01*
X72162894Y-86978163D01*
X72183348Y-87305528D01*
X72597916Y-87305528D01*
X72550321Y-86804726D01*
X72385810Y-86309980D01*
X72122725Y-85930753D01*
X71770147Y-85679072D01*
X71337158Y-85566966D01*
X71217306Y-85562158D01*
X70841861Y-85628485D01*
X70841861Y-85628485D01*
G37*
X70841861Y-85628485D02*
X70572694Y-85822702D01*
X70413908Y-86137665D01*
X70369608Y-86566231D01*
X70414354Y-86959899D01*
X70547071Y-87444556D01*
X70742320Y-87861682D01*
X70978826Y-88171264D01*
X71115900Y-88279448D01*
X71453205Y-88412685D01*
X71821366Y-88445126D01*
X72161683Y-88378896D01*
X72399357Y-88233006D01*
X72509239Y-88102800D01*
X72572110Y-87953825D01*
X72600558Y-87735796D01*
X72607175Y-87402963D01*
X72597916Y-87305528D01*
X72183348Y-87305528D01*
X72157319Y-87611282D01*
X72086979Y-87835105D01*
X72050795Y-87884444D01*
X71819542Y-88009604D01*
X71552781Y-87991961D01*
X71294728Y-87838098D01*
X71220956Y-87760862D01*
X71018551Y-87433131D01*
X70884345Y-87041157D01*
X70828950Y-86641178D01*
X70862979Y-86289430D01*
X70916821Y-86149258D01*
X71074746Y-86000707D01*
X71295290Y-85976041D01*
X71544825Y-86059825D01*
X71789722Y-86236624D01*
X71996354Y-86491001D01*
X72093789Y-86689503D01*
X72162894Y-86978163D01*
X72183348Y-87305528D01*
X72597916Y-87305528D01*
X72550321Y-86804726D01*
X72385810Y-86309980D01*
X72122725Y-85930753D01*
X71770147Y-85679072D01*
X71337158Y-85566966D01*
X71217306Y-85562158D01*
X70841861Y-85628485D01*
G36*
X68854723Y-85581179D02*
X68818716Y-85669646D01*
X68841891Y-85874666D01*
X68842726Y-85879658D01*
X68893717Y-86141688D01*
X68968269Y-86477980D01*
X69022893Y-86705158D01*
X69113570Y-87101158D01*
X69182093Y-87465045D01*
X69224292Y-87765551D01*
X69235996Y-87971408D01*
X69213034Y-88051348D01*
X69202072Y-88048430D01*
X69080210Y-88052632D01*
X68969405Y-88155092D01*
X68931212Y-88292440D01*
X68938267Y-88320015D01*
X69014741Y-88387129D01*
X69198584Y-88425607D01*
X69517035Y-88440299D01*
X69616775Y-88440825D01*
X69940543Y-88436381D01*
X70127739Y-88417713D01*
X70211013Y-88376810D01*
X70223010Y-88305667D01*
X70220826Y-88292658D01*
X70119958Y-88166701D01*
X69970522Y-88118656D01*
X69861967Y-88094948D01*
X69785962Y-88031728D01*
X69726709Y-87895482D01*
X69668410Y-87652692D01*
X69611365Y-87356656D01*
X69543809Y-87002644D01*
X69482348Y-86696593D01*
X69437175Y-86488732D01*
X69426808Y-86447407D01*
X69420223Y-86321791D01*
X69525045Y-86279625D01*
X69609090Y-86278074D01*
X69789748Y-86248665D01*
X69873047Y-86183249D01*
X69828659Y-86081433D01*
X69677224Y-85938034D01*
X69464489Y-85784466D01*
X69236200Y-85652142D01*
X69038101Y-85572476D01*
X68968584Y-85562158D01*
X68854723Y-85581179D01*
X68854723Y-85581179D01*
G37*
X68854723Y-85581179D02*
X68818716Y-85669646D01*
X68841891Y-85874666D01*
X68842726Y-85879658D01*
X68893717Y-86141688D01*
X68968269Y-86477980D01*
X69022893Y-86705158D01*
X69113570Y-87101158D01*
X69182093Y-87465045D01*
X69224292Y-87765551D01*
X69235996Y-87971408D01*
X69213034Y-88051348D01*
X69202072Y-88048430D01*
X69080210Y-88052632D01*
X68969405Y-88155092D01*
X68931212Y-88292440D01*
X68938267Y-88320015D01*
X69014741Y-88387129D01*
X69198584Y-88425607D01*
X69517035Y-88440299D01*
X69616775Y-88440825D01*
X69940543Y-88436381D01*
X70127739Y-88417713D01*
X70211013Y-88376810D01*
X70223010Y-88305667D01*
X70220826Y-88292658D01*
X70119958Y-88166701D01*
X69970522Y-88118656D01*
X69861967Y-88094948D01*
X69785962Y-88031728D01*
X69726709Y-87895482D01*
X69668410Y-87652692D01*
X69611365Y-87356656D01*
X69543809Y-87002644D01*
X69482348Y-86696593D01*
X69437175Y-86488732D01*
X69426808Y-86447407D01*
X69420223Y-86321791D01*
X69525045Y-86279625D01*
X69609090Y-86278074D01*
X69789748Y-86248665D01*
X69873047Y-86183249D01*
X69828659Y-86081433D01*
X69677224Y-85938034D01*
X69464489Y-85784466D01*
X69236200Y-85652142D01*
X69038101Y-85572476D01*
X68968584Y-85562158D01*
X68854723Y-85581179D01*
G36*
X66703860Y-85609317D02*
X66690452Y-85733769D01*
X66794014Y-85909971D01*
X67005763Y-86112385D01*
X67041701Y-86139983D01*
X67266339Y-86322634D01*
X67439996Y-86489336D01*
X67495018Y-86557886D01*
X67533648Y-86644683D01*
X67483975Y-86682886D01*
X67313713Y-86684618D01*
X67180209Y-86676093D01*
X66906802Y-86672831D01*
X66724638Y-86727029D01*
X66559313Y-86860992D01*
X66557559Y-86862744D01*
X66403672Y-87081063D01*
X66341842Y-87302347D01*
X66410798Y-87649453D01*
X66590126Y-87990109D01*
X66838519Y-88249929D01*
X66885399Y-88281170D01*
X67201033Y-88403394D01*
X67562383Y-88440211D01*
X67902711Y-88391748D01*
X68131629Y-88278807D01*
X68248047Y-88158057D01*
X68307409Y-88002501D01*
X68326279Y-87756291D01*
X68326228Y-87622641D01*
X68325786Y-87619191D01*
X67884312Y-87619191D01*
X67835092Y-87856842D01*
X67735903Y-87987777D01*
X67483633Y-88093865D01*
X67234630Y-88034110D01*
X67057660Y-87894340D01*
X66913749Y-87682171D01*
X66851752Y-87448262D01*
X66877002Y-87247235D01*
X66983767Y-87137550D01*
X67258998Y-87088046D01*
X67547258Y-87117218D01*
X67727795Y-87194610D01*
X67848285Y-87372917D01*
X67884312Y-87619191D01*
X68325786Y-87619191D01*
X68256961Y-87082256D01*
X68140625Y-86781629D01*
X67985065Y-86546521D01*
X67758598Y-86280310D01*
X67496216Y-86015883D01*
X67232913Y-85786125D01*
X67003681Y-85623922D01*
X66843514Y-85562159D01*
X66843019Y-85562158D01*
X66703860Y-85609317D01*
X66703860Y-85609317D01*
G37*
X66703860Y-85609317D02*
X66690452Y-85733769D01*
X66794014Y-85909971D01*
X67005763Y-86112385D01*
X67041701Y-86139983D01*
X67266339Y-86322634D01*
X67439996Y-86489336D01*
X67495018Y-86557886D01*
X67533648Y-86644683D01*
X67483975Y-86682886D01*
X67313713Y-86684618D01*
X67180209Y-86676093D01*
X66906802Y-86672831D01*
X66724638Y-86727029D01*
X66559313Y-86860992D01*
X66557559Y-86862744D01*
X66403672Y-87081063D01*
X66341842Y-87302347D01*
X66410798Y-87649453D01*
X66590126Y-87990109D01*
X66838519Y-88249929D01*
X66885399Y-88281170D01*
X67201033Y-88403394D01*
X67562383Y-88440211D01*
X67902711Y-88391748D01*
X68131629Y-88278807D01*
X68248047Y-88158057D01*
X68307409Y-88002501D01*
X68326279Y-87756291D01*
X68326228Y-87622641D01*
X68325786Y-87619191D01*
X67884312Y-87619191D01*
X67835092Y-87856842D01*
X67735903Y-87987777D01*
X67483633Y-88093865D01*
X67234630Y-88034110D01*
X67057660Y-87894340D01*
X66913749Y-87682171D01*
X66851752Y-87448262D01*
X66877002Y-87247235D01*
X66983767Y-87137550D01*
X67258998Y-87088046D01*
X67547258Y-87117218D01*
X67727795Y-87194610D01*
X67848285Y-87372917D01*
X67884312Y-87619191D01*
X68325786Y-87619191D01*
X68256961Y-87082256D01*
X68140625Y-86781629D01*
X67985065Y-86546521D01*
X67758598Y-86280310D01*
X67496216Y-86015883D01*
X67232913Y-85786125D01*
X67003681Y-85623922D01*
X66843514Y-85562159D01*
X66843019Y-85562158D01*
X66703860Y-85609317D01*
G36*
X72407289Y-81868706D02*
X72361593Y-81993739D01*
X72355929Y-82154325D01*
X72370441Y-82451371D01*
X72405770Y-82828753D01*
X72455930Y-83244407D01*
X72514933Y-83656270D01*
X72576790Y-84022278D01*
X72635514Y-84300368D01*
X72681648Y-84442443D01*
X72886074Y-84673998D01*
X73157136Y-84787028D01*
X73443953Y-84773161D01*
X73695644Y-84624026D01*
X73707872Y-84611287D01*
X73837245Y-84399908D01*
X73844579Y-84207559D01*
X73734393Y-84078983D01*
X73651614Y-84054389D01*
X73479474Y-84092354D01*
X73413075Y-84202555D01*
X73311231Y-84343807D01*
X73171668Y-84371877D01*
X73077193Y-84299197D01*
X73050840Y-84189831D01*
X73013023Y-83946211D01*
X72968486Y-83602638D01*
X72921974Y-83193413D01*
X72914759Y-83125028D01*
X72867451Y-82706460D01*
X72819949Y-82346111D01*
X72777357Y-82079023D01*
X72744778Y-81940234D01*
X72741076Y-81932656D01*
X72615204Y-81851951D01*
X72517512Y-81836825D01*
X72407289Y-81868706D01*
X72407289Y-81868706D01*
G37*
X72407289Y-81868706D02*
X72361593Y-81993739D01*
X72355929Y-82154325D01*
X72370441Y-82451371D01*
X72405770Y-82828753D01*
X72455930Y-83244407D01*
X72514933Y-83656270D01*
X72576790Y-84022278D01*
X72635514Y-84300368D01*
X72681648Y-84442443D01*
X72886074Y-84673998D01*
X73157136Y-84787028D01*
X73443953Y-84773161D01*
X73695644Y-84624026D01*
X73707872Y-84611287D01*
X73837245Y-84399908D01*
X73844579Y-84207559D01*
X73734393Y-84078983D01*
X73651614Y-84054389D01*
X73479474Y-84092354D01*
X73413075Y-84202555D01*
X73311231Y-84343807D01*
X73171668Y-84371877D01*
X73077193Y-84299197D01*
X73050840Y-84189831D01*
X73013023Y-83946211D01*
X72968486Y-83602638D01*
X72921974Y-83193413D01*
X72914759Y-83125028D01*
X72867451Y-82706460D01*
X72819949Y-82346111D01*
X72777357Y-82079023D01*
X72744778Y-81940234D01*
X72741076Y-81932656D01*
X72615204Y-81851951D01*
X72517512Y-81836825D01*
X72407289Y-81868706D01*
G36*
X80525260Y-81840681D02*
X80282086Y-81944158D01*
X80205495Y-82016249D01*
X80176877Y-82114886D01*
X80194598Y-82285438D01*
X80257025Y-82573278D01*
X80259112Y-82582232D01*
X80332652Y-83027048D01*
X80314791Y-83348137D01*
X80307503Y-83375953D01*
X80267761Y-83579351D01*
X80275525Y-83709019D01*
X80276959Y-83711545D01*
X80398444Y-83775949D01*
X80571164Y-83770601D01*
X80692984Y-83699262D01*
X80805431Y-83660424D01*
X80904081Y-83699262D01*
X81178887Y-83779647D01*
X81489315Y-83776158D01*
X81762927Y-83695680D01*
X81886220Y-83605900D01*
X82007291Y-83362247D01*
X82040871Y-83040943D01*
X82037624Y-83020393D01*
X81571871Y-83020393D01*
X81537549Y-83236941D01*
X81428691Y-83390915D01*
X81262273Y-83453275D01*
X81055269Y-83394981D01*
X80904509Y-83276158D01*
X80766628Y-83032346D01*
X80722475Y-82768158D01*
X80712272Y-82524541D01*
X80702980Y-82347300D01*
X80701309Y-82323658D01*
X80751699Y-82238214D01*
X80894611Y-82239342D01*
X81085709Y-82313893D01*
X81280658Y-82448720D01*
X81349009Y-82515733D01*
X81514683Y-82770310D01*
X81571871Y-83020393D01*
X82037624Y-83020393D01*
X81988339Y-82708476D01*
X81862158Y-82445840D01*
X81574066Y-82153085D01*
X81227828Y-81945943D01*
X80864529Y-81837460D01*
X80525260Y-81840681D01*
X80525260Y-81840681D01*
G37*
X80525260Y-81840681D02*
X80282086Y-81944158D01*
X80205495Y-82016249D01*
X80176877Y-82114886D01*
X80194598Y-82285438D01*
X80257025Y-82573278D01*
X80259112Y-82582232D01*
X80332652Y-83027048D01*
X80314791Y-83348137D01*
X80307503Y-83375953D01*
X80267761Y-83579351D01*
X80275525Y-83709019D01*
X80276959Y-83711545D01*
X80398444Y-83775949D01*
X80571164Y-83770601D01*
X80692984Y-83699262D01*
X80805431Y-83660424D01*
X80904081Y-83699262D01*
X81178887Y-83779647D01*
X81489315Y-83776158D01*
X81762927Y-83695680D01*
X81886220Y-83605900D01*
X82007291Y-83362247D01*
X82040871Y-83040943D01*
X82037624Y-83020393D01*
X81571871Y-83020393D01*
X81537549Y-83236941D01*
X81428691Y-83390915D01*
X81262273Y-83453275D01*
X81055269Y-83394981D01*
X80904509Y-83276158D01*
X80766628Y-83032346D01*
X80722475Y-82768158D01*
X80712272Y-82524541D01*
X80702980Y-82347300D01*
X80701309Y-82323658D01*
X80751699Y-82238214D01*
X80894611Y-82239342D01*
X81085709Y-82313893D01*
X81280658Y-82448720D01*
X81349009Y-82515733D01*
X81514683Y-82770310D01*
X81571871Y-83020393D01*
X82037624Y-83020393D01*
X81988339Y-82708476D01*
X81862158Y-82445840D01*
X81574066Y-82153085D01*
X81227828Y-81945943D01*
X80864529Y-81837460D01*
X80525260Y-81840681D01*
G36*
X79097925Y-80843608D02*
X79039181Y-80876384D01*
X79031510Y-80979341D01*
X79054125Y-81219215D01*
X79103079Y-81567086D01*
X79174428Y-81994032D01*
X79239506Y-82344825D01*
X79340764Y-82860411D01*
X79419804Y-83232850D01*
X79484099Y-83485703D01*
X79541123Y-83642531D01*
X79598349Y-83726898D01*
X79663251Y-83762365D01*
X79690852Y-83767833D01*
X79852826Y-83761097D01*
X79913170Y-83725500D01*
X79911411Y-83623510D01*
X79880828Y-83384390D01*
X79825908Y-83037034D01*
X79751139Y-82610336D01*
X79685731Y-82260818D01*
X79582086Y-81734857D01*
X79499366Y-81353732D01*
X79430975Y-81095196D01*
X79370322Y-80937000D01*
X79310813Y-80856898D01*
X79263088Y-80834711D01*
X79097925Y-80843608D01*
X79097925Y-80843608D01*
G37*
X79097925Y-80843608D02*
X79039181Y-80876384D01*
X79031510Y-80979341D01*
X79054125Y-81219215D01*
X79103079Y-81567086D01*
X79174428Y-81994032D01*
X79239506Y-82344825D01*
X79340764Y-82860411D01*
X79419804Y-83232850D01*
X79484099Y-83485703D01*
X79541123Y-83642531D01*
X79598349Y-83726898D01*
X79663251Y-83762365D01*
X79690852Y-83767833D01*
X79852826Y-83761097D01*
X79913170Y-83725500D01*
X79911411Y-83623510D01*
X79880828Y-83384390D01*
X79825908Y-83037034D01*
X79751139Y-82610336D01*
X79685731Y-82260818D01*
X79582086Y-81734857D01*
X79499366Y-81353732D01*
X79430975Y-81095196D01*
X79370322Y-80937000D01*
X79310813Y-80856898D01*
X79263088Y-80834711D01*
X79097925Y-80843608D01*
G36*
X77439347Y-81866038D02*
X77226928Y-81963785D01*
X77179175Y-82006158D01*
X77055439Y-82150900D01*
X77009842Y-82241319D01*
X77090772Y-82429635D01*
X77322699Y-82631349D01*
X77689328Y-82833638D01*
X77853000Y-82904892D01*
X78133025Y-83030650D01*
X78334833Y-83142300D01*
X78421971Y-83219124D01*
X78422415Y-83228533D01*
X78330668Y-83310702D01*
X78168109Y-83383958D01*
X77970103Y-83411844D01*
X77737093Y-83354031D01*
X77553246Y-83272804D01*
X77279906Y-83161603D01*
X77117718Y-83150544D01*
X77076946Y-83175187D01*
X77019819Y-83319363D01*
X77102909Y-83467884D01*
X77298385Y-83604279D01*
X77578414Y-83712079D01*
X77915164Y-83774813D01*
X78105986Y-83784158D01*
X78404632Y-83765071D01*
X78606069Y-83692883D01*
X78749357Y-83576340D01*
X78914434Y-83323034D01*
X78942111Y-83016523D01*
X78848251Y-82686697D01*
X78449175Y-82686697D01*
X78380557Y-82700276D01*
X78202433Y-82651846D01*
X77956401Y-82555830D01*
X77684059Y-82426650D01*
X77654570Y-82411189D01*
X77550539Y-82332860D01*
X77596347Y-82262805D01*
X77612237Y-82252354D01*
X77774811Y-82184572D01*
X77828846Y-82176788D01*
X77953874Y-82227550D01*
X78132421Y-82351520D01*
X78309018Y-82503104D01*
X78428194Y-82636704D01*
X78449175Y-82686697D01*
X78848251Y-82686697D01*
X78833413Y-82634556D01*
X78796619Y-82549836D01*
X78560954Y-82168039D01*
X78260088Y-81936063D01*
X77874987Y-81840811D01*
X77760424Y-81836825D01*
X77439347Y-81866038D01*
X77439347Y-81866038D01*
G37*
X77439347Y-81866038D02*
X77226928Y-81963785D01*
X77179175Y-82006158D01*
X77055439Y-82150900D01*
X77009842Y-82241319D01*
X77090772Y-82429635D01*
X77322699Y-82631349D01*
X77689328Y-82833638D01*
X77853000Y-82904892D01*
X78133025Y-83030650D01*
X78334833Y-83142300D01*
X78421971Y-83219124D01*
X78422415Y-83228533D01*
X78330668Y-83310702D01*
X78168109Y-83383958D01*
X77970103Y-83411844D01*
X77737093Y-83354031D01*
X77553246Y-83272804D01*
X77279906Y-83161603D01*
X77117718Y-83150544D01*
X77076946Y-83175187D01*
X77019819Y-83319363D01*
X77102909Y-83467884D01*
X77298385Y-83604279D01*
X77578414Y-83712079D01*
X77915164Y-83774813D01*
X78105986Y-83784158D01*
X78404632Y-83765071D01*
X78606069Y-83692883D01*
X78749357Y-83576340D01*
X78914434Y-83323034D01*
X78942111Y-83016523D01*
X78848251Y-82686697D01*
X78449175Y-82686697D01*
X78380557Y-82700276D01*
X78202433Y-82651846D01*
X77956401Y-82555830D01*
X77684059Y-82426650D01*
X77654570Y-82411189D01*
X77550539Y-82332860D01*
X77596347Y-82262805D01*
X77612237Y-82252354D01*
X77774811Y-82184572D01*
X77828846Y-82176788D01*
X77953874Y-82227550D01*
X78132421Y-82351520D01*
X78309018Y-82503104D01*
X78428194Y-82636704D01*
X78449175Y-82686697D01*
X78848251Y-82686697D01*
X78833413Y-82634556D01*
X78796619Y-82549836D01*
X78560954Y-82168039D01*
X78260088Y-81936063D01*
X77874987Y-81840811D01*
X77760424Y-81836825D01*
X77439347Y-81866038D01*
G36*
X74532944Y-81896629D02*
X74503658Y-81935273D01*
X74525336Y-82056213D01*
X74685529Y-82246109D01*
X74973612Y-82493723D01*
X75172973Y-82643400D01*
X75410188Y-82814976D01*
X75145576Y-83180262D01*
X75004498Y-83406956D01*
X74929073Y-83592973D01*
X74926746Y-83664853D01*
X75036868Y-83777564D01*
X75206897Y-83757289D01*
X75406609Y-83614394D01*
X75543281Y-83453399D01*
X75781034Y-83122640D01*
X76182689Y-83417482D01*
X76497396Y-83611876D01*
X76731476Y-83677446D01*
X76874876Y-83612218D01*
X76901629Y-83558582D01*
X76856232Y-83459500D01*
X76704407Y-83311075D01*
X76565109Y-83205894D01*
X76275455Y-82998408D01*
X76113545Y-82845746D01*
X76063964Y-82712292D01*
X76111297Y-82562432D01*
X76215076Y-82397225D01*
X76336158Y-82180064D01*
X76388806Y-82004340D01*
X76384390Y-81958176D01*
X76274353Y-81844095D01*
X76109899Y-81860431D01*
X75928613Y-81995437D01*
X75824509Y-82133158D01*
X75699824Y-82317896D01*
X75609545Y-82421435D01*
X75593490Y-82429491D01*
X75506839Y-82380105D01*
X75334184Y-82252875D01*
X75183980Y-82133158D01*
X74887378Y-81920782D01*
X74674770Y-81843220D01*
X74532944Y-81896629D01*
X74532944Y-81896629D01*
G37*
X74532944Y-81896629D02*
X74503658Y-81935273D01*
X74525336Y-82056213D01*
X74685529Y-82246109D01*
X74973612Y-82493723D01*
X75172973Y-82643400D01*
X75410188Y-82814976D01*
X75145576Y-83180262D01*
X75004498Y-83406956D01*
X74929073Y-83592973D01*
X74926746Y-83664853D01*
X75036868Y-83777564D01*
X75206897Y-83757289D01*
X75406609Y-83614394D01*
X75543281Y-83453399D01*
X75781034Y-83122640D01*
X76182689Y-83417482D01*
X76497396Y-83611876D01*
X76731476Y-83677446D01*
X76874876Y-83612218D01*
X76901629Y-83558582D01*
X76856232Y-83459500D01*
X76704407Y-83311075D01*
X76565109Y-83205894D01*
X76275455Y-82998408D01*
X76113545Y-82845746D01*
X76063964Y-82712292D01*
X76111297Y-82562432D01*
X76215076Y-82397225D01*
X76336158Y-82180064D01*
X76388806Y-82004340D01*
X76384390Y-81958176D01*
X76274353Y-81844095D01*
X76109899Y-81860431D01*
X75928613Y-81995437D01*
X75824509Y-82133158D01*
X75699824Y-82317896D01*
X75609545Y-82421435D01*
X75593490Y-82429491D01*
X75506839Y-82380105D01*
X75334184Y-82252875D01*
X75183980Y-82133158D01*
X74887378Y-81920782D01*
X74674770Y-81843220D01*
X74532944Y-81896629D01*
G36*
X70365260Y-81840681D02*
X70122086Y-81944158D01*
X70045495Y-82016249D01*
X70016877Y-82114886D01*
X70034598Y-82285438D01*
X70097025Y-82573278D01*
X70099112Y-82582232D01*
X70172652Y-83027048D01*
X70154791Y-83348137D01*
X70147503Y-83375953D01*
X70107761Y-83579351D01*
X70115525Y-83709019D01*
X70116959Y-83711545D01*
X70238444Y-83775949D01*
X70411164Y-83770601D01*
X70532984Y-83699262D01*
X70645431Y-83660424D01*
X70744081Y-83699262D01*
X71018887Y-83779647D01*
X71329315Y-83776158D01*
X71602927Y-83695680D01*
X71726220Y-83605900D01*
X71847291Y-83362247D01*
X71880871Y-83040943D01*
X71877624Y-83020393D01*
X71411871Y-83020393D01*
X71377549Y-83236941D01*
X71268691Y-83390915D01*
X71102273Y-83453275D01*
X70895269Y-83394981D01*
X70744509Y-83276158D01*
X70606628Y-83032346D01*
X70562475Y-82768158D01*
X70552272Y-82524541D01*
X70542980Y-82347300D01*
X70541309Y-82323658D01*
X70591699Y-82238214D01*
X70734611Y-82239342D01*
X70925709Y-82313893D01*
X71120658Y-82448720D01*
X71189009Y-82515733D01*
X71354683Y-82770310D01*
X71411871Y-83020393D01*
X71877624Y-83020393D01*
X71828339Y-82708476D01*
X71702158Y-82445840D01*
X71414066Y-82153085D01*
X71067828Y-81945943D01*
X70704529Y-81837460D01*
X70365260Y-81840681D01*
X70365260Y-81840681D01*
G37*
X70365260Y-81840681D02*
X70122086Y-81944158D01*
X70045495Y-82016249D01*
X70016877Y-82114886D01*
X70034598Y-82285438D01*
X70097025Y-82573278D01*
X70099112Y-82582232D01*
X70172652Y-83027048D01*
X70154791Y-83348137D01*
X70147503Y-83375953D01*
X70107761Y-83579351D01*
X70115525Y-83709019D01*
X70116959Y-83711545D01*
X70238444Y-83775949D01*
X70411164Y-83770601D01*
X70532984Y-83699262D01*
X70645431Y-83660424D01*
X70744081Y-83699262D01*
X71018887Y-83779647D01*
X71329315Y-83776158D01*
X71602927Y-83695680D01*
X71726220Y-83605900D01*
X71847291Y-83362247D01*
X71880871Y-83040943D01*
X71877624Y-83020393D01*
X71411871Y-83020393D01*
X71377549Y-83236941D01*
X71268691Y-83390915D01*
X71102273Y-83453275D01*
X70895269Y-83394981D01*
X70744509Y-83276158D01*
X70606628Y-83032346D01*
X70562475Y-82768158D01*
X70552272Y-82524541D01*
X70542980Y-82347300D01*
X70541309Y-82323658D01*
X70591699Y-82238214D01*
X70734611Y-82239342D01*
X70925709Y-82313893D01*
X71120658Y-82448720D01*
X71189009Y-82515733D01*
X71354683Y-82770310D01*
X71411871Y-83020393D01*
X71877624Y-83020393D01*
X71828339Y-82708476D01*
X71702158Y-82445840D01*
X71414066Y-82153085D01*
X71067828Y-81945943D01*
X70704529Y-81837460D01*
X70365260Y-81840681D01*
G36*
X68319595Y-81852528D02*
X68134904Y-81885248D01*
X68014495Y-81964557D01*
X67950913Y-82116918D01*
X67936700Y-82368795D01*
X67964402Y-82746653D01*
X67993762Y-83009011D01*
X68039270Y-83362994D01*
X68081693Y-83582515D01*
X68133982Y-83701684D01*
X68209083Y-83754611D01*
X68282862Y-83770612D01*
X68484947Y-83799400D01*
X68430318Y-83029779D01*
X68409449Y-82622931D01*
X68423132Y-82372545D01*
X68481719Y-82267490D01*
X68595562Y-82296632D01*
X68775011Y-82448839D01*
X68875999Y-82550463D01*
X69136139Y-82925983D01*
X69258452Y-83291296D01*
X69332039Y-83562556D01*
X69413587Y-83706855D01*
X69528878Y-83765628D01*
X69556643Y-83770534D01*
X69668943Y-83777410D01*
X69720513Y-83729300D01*
X69724296Y-83587324D01*
X69697544Y-83347201D01*
X69608128Y-82740323D01*
X69509106Y-82295158D01*
X69396815Y-82004188D01*
X69267595Y-81859899D01*
X69117785Y-81854774D01*
X69004775Y-81924867D01*
X68867172Y-81983333D01*
X68760751Y-81926395D01*
X68600427Y-81866678D01*
X68362882Y-81849892D01*
X68319595Y-81852528D01*
X68319595Y-81852528D01*
G37*
X68319595Y-81852528D02*
X68134904Y-81885248D01*
X68014495Y-81964557D01*
X67950913Y-82116918D01*
X67936700Y-82368795D01*
X67964402Y-82746653D01*
X67993762Y-83009011D01*
X68039270Y-83362994D01*
X68081693Y-83582515D01*
X68133982Y-83701684D01*
X68209083Y-83754611D01*
X68282862Y-83770612D01*
X68484947Y-83799400D01*
X68430318Y-83029779D01*
X68409449Y-82622931D01*
X68423132Y-82372545D01*
X68481719Y-82267490D01*
X68595562Y-82296632D01*
X68775011Y-82448839D01*
X68875999Y-82550463D01*
X69136139Y-82925983D01*
X69258452Y-83291296D01*
X69332039Y-83562556D01*
X69413587Y-83706855D01*
X69528878Y-83765628D01*
X69556643Y-83770534D01*
X69668943Y-83777410D01*
X69720513Y-83729300D01*
X69724296Y-83587324D01*
X69697544Y-83347201D01*
X69608128Y-82740323D01*
X69509106Y-82295158D01*
X69396815Y-82004188D01*
X69267595Y-81859899D01*
X69117785Y-81854774D01*
X69004775Y-81924867D01*
X68867172Y-81983333D01*
X68760751Y-81926395D01*
X68600427Y-81866678D01*
X68362882Y-81849892D01*
X68319595Y-81852528D01*
G36*
X66859542Y-80835771D02*
X66792298Y-80898034D01*
X66769289Y-81033745D01*
X66788531Y-81269041D01*
X66848039Y-81630053D01*
X66893260Y-81871032D01*
X66949747Y-82184963D01*
X66986542Y-82427027D01*
X66997605Y-82556033D01*
X66995204Y-82566352D01*
X66921342Y-82531045D01*
X66750727Y-82413713D01*
X66518406Y-82238641D01*
X66487711Y-82214644D01*
X66163539Y-81987543D01*
X65907062Y-81862842D01*
X65735300Y-81845810D01*
X65665271Y-81941714D01*
X65664509Y-81959835D01*
X65726233Y-82080025D01*
X65883838Y-82251172D01*
X66003175Y-82355005D01*
X66196272Y-82523656D01*
X66318904Y-82656660D01*
X66341842Y-82702153D01*
X66297787Y-82812648D01*
X66186905Y-83002399D01*
X66130175Y-83088637D01*
X65968622Y-83382340D01*
X65919317Y-83609322D01*
X65982907Y-83748470D01*
X66109009Y-83782478D01*
X66264767Y-83726087D01*
X66431056Y-83544377D01*
X66545370Y-83366563D01*
X66692060Y-83134413D01*
X66794373Y-83026973D01*
X66885411Y-83018388D01*
X66949705Y-83050743D01*
X67075372Y-83194535D01*
X67180532Y-83421719D01*
X67193941Y-83466658D01*
X67273519Y-83681202D01*
X67382179Y-83771289D01*
X67488106Y-83784158D01*
X67645656Y-83754988D01*
X67696509Y-83700144D01*
X67681278Y-83589360D01*
X67639642Y-83346524D01*
X67577687Y-83005773D01*
X67501496Y-82601244D01*
X67488986Y-82535978D01*
X67405446Y-82096864D01*
X67329367Y-81689191D01*
X67268903Y-81357155D01*
X67232207Y-81144949D01*
X67231150Y-81138324D01*
X67179456Y-80925978D01*
X67090626Y-80836087D01*
X66973006Y-80820824D01*
X66859542Y-80835771D01*
X66859542Y-80835771D01*
G37*
X66859542Y-80835771D02*
X66792298Y-80898034D01*
X66769289Y-81033745D01*
X66788531Y-81269041D01*
X66848039Y-81630053D01*
X66893260Y-81871032D01*
X66949747Y-82184963D01*
X66986542Y-82427027D01*
X66997605Y-82556033D01*
X66995204Y-82566352D01*
X66921342Y-82531045D01*
X66750727Y-82413713D01*
X66518406Y-82238641D01*
X66487711Y-82214644D01*
X66163539Y-81987543D01*
X65907062Y-81862842D01*
X65735300Y-81845810D01*
X65665271Y-81941714D01*
X65664509Y-81959835D01*
X65726233Y-82080025D01*
X65883838Y-82251172D01*
X66003175Y-82355005D01*
X66196272Y-82523656D01*
X66318904Y-82656660D01*
X66341842Y-82702153D01*
X66297787Y-82812648D01*
X66186905Y-83002399D01*
X66130175Y-83088637D01*
X65968622Y-83382340D01*
X65919317Y-83609322D01*
X65982907Y-83748470D01*
X66109009Y-83782478D01*
X66264767Y-83726087D01*
X66431056Y-83544377D01*
X66545370Y-83366563D01*
X66692060Y-83134413D01*
X66794373Y-83026973D01*
X66885411Y-83018388D01*
X66949705Y-83050743D01*
X67075372Y-83194535D01*
X67180532Y-83421719D01*
X67193941Y-83466658D01*
X67273519Y-83681202D01*
X67382179Y-83771289D01*
X67488106Y-83784158D01*
X67645656Y-83754988D01*
X67696509Y-83700144D01*
X67681278Y-83589360D01*
X67639642Y-83346524D01*
X67577687Y-83005773D01*
X67501496Y-82601244D01*
X67488986Y-82535978D01*
X67405446Y-82096864D01*
X67329367Y-81689191D01*
X67268903Y-81357155D01*
X67232207Y-81144949D01*
X67231150Y-81138324D01*
X67179456Y-80925978D01*
X67090626Y-80836087D01*
X66973006Y-80820824D01*
X66859542Y-80835771D01*
G36*
X64184593Y-81840681D02*
X63941419Y-81944158D01*
X63864829Y-82016249D01*
X63836211Y-82114886D01*
X63853932Y-82285438D01*
X63916358Y-82573278D01*
X63918445Y-82582232D01*
X63991985Y-83027048D01*
X63974125Y-83348137D01*
X63966837Y-83375953D01*
X63927095Y-83579351D01*
X63934858Y-83709019D01*
X63936292Y-83711545D01*
X64057777Y-83775949D01*
X64230497Y-83770601D01*
X64352317Y-83699262D01*
X64464764Y-83660424D01*
X64563414Y-83699262D01*
X64838221Y-83779647D01*
X65148649Y-83776158D01*
X65422260Y-83695680D01*
X65545553Y-83605900D01*
X65666624Y-83362247D01*
X65700204Y-83040943D01*
X65696958Y-83020393D01*
X65231205Y-83020393D01*
X65196883Y-83236941D01*
X65088025Y-83390915D01*
X64921606Y-83453275D01*
X64714602Y-83394981D01*
X64563842Y-83276158D01*
X64425961Y-83032346D01*
X64381809Y-82768158D01*
X64371605Y-82524541D01*
X64362313Y-82347300D01*
X64360642Y-82323658D01*
X64411033Y-82238214D01*
X64553945Y-82239342D01*
X64745043Y-82313893D01*
X64939991Y-82448720D01*
X65008342Y-82515733D01*
X65174016Y-82770310D01*
X65231205Y-83020393D01*
X65696958Y-83020393D01*
X65647673Y-82708476D01*
X65521491Y-82445840D01*
X65233400Y-82153085D01*
X64887161Y-81945943D01*
X64523863Y-81837460D01*
X64184593Y-81840681D01*
X64184593Y-81840681D01*
G37*
X64184593Y-81840681D02*
X63941419Y-81944158D01*
X63864829Y-82016249D01*
X63836211Y-82114886D01*
X63853932Y-82285438D01*
X63916358Y-82573278D01*
X63918445Y-82582232D01*
X63991985Y-83027048D01*
X63974125Y-83348137D01*
X63966837Y-83375953D01*
X63927095Y-83579351D01*
X63934858Y-83709019D01*
X63936292Y-83711545D01*
X64057777Y-83775949D01*
X64230497Y-83770601D01*
X64352317Y-83699262D01*
X64464764Y-83660424D01*
X64563414Y-83699262D01*
X64838221Y-83779647D01*
X65148649Y-83776158D01*
X65422260Y-83695680D01*
X65545553Y-83605900D01*
X65666624Y-83362247D01*
X65700204Y-83040943D01*
X65696958Y-83020393D01*
X65231205Y-83020393D01*
X65196883Y-83236941D01*
X65088025Y-83390915D01*
X64921606Y-83453275D01*
X64714602Y-83394981D01*
X64563842Y-83276158D01*
X64425961Y-83032346D01*
X64381809Y-82768158D01*
X64371605Y-82524541D01*
X64362313Y-82347300D01*
X64360642Y-82323658D01*
X64411033Y-82238214D01*
X64553945Y-82239342D01*
X64745043Y-82313893D01*
X64939991Y-82448720D01*
X65008342Y-82515733D01*
X65174016Y-82770310D01*
X65231205Y-83020393D01*
X65696958Y-83020393D01*
X65647673Y-82708476D01*
X65521491Y-82445840D01*
X65233400Y-82153085D01*
X64887161Y-81945943D01*
X64523863Y-81837460D01*
X64184593Y-81840681D01*
G36*
X72255468Y-81045915D02*
X72213334Y-81200014D01*
X72234959Y-81278851D01*
X72350158Y-81380041D01*
X72534113Y-81411622D01*
X72697768Y-81365378D01*
X72736468Y-81325116D01*
X72736428Y-81191850D01*
X72627749Y-81061739D01*
X72462288Y-80991920D01*
X72432472Y-80990158D01*
X72255468Y-81045915D01*
X72255468Y-81045915D01*
G37*
X72255468Y-81045915D02*
X72213334Y-81200014D01*
X72234959Y-81278851D01*
X72350158Y-81380041D01*
X72534113Y-81411622D01*
X72697768Y-81365378D01*
X72736468Y-81325116D01*
X72736428Y-81191850D01*
X72627749Y-81061739D01*
X72462288Y-80991920D01*
X72432472Y-80990158D01*
X72255468Y-81045915D01*
D11*
X107530509Y-94544491D02*
X106530509Y-94544491D01*
X106530509Y-95894491D02*
X107530509Y-95894491D01*
X65697175Y-106576634D02*
X65744794Y-106624253D01*
X65887651Y-106671872D01*
X65982889Y-106671872D01*
X66125747Y-106624253D01*
X66220985Y-106529015D01*
X66268604Y-106433777D01*
X66316223Y-106243301D01*
X66316223Y-106100443D01*
X66268604Y-105909967D01*
X66220985Y-105814729D01*
X66125747Y-105719491D01*
X65982889Y-105671872D01*
X65887651Y-105671872D01*
X65744794Y-105719491D01*
X65697175Y-105767110D01*
X64744794Y-106671872D02*
X65316223Y-106671872D01*
X65030509Y-106671872D02*
X65030509Y-105671872D01*
X65125747Y-105814729D01*
X65220985Y-105909967D01*
X65316223Y-105957586D01*
X78197175Y-106576634D02*
X78244794Y-106624253D01*
X78387651Y-106671872D01*
X78482889Y-106671872D01*
X78625747Y-106624253D01*
X78720985Y-106529015D01*
X78768604Y-106433777D01*
X78816223Y-106243301D01*
X78816223Y-106100443D01*
X78768604Y-105909967D01*
X78720985Y-105814729D01*
X78625747Y-105719491D01*
X78482889Y-105671872D01*
X78387651Y-105671872D01*
X78244794Y-105719491D01*
X78197175Y-105767110D01*
X77816223Y-105767110D02*
X77768604Y-105719491D01*
X77673366Y-105671872D01*
X77435270Y-105671872D01*
X77340032Y-105719491D01*
X77292413Y-105767110D01*
X77244794Y-105862348D01*
X77244794Y-105957586D01*
X77292413Y-106100443D01*
X77863842Y-106671872D01*
X77244794Y-106671872D01*
X88166666Y-105607143D02*
X88214285Y-105654762D01*
X88357142Y-105702381D01*
X88452380Y-105702381D01*
X88595238Y-105654762D01*
X88690476Y-105559524D01*
X88738095Y-105464286D01*
X88785714Y-105273810D01*
X88785714Y-105130952D01*
X88738095Y-104940476D01*
X88690476Y-104845238D01*
X88595238Y-104750000D01*
X88452380Y-104702381D01*
X88357142Y-104702381D01*
X88214285Y-104750000D01*
X88166666Y-104797619D01*
X87833333Y-104702381D02*
X87214285Y-104702381D01*
X87547619Y-105083333D01*
X87404761Y-105083333D01*
X87309523Y-105130952D01*
X87261904Y-105178571D01*
X87214285Y-105273810D01*
X87214285Y-105511905D01*
X87261904Y-105607143D01*
X87309523Y-105654762D01*
X87404761Y-105702381D01*
X87690476Y-105702381D01*
X87785714Y-105654762D01*
X87833333Y-105607143D01*
X113607143Y-109833334D02*
X113654762Y-109785715D01*
X113702381Y-109642858D01*
X113702381Y-109547620D01*
X113654762Y-109404762D01*
X113559524Y-109309524D01*
X113464286Y-109261905D01*
X113273810Y-109214286D01*
X113130952Y-109214286D01*
X112940476Y-109261905D01*
X112845238Y-109309524D01*
X112750000Y-109404762D01*
X112702381Y-109547620D01*
X112702381Y-109642858D01*
X112750000Y-109785715D01*
X112797619Y-109833334D01*
X113035714Y-110690477D02*
X113702381Y-110690477D01*
X112654762Y-110452381D02*
X113369048Y-110214286D01*
X113369048Y-110833334D01*
X109166666Y-105607143D02*
X109214285Y-105654762D01*
X109357142Y-105702381D01*
X109452380Y-105702381D01*
X109595238Y-105654762D01*
X109690476Y-105559524D01*
X109738095Y-105464286D01*
X109785714Y-105273810D01*
X109785714Y-105130952D01*
X109738095Y-104940476D01*
X109690476Y-104845238D01*
X109595238Y-104750000D01*
X109452380Y-104702381D01*
X109357142Y-104702381D01*
X109214285Y-104750000D01*
X109166666Y-104797619D01*
X108261904Y-104702381D02*
X108738095Y-104702381D01*
X108785714Y-105178571D01*
X108738095Y-105130952D01*
X108642857Y-105083333D01*
X108404761Y-105083333D01*
X108309523Y-105130952D01*
X108261904Y-105178571D01*
X108214285Y-105273810D01*
X108214285Y-105511905D01*
X108261904Y-105607143D01*
X108309523Y-105654762D01*
X108404761Y-105702381D01*
X108642857Y-105702381D01*
X108738095Y-105654762D01*
X108785714Y-105607143D01*
X88166666Y-113607143D02*
X88214285Y-113654762D01*
X88357142Y-113702381D01*
X88452380Y-113702381D01*
X88595238Y-113654762D01*
X88690476Y-113559524D01*
X88738095Y-113464286D01*
X88785714Y-113273810D01*
X88785714Y-113130952D01*
X88738095Y-112940476D01*
X88690476Y-112845238D01*
X88595238Y-112750000D01*
X88452380Y-112702381D01*
X88357142Y-112702381D01*
X88214285Y-112750000D01*
X88166666Y-112797619D01*
X87309523Y-112702381D02*
X87500000Y-112702381D01*
X87595238Y-112750000D01*
X87642857Y-112797619D01*
X87738095Y-112940476D01*
X87785714Y-113130952D01*
X87785714Y-113511905D01*
X87738095Y-113607143D01*
X87690476Y-113654762D01*
X87595238Y-113702381D01*
X87404761Y-113702381D01*
X87309523Y-113654762D01*
X87261904Y-113607143D01*
X87214285Y-113511905D01*
X87214285Y-113273810D01*
X87261904Y-113178571D01*
X87309523Y-113130952D01*
X87404761Y-113083333D01*
X87595238Y-113083333D01*
X87690476Y-113130952D01*
X87738095Y-113178571D01*
X87785714Y-113273810D01*
X98447175Y-119326634D02*
X98494794Y-119374253D01*
X98637651Y-119421872D01*
X98732889Y-119421872D01*
X98875747Y-119374253D01*
X98970985Y-119279015D01*
X99018604Y-119183777D01*
X99066223Y-118993301D01*
X99066223Y-118850443D01*
X99018604Y-118659967D01*
X98970985Y-118564729D01*
X98875747Y-118469491D01*
X98732889Y-118421872D01*
X98637651Y-118421872D01*
X98494794Y-118469491D01*
X98447175Y-118517110D01*
X98113842Y-118421872D02*
X97447175Y-118421872D01*
X97875747Y-119421872D01*
X103202381Y-96083334D02*
X102726190Y-95750000D01*
X103202381Y-95511905D02*
X102202381Y-95511905D01*
X102202381Y-95892858D01*
X102250000Y-95988096D01*
X102297619Y-96035715D01*
X102392857Y-96083334D01*
X102535714Y-96083334D01*
X102630952Y-96035715D01*
X102678571Y-95988096D01*
X102726190Y-95892858D01*
X102726190Y-95511905D01*
X102202381Y-96416667D02*
X102202381Y-97035715D01*
X102583333Y-96702381D01*
X102583333Y-96845239D01*
X102630952Y-96940477D01*
X102678571Y-96988096D01*
X102773810Y-97035715D01*
X103011905Y-97035715D01*
X103107143Y-96988096D01*
X103154762Y-96940477D01*
X103202381Y-96845239D01*
X103202381Y-96559524D01*
X103154762Y-96464286D01*
X103107143Y-96416667D01*
X94658027Y-113419469D02*
X94085607Y-113991889D01*
X93984592Y-114025561D01*
X93917249Y-114025561D01*
X93816234Y-113991889D01*
X93681546Y-113857201D01*
X93647874Y-113756186D01*
X93647874Y-113688843D01*
X93681546Y-113587828D01*
X94253966Y-113015408D01*
X92839752Y-113015408D02*
X93243814Y-113419469D01*
X93041783Y-113217439D02*
X93748890Y-112510332D01*
X93715218Y-112678691D01*
X93715218Y-112813377D01*
X93748890Y-112914393D01*
X71756700Y-108945681D02*
X71756700Y-109421872D01*
X72090033Y-108421872D02*
X71756700Y-108945681D01*
X71423366Y-108421872D01*
X70566223Y-109421872D02*
X71137652Y-109421872D01*
X70851938Y-109421872D02*
X70851938Y-108421872D01*
X70947176Y-108564729D01*
X71042414Y-108659967D01*
X71137652Y-108707586D01*
X107197175Y-96921872D02*
X107530509Y-96445681D01*
X107768604Y-96921872D02*
X107768604Y-95921872D01*
X107387651Y-95921872D01*
X107292413Y-95969491D01*
X107244794Y-96017110D01*
X107197175Y-96112348D01*
X107197175Y-96255205D01*
X107244794Y-96350443D01*
X107292413Y-96398062D01*
X107387651Y-96445681D01*
X107768604Y-96445681D01*
X106340032Y-96255205D02*
X106340032Y-96921872D01*
X106578128Y-95874253D02*
X106816223Y-96588539D01*
X106197175Y-96588539D01*
M02*
