G04 #@! TF.FileFunction,Soldermask,Top*
%FSLAX46Y46*%
G04 Gerber Fmt 4.6, Leading zero omitted, Abs format (unit mm)*
G04 Created by KiCad (PCBNEW 4.0.2-stable) date 4/25/2016 1:55:35 PM*
%MOMM*%
G01*
G04 APERTURE LIST*
%ADD10C,0.100000*%
%ADD11C,2.286000*%
%ADD12R,0.500380X2.301240*%
%ADD13R,1.998980X2.499360*%
%ADD14C,0.899160*%
%ADD15C,1.699260*%
%ADD16R,1.699260X1.699260*%
%ADD17R,2.000000X2.000000*%
%ADD18C,2.000000*%
%ADD19R,0.900000X1.200000*%
%ADD20R,2.180000X1.600000*%
%ADD21R,1.727200X1.727200*%
%ADD22O,1.727200X1.727200*%
%ADD23R,0.750000X1.200000*%
G04 APERTURE END LIST*
D10*
D11*
X72540000Y-113970000D03*
X66190000Y-116510000D03*
D12*
X90600200Y-87449320D03*
X89800100Y-87449320D03*
X89000000Y-87449320D03*
X88199900Y-87449320D03*
X87399800Y-87449320D03*
D13*
X93450080Y-87350260D03*
X93450080Y-81851160D03*
X84549920Y-87350260D03*
X84549920Y-81851160D03*
D14*
X91199640Y-84850900D03*
X86800360Y-84850900D03*
D15*
X64839480Y-92002540D03*
D16*
X74999480Y-92002540D03*
D15*
X64839480Y-127502540D03*
D16*
X74999480Y-127502540D03*
D15*
X64839480Y-130102540D03*
D16*
X74999480Y-130102540D03*
D15*
X83889480Y-92002540D03*
D16*
X94049480Y-92002540D03*
D15*
X83889480Y-127502540D03*
D16*
X94049480Y-127502540D03*
D15*
X83889480Y-130102540D03*
D16*
X94049480Y-130102540D03*
D15*
X102939480Y-92002540D03*
D16*
X113099480Y-92002540D03*
D15*
X102939480Y-127502540D03*
D16*
X113099480Y-127502540D03*
D15*
X102939480Y-130102540D03*
D16*
X113099480Y-130102540D03*
D17*
X107000000Y-82000000D03*
D18*
X104460000Y-82000000D03*
D19*
X97250000Y-82850000D03*
X97250000Y-80650000D03*
X100250000Y-82850000D03*
X100250000Y-80650000D03*
D11*
X72540000Y-94920000D03*
X66190000Y-97460000D03*
X72540000Y-133020000D03*
X66190000Y-135560000D03*
X91590000Y-94920000D03*
X85240000Y-97460000D03*
X91590000Y-113970000D03*
X85240000Y-116510000D03*
X91590000Y-133020000D03*
X85240000Y-135560000D03*
X110640000Y-94920000D03*
X104290000Y-97460000D03*
X110640000Y-113970000D03*
X104290000Y-116510000D03*
X110640000Y-133020000D03*
X104290000Y-135560000D03*
D20*
X106602430Y-87002320D03*
X97397570Y-86997680D03*
D21*
X111000000Y-82000000D03*
D22*
X113540000Y-82000000D03*
X111000000Y-84540000D03*
X113540000Y-84540000D03*
X111000000Y-87080000D03*
X113540000Y-87080000D03*
D23*
X82030509Y-82769491D03*
X82030509Y-84669491D03*
M02*
