G04 #@! TF.FileFunction,Copper,L1,Top,Signal*
%FSLAX46Y46*%
G04 Gerber Fmt 4.6, Leading zero omitted, Abs format (unit mm)*
G04 Created by KiCad (PCBNEW 4.0.2-stable) date 4/25/2016 1:55:35 PM*
%MOMM*%
G01*
G04 APERTURE LIST*
%ADD10C,0.100000*%
%ADD11C,2.286000*%
%ADD12R,0.500380X2.301240*%
%ADD13R,1.998980X2.499360*%
%ADD14C,1.699260*%
%ADD15R,1.699260X1.699260*%
%ADD16R,2.000000X2.000000*%
%ADD17C,2.000000*%
%ADD18R,0.900000X1.200000*%
%ADD19R,2.180000X1.600000*%
%ADD20R,1.727200X1.727200*%
%ADD21O,1.727200X1.727200*%
%ADD22R,0.750000X1.200000*%
%ADD23C,0.600000*%
%ADD24C,0.250000*%
%ADD25C,0.254000*%
G04 APERTURE END LIST*
D10*
D11*
X72540000Y-113970000D03*
X66190000Y-116510000D03*
D12*
X90600200Y-87449320D03*
X89800100Y-87449320D03*
X89000000Y-87449320D03*
X88199900Y-87449320D03*
X87399800Y-87449320D03*
D13*
X93450080Y-87350260D03*
X93450080Y-81851160D03*
X84549920Y-87350260D03*
X84549920Y-81851160D03*
D14*
X64839480Y-92002540D03*
D15*
X74999480Y-92002540D03*
D14*
X64839480Y-127502540D03*
D15*
X74999480Y-127502540D03*
D14*
X64839480Y-130102540D03*
D15*
X74999480Y-130102540D03*
D14*
X83889480Y-92002540D03*
D15*
X94049480Y-92002540D03*
D14*
X83889480Y-127502540D03*
D15*
X94049480Y-127502540D03*
D14*
X83889480Y-130102540D03*
D15*
X94049480Y-130102540D03*
D14*
X102939480Y-92002540D03*
D15*
X113099480Y-92002540D03*
D14*
X102939480Y-127502540D03*
D15*
X113099480Y-127502540D03*
D14*
X102939480Y-130102540D03*
D15*
X113099480Y-130102540D03*
D16*
X107000000Y-82000000D03*
D17*
X104460000Y-82000000D03*
D18*
X97250000Y-82850000D03*
X97250000Y-80650000D03*
X100250000Y-82850000D03*
X100250000Y-80650000D03*
D11*
X72540000Y-94920000D03*
X66190000Y-97460000D03*
X72540000Y-133020000D03*
X66190000Y-135560000D03*
X91590000Y-94920000D03*
X85240000Y-97460000D03*
X91590000Y-113970000D03*
X85240000Y-116510000D03*
X91590000Y-133020000D03*
X85240000Y-135560000D03*
X110640000Y-94920000D03*
X104290000Y-97460000D03*
X110640000Y-113970000D03*
X104290000Y-116510000D03*
X110640000Y-133020000D03*
X104290000Y-135560000D03*
D19*
X106602430Y-87002320D03*
X97397570Y-86997680D03*
D20*
X111000000Y-82000000D03*
D21*
X113540000Y-82000000D03*
X111000000Y-84540000D03*
X113540000Y-84540000D03*
X111000000Y-87080000D03*
X113540000Y-87080000D03*
D22*
X82030509Y-82769491D03*
X82030509Y-84669491D03*
D23*
X86030509Y-109469491D03*
X102030509Y-105219491D03*
X83280509Y-107219491D03*
X83280509Y-116219491D03*
X90780509Y-123219491D03*
X92530509Y-123219491D03*
X96530509Y-122719491D03*
X97280509Y-120719491D03*
X83280509Y-83969491D03*
X83280509Y-85469491D03*
X102930509Y-106369491D03*
X99430509Y-110969491D03*
X108530509Y-83719491D03*
X107030509Y-85219491D03*
X86780509Y-83219491D03*
X94280509Y-84969491D03*
X96530509Y-88469491D03*
X104030509Y-86469491D03*
X111280509Y-99469491D03*
X86280509Y-108219491D03*
X101280509Y-104469491D03*
X92280509Y-122219491D03*
X89530509Y-122219491D03*
X95030509Y-114969491D03*
X110030509Y-90219491D03*
X98030509Y-105469491D03*
X97530509Y-104719491D03*
X98030509Y-88369491D03*
X104130509Y-88069491D03*
X104730509Y-90969491D03*
X101780509Y-88719491D03*
X101780509Y-85219491D03*
X97780509Y-85219491D03*
X90530509Y-106219491D03*
X102530509Y-84219491D03*
X88030509Y-92469491D03*
X86030509Y-94719491D03*
X97830509Y-103269491D03*
X98330509Y-92369491D03*
X110630509Y-89569491D03*
X112280509Y-90219491D03*
X108280509Y-97219491D03*
X100280509Y-99219491D03*
X84530509Y-84719491D03*
X91780509Y-86969491D03*
X95280509Y-89219491D03*
X100530509Y-89219491D03*
X101430509Y-91469491D03*
X87030509Y-89219491D03*
X94030509Y-107719491D03*
X102280509Y-107969491D03*
X108030509Y-93969491D03*
X109530509Y-111969491D03*
D24*
X77330509Y-109419491D02*
X77280509Y-109469491D01*
X91280509Y-109469491D02*
X86030509Y-109469491D01*
X93780509Y-106969491D02*
X91280509Y-109469491D01*
X100280509Y-106969491D02*
X93780509Y-106969491D01*
X102030509Y-105219491D02*
X100280509Y-106969491D01*
X83280509Y-116219491D02*
X83280509Y-107219491D01*
X92530509Y-123219491D02*
X90780509Y-123219491D01*
X96530509Y-121469491D02*
X96530509Y-122719491D01*
X97280509Y-120719491D02*
X96530509Y-121469491D01*
X87399800Y-87449320D02*
X87399800Y-87850200D01*
X87399800Y-87850200D02*
X86030509Y-89219491D01*
X83280509Y-83969491D02*
X82080509Y-82769491D01*
X82030509Y-86719491D02*
X83280509Y-85469491D01*
X82030509Y-88219491D02*
X82030509Y-86719491D01*
X83030509Y-89219491D02*
X82030509Y-88219491D01*
X86030509Y-89219491D02*
X83030509Y-89219491D01*
X82080509Y-82769491D02*
X82030509Y-82769491D01*
X103730509Y-107169491D02*
X102930509Y-106369491D01*
X103730509Y-108069491D02*
X103730509Y-107169491D01*
X102930509Y-108869491D02*
X103730509Y-108069491D01*
X101530509Y-108869491D02*
X102930509Y-108869491D01*
X99430509Y-110969491D02*
X101530509Y-108869491D01*
X106602430Y-87002320D02*
X106602430Y-85647570D01*
X108530509Y-83719491D02*
X107000000Y-82188982D01*
X106602430Y-85647570D02*
X107030509Y-85219491D01*
X107000000Y-82188982D02*
X107000000Y-82000000D01*
X106602430Y-87002320D02*
X104563338Y-87002320D01*
X85280509Y-84969491D02*
X87399800Y-87088782D01*
X85280509Y-84719491D02*
X85280509Y-84969491D01*
X86780509Y-83219491D02*
X85280509Y-84719491D01*
X95030509Y-85719491D02*
X94280509Y-84969491D01*
X95030509Y-88219491D02*
X95030509Y-85719491D01*
X95280509Y-88469491D02*
X95030509Y-88219491D01*
X96530509Y-88469491D02*
X95280509Y-88469491D01*
X104563338Y-87002320D02*
X104030509Y-86469491D01*
X87399800Y-87088782D02*
X87399800Y-87449320D01*
X106602430Y-87002320D02*
X106602430Y-88041412D01*
X106602430Y-88041412D02*
X113030509Y-94469491D01*
X113030509Y-94469491D02*
X113030509Y-97719491D01*
X113030509Y-97719491D02*
X111280509Y-99469491D01*
X90280509Y-108219491D02*
X86280509Y-108219491D01*
X92030509Y-106469491D02*
X90280509Y-108219491D01*
X99280509Y-106469491D02*
X92030509Y-106469491D01*
X101280509Y-104469491D02*
X99280509Y-106469491D01*
X66190000Y-97460000D02*
X66190000Y-93353060D01*
X66190000Y-93353060D02*
X64839480Y-92002540D01*
X74999480Y-127502540D02*
X74999480Y-123000520D01*
X75780509Y-97219491D02*
X75780509Y-92783569D01*
X82030509Y-103469491D02*
X75780509Y-97219491D01*
X82030509Y-115969491D02*
X82030509Y-103469491D01*
X74999480Y-123000520D02*
X82030509Y-115969491D01*
X75780509Y-92783569D02*
X74999480Y-92002540D01*
X89530509Y-122219491D02*
X92280509Y-122219491D01*
X74999480Y-130102540D02*
X74999480Y-127502540D01*
X66190000Y-116510000D02*
X66190000Y-126152020D01*
X66190000Y-126152020D02*
X64839480Y-127502540D01*
X66190000Y-135560000D02*
X66190000Y-131453060D01*
X66190000Y-131453060D02*
X64839480Y-130102540D01*
X85240000Y-97460000D02*
X85240000Y-93353060D01*
X85240000Y-93353060D02*
X83889480Y-92002540D01*
X95030509Y-114969491D02*
X95530509Y-115469491D01*
X95530509Y-115469491D02*
X95530509Y-126021511D01*
X95530509Y-126021511D02*
X94049480Y-127502540D01*
X94049480Y-127502540D02*
X92563558Y-127502540D01*
X90497460Y-92002540D02*
X94049480Y-92002540D01*
X87530509Y-94969491D02*
X90497460Y-92002540D01*
X87530509Y-97469491D02*
X87530509Y-94969491D01*
X85280509Y-99719491D02*
X87530509Y-97469491D01*
X85280509Y-113469491D02*
X85280509Y-99719491D01*
X86780509Y-114969491D02*
X85280509Y-113469491D01*
X86780509Y-117219491D02*
X86780509Y-114969491D01*
X86280509Y-117719491D02*
X86780509Y-117219491D01*
X86280509Y-121219491D02*
X86280509Y-117719491D01*
X92563558Y-127502540D02*
X86280509Y-121219491D01*
X94049480Y-130102540D02*
X94049480Y-127502540D01*
X85240000Y-116510000D02*
X85240000Y-126152020D01*
X85240000Y-126152020D02*
X83889480Y-127502540D01*
X85240000Y-135560000D02*
X85240000Y-131453060D01*
X85240000Y-131453060D02*
X83889480Y-130102540D01*
X104290000Y-97460000D02*
X104290000Y-93353060D01*
X104290000Y-93353060D02*
X102939480Y-92002540D01*
X113099480Y-127502540D02*
X113997460Y-127502540D01*
X116530509Y-95433569D02*
X113099480Y-92002540D01*
X116530509Y-124969491D02*
X116530509Y-95433569D01*
X113997460Y-127502540D02*
X116530509Y-124969491D01*
X113099480Y-130102540D02*
X113099480Y-127502540D01*
X104290000Y-116510000D02*
X104290000Y-126152020D01*
X104290000Y-126152020D02*
X102939480Y-127502540D01*
X104290000Y-135560000D02*
X104290000Y-131453060D01*
X104290000Y-131453060D02*
X102939480Y-130102540D01*
X104460000Y-83398982D02*
X104460000Y-82000000D01*
X104780509Y-83719491D02*
X104460000Y-83398982D01*
X107280509Y-83719491D02*
X104780509Y-83719491D01*
X108530509Y-84969491D02*
X107280509Y-83719491D01*
X108530509Y-88719491D02*
X108530509Y-84969491D01*
X110030509Y-90219491D02*
X108530509Y-88719491D01*
X97250000Y-80650000D02*
X97250000Y-81250000D01*
X97250000Y-81250000D02*
X94780509Y-83719491D01*
X94780509Y-83719491D02*
X90280509Y-83719491D01*
X90280509Y-83719491D02*
X89800100Y-84199900D01*
X89800100Y-84199900D02*
X89800100Y-87449320D01*
X89000000Y-87449320D02*
X89000000Y-83000000D01*
X99069491Y-79469491D02*
X100250000Y-80650000D01*
X92530509Y-79469491D02*
X99069491Y-79469491D01*
X89000000Y-83000000D02*
X92530509Y-79469491D01*
X97250000Y-82850000D02*
X97900000Y-82850000D01*
X99530509Y-103969491D02*
X98030509Y-105469491D01*
X99530509Y-86219491D02*
X99530509Y-103969491D01*
X101530509Y-84219491D02*
X99530509Y-86219491D01*
X101530509Y-81969491D02*
X101530509Y-84219491D01*
X101280509Y-81719491D02*
X101530509Y-81969491D01*
X99030509Y-81719491D02*
X101280509Y-81719491D01*
X97900000Y-82850000D02*
X99030509Y-81719491D01*
X100250000Y-82850000D02*
X100250000Y-84000000D01*
X99030509Y-103219491D02*
X97530509Y-104719491D01*
X99030509Y-85219491D02*
X99030509Y-103219491D01*
X100250000Y-84000000D02*
X99030509Y-85219491D01*
X104130509Y-88069491D02*
X104230509Y-88169491D01*
X104230509Y-88169491D02*
X104730509Y-90969491D01*
X97397570Y-87736552D02*
X98030509Y-88369491D01*
X101780509Y-85219491D02*
X101780509Y-88719491D01*
X97397570Y-85602430D02*
X97780509Y-85219491D01*
X97397570Y-86997680D02*
X97397570Y-87736552D01*
X97397570Y-86997680D02*
X97397570Y-85602430D01*
X90530509Y-106219491D02*
X91590000Y-105160000D01*
X91590000Y-105160000D02*
X91590000Y-94920000D01*
X107239491Y-91719491D02*
X110640000Y-94920000D01*
X104330509Y-91719491D02*
X107239491Y-91719491D01*
X102530509Y-89719491D02*
X104330509Y-91719491D01*
X102530509Y-84219491D02*
X102530509Y-89719491D01*
X88030509Y-92719491D02*
X88030509Y-92469491D01*
X86030509Y-94719491D02*
X88030509Y-92719491D01*
X110640000Y-113970000D02*
X110031018Y-113970000D01*
X110031018Y-113970000D02*
X107780509Y-111719491D01*
X107780509Y-111719491D02*
X93840509Y-111719491D01*
X93840509Y-111719491D02*
X91590000Y-113970000D01*
X97830509Y-103269491D02*
X98330509Y-102769491D01*
X98330509Y-102769491D02*
X98330509Y-92369491D01*
X110630509Y-89569491D02*
X109530509Y-88469491D01*
X109530509Y-88469491D02*
X109530509Y-86009491D01*
X109530509Y-86009491D02*
X111000000Y-84540000D01*
X111000000Y-82000000D02*
X111000000Y-82188982D01*
X111000000Y-82188982D02*
X112280509Y-83469491D01*
X112280509Y-83469491D02*
X112280509Y-90219491D01*
X108280509Y-97219491D02*
X106530509Y-97219491D01*
X106530509Y-97219491D02*
X105780509Y-97969491D01*
X105780509Y-97969491D02*
X105780509Y-98469491D01*
X105780509Y-98469491D02*
X105030509Y-99219491D01*
X105030509Y-99219491D02*
X105030509Y-100219491D01*
X105030509Y-100219491D02*
X104030509Y-101219491D01*
X104030509Y-101219491D02*
X102280509Y-101219491D01*
X102280509Y-101219491D02*
X100280509Y-99219491D01*
X90600200Y-87449320D02*
X91300680Y-87449320D01*
X84480509Y-84669491D02*
X82030509Y-84669491D01*
X84530509Y-84719491D02*
X84480509Y-84669491D01*
X91300680Y-87449320D02*
X91780509Y-86969491D01*
X90600200Y-89039182D02*
X90600200Y-87449320D01*
X90780509Y-89219491D02*
X90600200Y-89039182D01*
X95280509Y-89219491D02*
X90780509Y-89219491D01*
X100530509Y-89719491D02*
X100530509Y-89219491D01*
X101430509Y-91469491D02*
X100530509Y-89719491D01*
X90600200Y-88649800D02*
X90600200Y-87449320D01*
X90030509Y-89219491D02*
X90600200Y-88649800D01*
X87030509Y-89219491D02*
X90030509Y-89219491D01*
X94030509Y-107719491D02*
X94280509Y-107969491D01*
X94280509Y-107969491D02*
X102280509Y-107969491D01*
X108030509Y-94469491D02*
X108030509Y-93969491D01*
X110530509Y-96969491D02*
X108030509Y-94469491D01*
X110530509Y-99969491D02*
X110530509Y-96969491D01*
X110780509Y-100219491D02*
X110530509Y-99969491D01*
X110780509Y-110719491D02*
X110780509Y-100219491D01*
X109530509Y-111969491D02*
X110780509Y-110719491D01*
D25*
G36*
X82902990Y-80601480D02*
X82902990Y-81768947D01*
X82765208Y-81631164D01*
X82531819Y-81534491D01*
X82316259Y-81534491D01*
X82157509Y-81693241D01*
X82157509Y-82642491D01*
X82177509Y-82642491D01*
X82177509Y-82896491D01*
X82157509Y-82896491D01*
X82157509Y-82916491D01*
X81903509Y-82916491D01*
X81903509Y-82896491D01*
X81179259Y-82896491D01*
X81020509Y-83055241D01*
X81020509Y-83495800D01*
X81117182Y-83729189D01*
X81118552Y-83730559D01*
X81059078Y-83817601D01*
X81008069Y-84069491D01*
X81008069Y-85269491D01*
X81052347Y-85504808D01*
X81191419Y-85720932D01*
X81403619Y-85865922D01*
X81655509Y-85916931D01*
X82405509Y-85916931D01*
X82640826Y-85872653D01*
X82856950Y-85733581D01*
X83001940Y-85521381D01*
X83020548Y-85429491D01*
X83918133Y-85429491D01*
X83941741Y-85453140D01*
X83550430Y-85453140D01*
X83315113Y-85497418D01*
X83098989Y-85636490D01*
X82953999Y-85848690D01*
X82902990Y-86100580D01*
X82902990Y-88599940D01*
X82947268Y-88835257D01*
X83086340Y-89051381D01*
X83298540Y-89196371D01*
X83550430Y-89247380D01*
X85549410Y-89247380D01*
X85784727Y-89203102D01*
X86000851Y-89064030D01*
X86145841Y-88851830D01*
X86196850Y-88599940D01*
X86196850Y-86100580D01*
X86152572Y-85865263D01*
X86013500Y-85649139D01*
X85801300Y-85504149D01*
X85549410Y-85453140D01*
X85119024Y-85453140D01*
X85322701Y-85249818D01*
X85465347Y-84906290D01*
X85465671Y-84534324D01*
X85323626Y-84190548D01*
X85060836Y-83927299D01*
X84717308Y-83784653D01*
X84345342Y-83784329D01*
X84042426Y-83909491D01*
X83022843Y-83909491D01*
X83008671Y-83834174D01*
X82942180Y-83730845D01*
X82943836Y-83729189D01*
X83040509Y-83495800D01*
X83040509Y-83481058D01*
X83086340Y-83552281D01*
X83298540Y-83697271D01*
X83550430Y-83748280D01*
X85549410Y-83748280D01*
X85784727Y-83704002D01*
X86000851Y-83564930D01*
X86145841Y-83352730D01*
X86196850Y-83100840D01*
X86196850Y-80601480D01*
X86195911Y-80596491D01*
X90328707Y-80596491D01*
X88462599Y-82462599D01*
X88297852Y-82709161D01*
X88240000Y-83000000D01*
X88240000Y-85651260D01*
X87949710Y-85651260D01*
X87809816Y-85677583D01*
X87776300Y-85663700D01*
X87683645Y-85663700D01*
X87538845Y-85808500D01*
X87526802Y-85816249D01*
X87526802Y-85663700D01*
X87521308Y-85663700D01*
X87719286Y-85466067D01*
X87884751Y-85067583D01*
X87885128Y-84636110D01*
X87720358Y-84237337D01*
X87415527Y-83931974D01*
X87017043Y-83766509D01*
X86585570Y-83766132D01*
X86186797Y-83930902D01*
X85881434Y-84235733D01*
X85715969Y-84634217D01*
X85715592Y-85065690D01*
X85880362Y-85464463D01*
X86185193Y-85769826D01*
X86583677Y-85935291D01*
X86614967Y-85935318D01*
X86611283Y-85939002D01*
X86514610Y-86172391D01*
X86514610Y-87163570D01*
X86673360Y-87322320D01*
X87274705Y-87322320D01*
X87274705Y-87302320D01*
X87302270Y-87302320D01*
X87302270Y-87596320D01*
X87274705Y-87596320D01*
X87274705Y-87576320D01*
X86673360Y-87576320D01*
X86514610Y-87735070D01*
X86514610Y-88420984D01*
X86501566Y-88426374D01*
X86238317Y-88689164D01*
X86095671Y-89032692D01*
X86095347Y-89404658D01*
X86125322Y-89477203D01*
X62157509Y-89591881D01*
X62157509Y-82043182D01*
X81020509Y-82043182D01*
X81020509Y-82483741D01*
X81179259Y-82642491D01*
X81903509Y-82642491D01*
X81903509Y-81693241D01*
X81744759Y-81534491D01*
X81529199Y-81534491D01*
X81295810Y-81631164D01*
X81117182Y-81809793D01*
X81020509Y-82043182D01*
X62157509Y-82043182D01*
X62157509Y-80596491D01*
X82904000Y-80596491D01*
X82902990Y-80601480D01*
X82902990Y-80601480D01*
G37*
X82902990Y-80601480D02*
X82902990Y-81768947D01*
X82765208Y-81631164D01*
X82531819Y-81534491D01*
X82316259Y-81534491D01*
X82157509Y-81693241D01*
X82157509Y-82642491D01*
X82177509Y-82642491D01*
X82177509Y-82896491D01*
X82157509Y-82896491D01*
X82157509Y-82916491D01*
X81903509Y-82916491D01*
X81903509Y-82896491D01*
X81179259Y-82896491D01*
X81020509Y-83055241D01*
X81020509Y-83495800D01*
X81117182Y-83729189D01*
X81118552Y-83730559D01*
X81059078Y-83817601D01*
X81008069Y-84069491D01*
X81008069Y-85269491D01*
X81052347Y-85504808D01*
X81191419Y-85720932D01*
X81403619Y-85865922D01*
X81655509Y-85916931D01*
X82405509Y-85916931D01*
X82640826Y-85872653D01*
X82856950Y-85733581D01*
X83001940Y-85521381D01*
X83020548Y-85429491D01*
X83918133Y-85429491D01*
X83941741Y-85453140D01*
X83550430Y-85453140D01*
X83315113Y-85497418D01*
X83098989Y-85636490D01*
X82953999Y-85848690D01*
X82902990Y-86100580D01*
X82902990Y-88599940D01*
X82947268Y-88835257D01*
X83086340Y-89051381D01*
X83298540Y-89196371D01*
X83550430Y-89247380D01*
X85549410Y-89247380D01*
X85784727Y-89203102D01*
X86000851Y-89064030D01*
X86145841Y-88851830D01*
X86196850Y-88599940D01*
X86196850Y-86100580D01*
X86152572Y-85865263D01*
X86013500Y-85649139D01*
X85801300Y-85504149D01*
X85549410Y-85453140D01*
X85119024Y-85453140D01*
X85322701Y-85249818D01*
X85465347Y-84906290D01*
X85465671Y-84534324D01*
X85323626Y-84190548D01*
X85060836Y-83927299D01*
X84717308Y-83784653D01*
X84345342Y-83784329D01*
X84042426Y-83909491D01*
X83022843Y-83909491D01*
X83008671Y-83834174D01*
X82942180Y-83730845D01*
X82943836Y-83729189D01*
X83040509Y-83495800D01*
X83040509Y-83481058D01*
X83086340Y-83552281D01*
X83298540Y-83697271D01*
X83550430Y-83748280D01*
X85549410Y-83748280D01*
X85784727Y-83704002D01*
X86000851Y-83564930D01*
X86145841Y-83352730D01*
X86196850Y-83100840D01*
X86196850Y-80601480D01*
X86195911Y-80596491D01*
X90328707Y-80596491D01*
X88462599Y-82462599D01*
X88297852Y-82709161D01*
X88240000Y-83000000D01*
X88240000Y-85651260D01*
X87949710Y-85651260D01*
X87809816Y-85677583D01*
X87776300Y-85663700D01*
X87683645Y-85663700D01*
X87538845Y-85808500D01*
X87526802Y-85816249D01*
X87526802Y-85663700D01*
X87521308Y-85663700D01*
X87719286Y-85466067D01*
X87884751Y-85067583D01*
X87885128Y-84636110D01*
X87720358Y-84237337D01*
X87415527Y-83931974D01*
X87017043Y-83766509D01*
X86585570Y-83766132D01*
X86186797Y-83930902D01*
X85881434Y-84235733D01*
X85715969Y-84634217D01*
X85715592Y-85065690D01*
X85880362Y-85464463D01*
X86185193Y-85769826D01*
X86583677Y-85935291D01*
X86614967Y-85935318D01*
X86611283Y-85939002D01*
X86514610Y-86172391D01*
X86514610Y-87163570D01*
X86673360Y-87322320D01*
X87274705Y-87322320D01*
X87274705Y-87302320D01*
X87302270Y-87302320D01*
X87302270Y-87596320D01*
X87274705Y-87596320D01*
X87274705Y-87576320D01*
X86673360Y-87576320D01*
X86514610Y-87735070D01*
X86514610Y-88420984D01*
X86501566Y-88426374D01*
X86238317Y-88689164D01*
X86095671Y-89032692D01*
X86095347Y-89404658D01*
X86125322Y-89477203D01*
X62157509Y-89591881D01*
X62157509Y-82043182D01*
X81020509Y-82043182D01*
X81020509Y-82483741D01*
X81179259Y-82642491D01*
X81903509Y-82642491D01*
X81903509Y-81693241D01*
X81744759Y-81534491D01*
X81529199Y-81534491D01*
X81295810Y-81631164D01*
X81117182Y-81809793D01*
X81020509Y-82043182D01*
X62157509Y-82043182D01*
X62157509Y-80596491D01*
X82904000Y-80596491D01*
X82902990Y-80601480D01*
G36*
X99152560Y-83450000D02*
X99196838Y-83685317D01*
X99311575Y-83863623D01*
X98529177Y-84646021D01*
X98310836Y-84427299D01*
X97967308Y-84284653D01*
X97595342Y-84284329D01*
X97251566Y-84426374D01*
X96988317Y-84689164D01*
X96845671Y-85032692D01*
X96845624Y-85086797D01*
X96695422Y-85311591D01*
X96647951Y-85550240D01*
X96307570Y-85550240D01*
X96072253Y-85594518D01*
X95856129Y-85733590D01*
X95711139Y-85945790D01*
X95660130Y-86197680D01*
X95660130Y-87797680D01*
X95704408Y-88032997D01*
X95843480Y-88249121D01*
X96055680Y-88394111D01*
X96307570Y-88445120D01*
X97031336Y-88445120D01*
X97095387Y-88509171D01*
X97095347Y-88554658D01*
X97237392Y-88898434D01*
X97500182Y-89161683D01*
X97843710Y-89304329D01*
X98215676Y-89304653D01*
X98270509Y-89281997D01*
X98270509Y-89419092D01*
X96205929Y-89428970D01*
X96215347Y-89406290D01*
X96215671Y-89034324D01*
X96073626Y-88690548D01*
X95810836Y-88427299D01*
X95467308Y-88284653D01*
X95097010Y-88284330D01*
X95097010Y-86100580D01*
X95052732Y-85865263D01*
X94913660Y-85649139D01*
X94701460Y-85504149D01*
X94449570Y-85453140D01*
X92450590Y-85453140D01*
X92215273Y-85497418D01*
X91999149Y-85636490D01*
X91854159Y-85848690D01*
X91816527Y-86034522D01*
X91595342Y-86034329D01*
X91458708Y-86090785D01*
X91453552Y-86063383D01*
X91371345Y-85935630D01*
X91414430Y-85935668D01*
X91813203Y-85770898D01*
X92118566Y-85466067D01*
X92284031Y-85067583D01*
X92284408Y-84636110D01*
X92219694Y-84479491D01*
X94780509Y-84479491D01*
X95071348Y-84421639D01*
X95317910Y-84256892D01*
X96152560Y-83422242D01*
X96152560Y-83450000D01*
X96196838Y-83685317D01*
X96335910Y-83901441D01*
X96548110Y-84046431D01*
X96800000Y-84097440D01*
X97700000Y-84097440D01*
X97935317Y-84053162D01*
X98151441Y-83914090D01*
X98296431Y-83701890D01*
X98347440Y-83450000D01*
X98347440Y-83447511D01*
X98437401Y-83387401D01*
X99152560Y-82672242D01*
X99152560Y-83450000D01*
X99152560Y-83450000D01*
G37*
X99152560Y-83450000D02*
X99196838Y-83685317D01*
X99311575Y-83863623D01*
X98529177Y-84646021D01*
X98310836Y-84427299D01*
X97967308Y-84284653D01*
X97595342Y-84284329D01*
X97251566Y-84426374D01*
X96988317Y-84689164D01*
X96845671Y-85032692D01*
X96845624Y-85086797D01*
X96695422Y-85311591D01*
X96647951Y-85550240D01*
X96307570Y-85550240D01*
X96072253Y-85594518D01*
X95856129Y-85733590D01*
X95711139Y-85945790D01*
X95660130Y-86197680D01*
X95660130Y-87797680D01*
X95704408Y-88032997D01*
X95843480Y-88249121D01*
X96055680Y-88394111D01*
X96307570Y-88445120D01*
X97031336Y-88445120D01*
X97095387Y-88509171D01*
X97095347Y-88554658D01*
X97237392Y-88898434D01*
X97500182Y-89161683D01*
X97843710Y-89304329D01*
X98215676Y-89304653D01*
X98270509Y-89281997D01*
X98270509Y-89419092D01*
X96205929Y-89428970D01*
X96215347Y-89406290D01*
X96215671Y-89034324D01*
X96073626Y-88690548D01*
X95810836Y-88427299D01*
X95467308Y-88284653D01*
X95097010Y-88284330D01*
X95097010Y-86100580D01*
X95052732Y-85865263D01*
X94913660Y-85649139D01*
X94701460Y-85504149D01*
X94449570Y-85453140D01*
X92450590Y-85453140D01*
X92215273Y-85497418D01*
X91999149Y-85636490D01*
X91854159Y-85848690D01*
X91816527Y-86034522D01*
X91595342Y-86034329D01*
X91458708Y-86090785D01*
X91453552Y-86063383D01*
X91371345Y-85935630D01*
X91414430Y-85935668D01*
X91813203Y-85770898D01*
X92118566Y-85466067D01*
X92284031Y-85067583D01*
X92284408Y-84636110D01*
X92219694Y-84479491D01*
X94780509Y-84479491D01*
X95071348Y-84421639D01*
X95317910Y-84256892D01*
X96152560Y-83422242D01*
X96152560Y-83450000D01*
X96196838Y-83685317D01*
X96335910Y-83901441D01*
X96548110Y-84046431D01*
X96800000Y-84097440D01*
X97700000Y-84097440D01*
X97935317Y-84053162D01*
X98151441Y-83914090D01*
X98296431Y-83701890D01*
X98347440Y-83450000D01*
X98347440Y-83447511D01*
X98437401Y-83387401D01*
X99152560Y-82672242D01*
X99152560Y-83450000D01*
G36*
X103535057Y-80613106D02*
X103074722Y-81072637D01*
X102825284Y-81673352D01*
X102824716Y-82323795D01*
X103073106Y-82924943D01*
X103532637Y-83385278D01*
X103712097Y-83459796D01*
X103757852Y-83689821D01*
X103922599Y-83936383D01*
X104243108Y-84256892D01*
X104489669Y-84421639D01*
X104780509Y-84479491D01*
X106965707Y-84479491D01*
X107770509Y-85284293D01*
X107770509Y-85567320D01*
X106888180Y-85567320D01*
X106729430Y-85726070D01*
X106729430Y-86875320D01*
X106749430Y-86875320D01*
X106749430Y-87129320D01*
X106729430Y-87129320D01*
X106729430Y-88278570D01*
X106888180Y-88437320D01*
X107770509Y-88437320D01*
X107770509Y-88719491D01*
X107828361Y-89010330D01*
X107993108Y-89256892D01*
X108108237Y-89372021D01*
X105219737Y-89385842D01*
X105032260Y-88335972D01*
X105065347Y-88256290D01*
X105065350Y-88253265D01*
X105152732Y-88340647D01*
X105386121Y-88437320D01*
X106316680Y-88437320D01*
X106475430Y-88278570D01*
X106475430Y-87129320D01*
X105036180Y-87129320D01*
X104877430Y-87288070D01*
X104877430Y-87494271D01*
X104660836Y-87277299D01*
X104317308Y-87134653D01*
X103945342Y-87134329D01*
X103601566Y-87276374D01*
X103338317Y-87539164D01*
X103290509Y-87654298D01*
X103290509Y-86076010D01*
X104877430Y-86076010D01*
X104877430Y-86716570D01*
X105036180Y-86875320D01*
X106475430Y-86875320D01*
X106475430Y-85726070D01*
X106316680Y-85567320D01*
X105386121Y-85567320D01*
X105152732Y-85663993D01*
X104974103Y-85842621D01*
X104877430Y-86076010D01*
X103290509Y-86076010D01*
X103290509Y-84781954D01*
X103322701Y-84749818D01*
X103465347Y-84406290D01*
X103465671Y-84034324D01*
X103323626Y-83690548D01*
X103060836Y-83427299D01*
X102717308Y-83284653D01*
X102345342Y-83284329D01*
X102290509Y-83306985D01*
X102290509Y-81969491D01*
X102266031Y-81846431D01*
X102232657Y-81678651D01*
X102067910Y-81432090D01*
X101817910Y-81182090D01*
X101571348Y-81017343D01*
X101347440Y-80972805D01*
X101347440Y-80596491D01*
X103575268Y-80596491D01*
X103535057Y-80613106D01*
X103535057Y-80613106D01*
G37*
X103535057Y-80613106D02*
X103074722Y-81072637D01*
X102825284Y-81673352D01*
X102824716Y-82323795D01*
X103073106Y-82924943D01*
X103532637Y-83385278D01*
X103712097Y-83459796D01*
X103757852Y-83689821D01*
X103922599Y-83936383D01*
X104243108Y-84256892D01*
X104489669Y-84421639D01*
X104780509Y-84479491D01*
X106965707Y-84479491D01*
X107770509Y-85284293D01*
X107770509Y-85567320D01*
X106888180Y-85567320D01*
X106729430Y-85726070D01*
X106729430Y-86875320D01*
X106749430Y-86875320D01*
X106749430Y-87129320D01*
X106729430Y-87129320D01*
X106729430Y-88278570D01*
X106888180Y-88437320D01*
X107770509Y-88437320D01*
X107770509Y-88719491D01*
X107828361Y-89010330D01*
X107993108Y-89256892D01*
X108108237Y-89372021D01*
X105219737Y-89385842D01*
X105032260Y-88335972D01*
X105065347Y-88256290D01*
X105065350Y-88253265D01*
X105152732Y-88340647D01*
X105386121Y-88437320D01*
X106316680Y-88437320D01*
X106475430Y-88278570D01*
X106475430Y-87129320D01*
X105036180Y-87129320D01*
X104877430Y-87288070D01*
X104877430Y-87494271D01*
X104660836Y-87277299D01*
X104317308Y-87134653D01*
X103945342Y-87134329D01*
X103601566Y-87276374D01*
X103338317Y-87539164D01*
X103290509Y-87654298D01*
X103290509Y-86076010D01*
X104877430Y-86076010D01*
X104877430Y-86716570D01*
X105036180Y-86875320D01*
X106475430Y-86875320D01*
X106475430Y-85726070D01*
X106316680Y-85567320D01*
X105386121Y-85567320D01*
X105152732Y-85663993D01*
X104974103Y-85842621D01*
X104877430Y-86076010D01*
X103290509Y-86076010D01*
X103290509Y-84781954D01*
X103322701Y-84749818D01*
X103465347Y-84406290D01*
X103465671Y-84034324D01*
X103323626Y-83690548D01*
X103060836Y-83427299D01*
X102717308Y-83284653D01*
X102345342Y-83284329D01*
X102290509Y-83306985D01*
X102290509Y-81969491D01*
X102266031Y-81846431D01*
X102232657Y-81678651D01*
X102067910Y-81432090D01*
X101817910Y-81182090D01*
X101571348Y-81017343D01*
X101347440Y-80972805D01*
X101347440Y-80596491D01*
X103575268Y-80596491D01*
X103535057Y-80613106D01*
G36*
X116867850Y-89342491D02*
X114280509Y-89342491D01*
X114279901Y-89342492D01*
X113040509Y-89348422D01*
X113040509Y-88469136D01*
X113180973Y-88534968D01*
X113413000Y-88414469D01*
X113413000Y-87207000D01*
X113667000Y-87207000D01*
X113667000Y-88414469D01*
X113899027Y-88534968D01*
X114428490Y-88286821D01*
X114822688Y-87854947D01*
X114994958Y-87439026D01*
X114873817Y-87207000D01*
X113667000Y-87207000D01*
X113413000Y-87207000D01*
X113393000Y-87207000D01*
X113393000Y-86953000D01*
X113413000Y-86953000D01*
X113413000Y-86933000D01*
X113667000Y-86933000D01*
X113667000Y-86953000D01*
X114873817Y-86953000D01*
X114994958Y-86720974D01*
X114822688Y-86305053D01*
X114428490Y-85873179D01*
X114305772Y-85815664D01*
X114629029Y-85599670D01*
X114953885Y-85113489D01*
X115067959Y-84540000D01*
X114953885Y-83966511D01*
X114629029Y-83480330D01*
X114314248Y-83270000D01*
X114629029Y-83059670D01*
X114953885Y-82573489D01*
X115052126Y-82079596D01*
X116867850Y-89342491D01*
X116867850Y-89342491D01*
G37*
X116867850Y-89342491D02*
X114280509Y-89342491D01*
X114279901Y-89342492D01*
X113040509Y-89348422D01*
X113040509Y-88469136D01*
X113180973Y-88534968D01*
X113413000Y-88414469D01*
X113413000Y-87207000D01*
X113667000Y-87207000D01*
X113667000Y-88414469D01*
X113899027Y-88534968D01*
X114428490Y-88286821D01*
X114822688Y-87854947D01*
X114994958Y-87439026D01*
X114873817Y-87207000D01*
X113667000Y-87207000D01*
X113413000Y-87207000D01*
X113393000Y-87207000D01*
X113393000Y-86953000D01*
X113413000Y-86953000D01*
X113413000Y-86933000D01*
X113667000Y-86933000D01*
X113667000Y-86953000D01*
X114873817Y-86953000D01*
X114994958Y-86720974D01*
X114822688Y-86305053D01*
X114428490Y-85873179D01*
X114305772Y-85815664D01*
X114629029Y-85599670D01*
X114953885Y-85113489D01*
X115067959Y-84540000D01*
X114953885Y-83966511D01*
X114629029Y-83480330D01*
X114314248Y-83270000D01*
X114629029Y-83059670D01*
X114953885Y-82573489D01*
X115052126Y-82079596D01*
X116867850Y-89342491D01*
G36*
X109684959Y-80672310D02*
X109539969Y-80884510D01*
X109488960Y-81136400D01*
X109488960Y-82863600D01*
X109533238Y-83098917D01*
X109672310Y-83315041D01*
X109884510Y-83460031D01*
X109928131Y-83468864D01*
X109910971Y-83480330D01*
X109586115Y-83966511D01*
X109472041Y-84540000D01*
X109547225Y-84917973D01*
X109290509Y-85174689D01*
X109290509Y-84969491D01*
X109232657Y-84678652D01*
X109067910Y-84432090D01*
X108228494Y-83592674D01*
X108359699Y-83538327D01*
X108538327Y-83359698D01*
X108635000Y-83126309D01*
X108635000Y-82285750D01*
X108476250Y-82127000D01*
X107127000Y-82127000D01*
X107127000Y-82147000D01*
X106873000Y-82147000D01*
X106873000Y-82127000D01*
X106853000Y-82127000D01*
X106853000Y-81873000D01*
X106873000Y-81873000D01*
X106873000Y-81853000D01*
X107127000Y-81853000D01*
X107127000Y-81873000D01*
X108476250Y-81873000D01*
X108635000Y-81714250D01*
X108635000Y-80873691D01*
X108538327Y-80640302D01*
X108494516Y-80596491D01*
X109802785Y-80596491D01*
X109684959Y-80672310D01*
X109684959Y-80672310D01*
G37*
X109684959Y-80672310D02*
X109539969Y-80884510D01*
X109488960Y-81136400D01*
X109488960Y-82863600D01*
X109533238Y-83098917D01*
X109672310Y-83315041D01*
X109884510Y-83460031D01*
X109928131Y-83468864D01*
X109910971Y-83480330D01*
X109586115Y-83966511D01*
X109472041Y-84540000D01*
X109547225Y-84917973D01*
X109290509Y-85174689D01*
X109290509Y-84969491D01*
X109232657Y-84678652D01*
X109067910Y-84432090D01*
X108228494Y-83592674D01*
X108359699Y-83538327D01*
X108538327Y-83359698D01*
X108635000Y-83126309D01*
X108635000Y-82285750D01*
X108476250Y-82127000D01*
X107127000Y-82127000D01*
X107127000Y-82147000D01*
X106873000Y-82147000D01*
X106873000Y-82127000D01*
X106853000Y-82127000D01*
X106853000Y-81873000D01*
X106873000Y-81873000D01*
X106873000Y-81853000D01*
X107127000Y-81853000D01*
X107127000Y-81873000D01*
X108476250Y-81873000D01*
X108635000Y-81714250D01*
X108635000Y-80873691D01*
X108538327Y-80640302D01*
X108494516Y-80596491D01*
X109802785Y-80596491D01*
X109684959Y-80672310D01*
M02*
