M48
INCH,TZ
T1C0.035
T2C0.067
T3C0.157
%
G90
G05
T1
X34173Y-33406
X35905Y-33406
T2
X25559Y-39370
X25559Y-46870
X25559Y-54370
X29559Y-39370
X29559Y-46870
X29559Y-54370
X33059Y-39370
X33059Y-46870
X33059Y-54370
X37059Y-39370
X37059Y-46870
X37059Y-54370
X40559Y-39370
X40559Y-46870
X40559Y-54370
X44559Y-39370
X44559Y-46870
X44559Y-54370
T3
X27559Y-39370
X27559Y-46870
X27559Y-54370
X35059Y-39370
X35059Y-46870
X35059Y-54370
X42559Y-39370
X42559Y-46870
X42559Y-54370
T0
M30
