G04 #@! TF.FileFunction,Copper,L2,Bot,Signal*
%FSLAX46Y46*%
G04 Gerber Fmt 4.6, Leading zero omitted, Abs format (unit mm)*
G04 Created by KiCad (PCBNEW 4.0.2-stable) date 4/25/2016 1:55:35 PM*
%MOMM*%
G01*
G04 APERTURE LIST*
%ADD10C,0.100000*%
%ADD11C,2.286000*%
%ADD12R,1.200000X0.750000*%
%ADD13R,0.750000X1.200000*%
%ADD14C,1.699260*%
%ADD15R,1.699260X1.699260*%
%ADD16R,2.000000X2.000000*%
%ADD17C,2.000000*%
%ADD18R,0.900000X1.200000*%
%ADD19R,1.727200X1.727200*%
%ADD20O,1.727200X1.727200*%
%ADD21R,7.000000X2.000000*%
%ADD22R,1.200000X0.900000*%
%ADD23C,0.600000*%
%ADD24C,0.250000*%
%ADD25C,0.254000*%
G04 APERTURE END LIST*
D10*
D11*
X72540000Y-113970000D03*
X66190000Y-116510000D03*
D12*
X64580509Y-104969491D03*
X66480509Y-104969491D03*
X77080509Y-104969491D03*
X78980509Y-104969491D03*
X87050000Y-104000000D03*
X88950000Y-104000000D03*
D13*
X112000000Y-110950000D03*
X112000000Y-109050000D03*
D12*
X108050000Y-104000000D03*
X109950000Y-104000000D03*
X87050000Y-112000000D03*
X88950000Y-112000000D03*
X99230509Y-117969491D03*
X97330509Y-117969491D03*
D14*
X64839480Y-92002540D03*
D15*
X74999480Y-92002540D03*
D14*
X64839480Y-127502540D03*
D15*
X74999480Y-127502540D03*
D14*
X64839480Y-130102540D03*
D15*
X74999480Y-130102540D03*
D14*
X83889480Y-92002540D03*
D15*
X94049480Y-92002540D03*
D14*
X83889480Y-127502540D03*
D15*
X94049480Y-127502540D03*
D14*
X83889480Y-130102540D03*
D15*
X94049480Y-130102540D03*
D14*
X102939480Y-92002540D03*
D15*
X113099480Y-92002540D03*
D14*
X102939480Y-127502540D03*
D15*
X113099480Y-127502540D03*
D14*
X102939480Y-130102540D03*
D15*
X113099480Y-130102540D03*
D16*
X107000000Y-82000000D03*
D17*
X104460000Y-82000000D03*
D18*
X101500000Y-97350000D03*
X101500000Y-95150000D03*
D11*
X72540000Y-94920000D03*
X66190000Y-97460000D03*
X72540000Y-133020000D03*
X66190000Y-135560000D03*
X91590000Y-94920000D03*
X85240000Y-97460000D03*
X91590000Y-113970000D03*
X85240000Y-116510000D03*
X91590000Y-133020000D03*
X85240000Y-135560000D03*
X110640000Y-94920000D03*
X104290000Y-97460000D03*
X110640000Y-113970000D03*
X104290000Y-116510000D03*
X110640000Y-133020000D03*
X104290000Y-135560000D03*
D10*
G36*
X91416280Y-106462042D02*
X91805188Y-106073134D01*
X92865848Y-107133794D01*
X92476940Y-107522702D01*
X91416280Y-106462042D01*
X91416280Y-106462042D01*
G37*
G36*
X91981966Y-105896357D02*
X92370874Y-105507449D01*
X93431534Y-106568109D01*
X93042626Y-106957017D01*
X91981966Y-105896357D01*
X91981966Y-105896357D01*
G37*
G36*
X92547651Y-105330672D02*
X92936559Y-104941764D01*
X93997219Y-106002424D01*
X93608311Y-106391332D01*
X92547651Y-105330672D01*
X92547651Y-105330672D01*
G37*
G36*
X93113336Y-104764986D02*
X93502244Y-104376078D01*
X94562904Y-105436738D01*
X94173996Y-105825646D01*
X93113336Y-104764986D01*
X93113336Y-104764986D01*
G37*
G36*
X93679022Y-104199301D02*
X94067930Y-103810393D01*
X95128590Y-104871053D01*
X94739682Y-105259961D01*
X93679022Y-104199301D01*
X93679022Y-104199301D01*
G37*
G36*
X94244707Y-103633615D02*
X94633615Y-103244707D01*
X95694275Y-104305367D01*
X95305367Y-104694275D01*
X94244707Y-103633615D01*
X94244707Y-103633615D01*
G37*
G36*
X94810393Y-103067930D02*
X95199301Y-102679022D01*
X96259961Y-103739682D01*
X95871053Y-104128590D01*
X94810393Y-103067930D01*
X94810393Y-103067930D01*
G37*
G36*
X95376078Y-102502244D02*
X95764986Y-102113336D01*
X96825646Y-103173996D01*
X96436738Y-103562904D01*
X95376078Y-102502244D01*
X95376078Y-102502244D01*
G37*
G36*
X95941764Y-101936559D02*
X96330672Y-101547651D01*
X97391332Y-102608311D01*
X97002424Y-102997219D01*
X95941764Y-101936559D01*
X95941764Y-101936559D01*
G37*
G36*
X96507449Y-101370874D02*
X96896357Y-100981966D01*
X97957017Y-102042626D01*
X97568109Y-102431534D01*
X96507449Y-101370874D01*
X96507449Y-101370874D01*
G37*
G36*
X97073134Y-100805188D02*
X97462042Y-100416280D01*
X98522702Y-101476940D01*
X98133794Y-101865848D01*
X97073134Y-100805188D01*
X97073134Y-100805188D01*
G37*
G36*
X100537958Y-100416280D02*
X100926866Y-100805188D01*
X99866206Y-101865848D01*
X99477298Y-101476940D01*
X100537958Y-100416280D01*
X100537958Y-100416280D01*
G37*
G36*
X101103643Y-100981966D02*
X101492551Y-101370874D01*
X100431891Y-102431534D01*
X100042983Y-102042626D01*
X101103643Y-100981966D01*
X101103643Y-100981966D01*
G37*
G36*
X101669328Y-101547651D02*
X102058236Y-101936559D01*
X100997576Y-102997219D01*
X100608668Y-102608311D01*
X101669328Y-101547651D01*
X101669328Y-101547651D01*
G37*
G36*
X102235014Y-102113336D02*
X102623922Y-102502244D01*
X101563262Y-103562904D01*
X101174354Y-103173996D01*
X102235014Y-102113336D01*
X102235014Y-102113336D01*
G37*
G36*
X102800699Y-102679022D02*
X103189607Y-103067930D01*
X102128947Y-104128590D01*
X101740039Y-103739682D01*
X102800699Y-102679022D01*
X102800699Y-102679022D01*
G37*
G36*
X103366385Y-103244707D02*
X103755293Y-103633615D01*
X102694633Y-104694275D01*
X102305725Y-104305367D01*
X103366385Y-103244707D01*
X103366385Y-103244707D01*
G37*
G36*
X103932070Y-103810393D02*
X104320978Y-104199301D01*
X103260318Y-105259961D01*
X102871410Y-104871053D01*
X103932070Y-103810393D01*
X103932070Y-103810393D01*
G37*
G36*
X104497756Y-104376078D02*
X104886664Y-104764986D01*
X103826004Y-105825646D01*
X103437096Y-105436738D01*
X104497756Y-104376078D01*
X104497756Y-104376078D01*
G37*
G36*
X105063441Y-104941764D02*
X105452349Y-105330672D01*
X104391689Y-106391332D01*
X104002781Y-106002424D01*
X105063441Y-104941764D01*
X105063441Y-104941764D01*
G37*
G36*
X105629126Y-105507449D02*
X106018034Y-105896357D01*
X104957374Y-106957017D01*
X104568466Y-106568109D01*
X105629126Y-105507449D01*
X105629126Y-105507449D01*
G37*
G36*
X106194812Y-106073134D02*
X106583720Y-106462042D01*
X105523060Y-107522702D01*
X105134152Y-107133794D01*
X106194812Y-106073134D01*
X106194812Y-106073134D01*
G37*
G36*
X105134152Y-108866206D02*
X105523060Y-108477298D01*
X106583720Y-109537958D01*
X106194812Y-109926866D01*
X105134152Y-108866206D01*
X105134152Y-108866206D01*
G37*
G36*
X104568466Y-109431891D02*
X104957374Y-109042983D01*
X106018034Y-110103643D01*
X105629126Y-110492551D01*
X104568466Y-109431891D01*
X104568466Y-109431891D01*
G37*
G36*
X104002781Y-109997576D02*
X104391689Y-109608668D01*
X105452349Y-110669328D01*
X105063441Y-111058236D01*
X104002781Y-109997576D01*
X104002781Y-109997576D01*
G37*
G36*
X103437096Y-110563262D02*
X103826004Y-110174354D01*
X104886664Y-111235014D01*
X104497756Y-111623922D01*
X103437096Y-110563262D01*
X103437096Y-110563262D01*
G37*
G36*
X102871410Y-111128947D02*
X103260318Y-110740039D01*
X104320978Y-111800699D01*
X103932070Y-112189607D01*
X102871410Y-111128947D01*
X102871410Y-111128947D01*
G37*
G36*
X102305725Y-111694633D02*
X102694633Y-111305725D01*
X103755293Y-112366385D01*
X103366385Y-112755293D01*
X102305725Y-111694633D01*
X102305725Y-111694633D01*
G37*
G36*
X101740039Y-112260318D02*
X102128947Y-111871410D01*
X103189607Y-112932070D01*
X102800699Y-113320978D01*
X101740039Y-112260318D01*
X101740039Y-112260318D01*
G37*
G36*
X101174354Y-112826004D02*
X101563262Y-112437096D01*
X102623922Y-113497756D01*
X102235014Y-113886664D01*
X101174354Y-112826004D01*
X101174354Y-112826004D01*
G37*
G36*
X100608668Y-113391689D02*
X100997576Y-113002781D01*
X102058236Y-114063441D01*
X101669328Y-114452349D01*
X100608668Y-113391689D01*
X100608668Y-113391689D01*
G37*
G36*
X100042983Y-113957374D02*
X100431891Y-113568466D01*
X101492551Y-114629126D01*
X101103643Y-115018034D01*
X100042983Y-113957374D01*
X100042983Y-113957374D01*
G37*
G36*
X99477298Y-114523060D02*
X99866206Y-114134152D01*
X100926866Y-115194812D01*
X100537958Y-115583720D01*
X99477298Y-114523060D01*
X99477298Y-114523060D01*
G37*
G36*
X98133794Y-114134152D02*
X98522702Y-114523060D01*
X97462042Y-115583720D01*
X97073134Y-115194812D01*
X98133794Y-114134152D01*
X98133794Y-114134152D01*
G37*
G36*
X97568109Y-113568466D02*
X97957017Y-113957374D01*
X96896357Y-115018034D01*
X96507449Y-114629126D01*
X97568109Y-113568466D01*
X97568109Y-113568466D01*
G37*
G36*
X97002424Y-113002781D02*
X97391332Y-113391689D01*
X96330672Y-114452349D01*
X95941764Y-114063441D01*
X97002424Y-113002781D01*
X97002424Y-113002781D01*
G37*
G36*
X96436738Y-112437096D02*
X96825646Y-112826004D01*
X95764986Y-113886664D01*
X95376078Y-113497756D01*
X96436738Y-112437096D01*
X96436738Y-112437096D01*
G37*
G36*
X95871053Y-111871410D02*
X96259961Y-112260318D01*
X95199301Y-113320978D01*
X94810393Y-112932070D01*
X95871053Y-111871410D01*
X95871053Y-111871410D01*
G37*
G36*
X95305367Y-111305725D02*
X95694275Y-111694633D01*
X94633615Y-112755293D01*
X94244707Y-112366385D01*
X95305367Y-111305725D01*
X95305367Y-111305725D01*
G37*
G36*
X94739682Y-110740039D02*
X95128590Y-111128947D01*
X94067930Y-112189607D01*
X93679022Y-111800699D01*
X94739682Y-110740039D01*
X94739682Y-110740039D01*
G37*
G36*
X94173996Y-110174354D02*
X94562904Y-110563262D01*
X93502244Y-111623922D01*
X93113336Y-111235014D01*
X94173996Y-110174354D01*
X94173996Y-110174354D01*
G37*
G36*
X93608311Y-109608668D02*
X93997219Y-109997576D01*
X92936559Y-111058236D01*
X92547651Y-110669328D01*
X93608311Y-109608668D01*
X93608311Y-109608668D01*
G37*
G36*
X93042626Y-109042983D02*
X93431534Y-109431891D01*
X92370874Y-110492551D01*
X91981966Y-110103643D01*
X93042626Y-109042983D01*
X93042626Y-109042983D01*
G37*
G36*
X92476940Y-108477298D02*
X92865848Y-108866206D01*
X91805188Y-109926866D01*
X91416280Y-109537958D01*
X92476940Y-108477298D01*
X92476940Y-108477298D01*
G37*
D19*
X111000000Y-82000000D03*
D20*
X113540000Y-82000000D03*
X111000000Y-84540000D03*
X113540000Y-84540000D03*
X111000000Y-87080000D03*
X113540000Y-87080000D03*
D21*
X65280509Y-109469491D03*
X77280509Y-109469491D03*
D22*
X105930509Y-95219491D03*
X108130509Y-95219491D03*
D23*
X86030509Y-109469491D03*
X102030509Y-105219491D03*
X83280509Y-107219491D03*
X83280509Y-116219491D03*
X90780509Y-123219491D03*
X92530509Y-123219491D03*
X96530509Y-122719491D03*
X97280509Y-120719491D03*
X83280509Y-83969491D03*
X83280509Y-85469491D03*
X102930509Y-106369491D03*
X99430509Y-110969491D03*
X108530509Y-83719491D03*
X107030509Y-85219491D03*
X86780509Y-83219491D03*
X94280509Y-84969491D03*
X96530509Y-88469491D03*
X104030509Y-86469491D03*
X111280509Y-99469491D03*
X86280509Y-108219491D03*
X101280509Y-104469491D03*
X92280509Y-122219491D03*
X89530509Y-122219491D03*
X95030509Y-114969491D03*
X110030509Y-90219491D03*
X98030509Y-105469491D03*
X97530509Y-104719491D03*
X98030509Y-88369491D03*
X104130509Y-88069491D03*
X104730509Y-90969491D03*
X101780509Y-88719491D03*
X101780509Y-85219491D03*
X97780509Y-85219491D03*
X90530509Y-106219491D03*
X102530509Y-84219491D03*
X88030509Y-92469491D03*
X86030509Y-94719491D03*
X97830509Y-103269491D03*
X98330509Y-92369491D03*
X110630509Y-89569491D03*
X112280509Y-90219491D03*
X108280509Y-97219491D03*
X100280509Y-99219491D03*
X84530509Y-84719491D03*
X91780509Y-86969491D03*
X95280509Y-89219491D03*
X100530509Y-89219491D03*
X101430509Y-91469491D03*
X87030509Y-89219491D03*
X94030509Y-107719491D03*
X102280509Y-107969491D03*
X108030509Y-93969491D03*
X109530509Y-111969491D03*
D24*
X103030509Y-103969491D02*
X103030509Y-104219491D01*
X103030509Y-104219491D02*
X102030509Y-105219491D01*
X65280509Y-110969491D02*
X65280509Y-109469491D01*
X64030509Y-112219491D02*
X65280509Y-110969491D01*
X83280509Y-112219491D02*
X64030509Y-112219491D01*
X86030509Y-109469491D02*
X83280509Y-112219491D01*
X64580509Y-104969491D02*
X64580509Y-108769491D01*
X64580509Y-108769491D02*
X65280509Y-109469491D01*
X66480509Y-104969491D02*
X66480509Y-104519491D01*
X77980509Y-103969491D02*
X78980509Y-104969491D01*
X67030509Y-103969491D02*
X77980509Y-103969491D01*
X66480509Y-104519491D02*
X67030509Y-103969491D01*
X97330509Y-117969491D02*
X97330509Y-120669491D01*
X81030509Y-104969491D02*
X78980509Y-104969491D01*
X83280509Y-107219491D02*
X81030509Y-104969491D01*
X82280509Y-117219491D02*
X83280509Y-116219491D01*
X82280509Y-119969491D02*
X82280509Y-117219491D01*
X83780509Y-121469491D02*
X82280509Y-119969491D01*
X90530509Y-121469491D02*
X83780509Y-121469491D01*
X90780509Y-121719491D02*
X90530509Y-121469491D01*
X90780509Y-123219491D02*
X90780509Y-121719491D01*
X96030509Y-123219491D02*
X92530509Y-123219491D01*
X96530509Y-122719491D02*
X96030509Y-123219491D01*
X97330509Y-120669491D02*
X97280509Y-120719491D01*
X83280509Y-85469491D02*
X83280509Y-83969491D01*
X113540000Y-87080000D02*
X113540000Y-86278982D01*
X113540000Y-86278982D02*
X113030509Y-85769491D01*
X113030509Y-85769491D02*
X107580509Y-85769491D01*
X107580509Y-85769491D02*
X107030509Y-85219491D01*
X102930509Y-106369491D02*
X102030509Y-106369491D01*
X100430509Y-104306749D02*
X101899138Y-102838120D01*
X100430509Y-104769491D02*
X100430509Y-104306749D01*
X102030509Y-106369491D02*
X100430509Y-104769491D01*
X100202082Y-114858936D02*
X100202082Y-114741064D01*
X100202082Y-114741064D02*
X99430509Y-113969491D01*
X102926345Y-106269491D02*
X105858936Y-109202082D01*
X102830509Y-106269491D02*
X102926345Y-106269491D01*
X102930509Y-106369491D02*
X102830509Y-106269491D01*
X99430509Y-113969491D02*
X99430509Y-110969491D01*
X100202082Y-114858936D02*
X99441064Y-114858936D01*
X99441064Y-114858936D02*
X97330509Y-116969491D01*
X92706750Y-109767767D02*
X92932233Y-109767767D01*
X92932233Y-109767767D02*
X93430509Y-109269491D01*
X97830509Y-113694974D02*
X97232233Y-114293250D01*
X97830509Y-113369491D02*
X97830509Y-113694974D01*
X93730509Y-109269491D02*
X97830509Y-113369491D01*
X93430509Y-109269491D02*
X93730509Y-109269491D01*
X107030509Y-85219491D02*
X108530509Y-83719491D01*
X92530509Y-83219491D02*
X86780509Y-83219491D01*
X94280509Y-84969491D02*
X92530509Y-83219491D01*
X96530509Y-86719491D02*
X96530509Y-88469491D01*
X96780509Y-86469491D02*
X96530509Y-86719491D01*
X104030509Y-86469491D02*
X96780509Y-86469491D01*
X112000000Y-109050000D02*
X112000000Y-103438982D01*
X112000000Y-103438982D02*
X111280509Y-102719491D01*
X111280509Y-99469491D02*
X111280509Y-102719491D01*
X111280509Y-102719491D02*
X110000000Y-104000000D01*
X110000000Y-104000000D02*
X109950000Y-104000000D01*
X97330509Y-117969491D02*
X97330509Y-116969491D01*
X97330509Y-116969491D02*
X97330509Y-116519491D01*
X96480511Y-115044972D02*
X97232233Y-114293250D01*
X96480511Y-115669493D02*
X96480511Y-115044972D01*
X97330509Y-116519491D02*
X96480511Y-115669493D01*
X112000000Y-109050000D02*
X106011018Y-109050000D01*
X106011018Y-109050000D02*
X105858936Y-109202082D01*
X88950000Y-112000000D02*
X90474517Y-112000000D01*
X90474517Y-112000000D02*
X92706750Y-109767767D01*
X106011018Y-109050000D02*
X105858936Y-109202082D01*
X109950000Y-104000000D02*
X109950000Y-104050000D01*
X109950000Y-104050000D02*
X108750000Y-105250000D01*
X102737258Y-102000000D02*
X101899138Y-102838120D01*
X104000000Y-102000000D02*
X102737258Y-102000000D01*
X107250000Y-105250000D02*
X104000000Y-102000000D01*
X108750000Y-105250000D02*
X107250000Y-105250000D01*
X102464823Y-103403806D02*
X102346194Y-103403806D01*
X102346194Y-103403806D02*
X101280509Y-104469491D01*
X85030509Y-109469491D02*
X77280509Y-109469491D01*
X86280509Y-108219491D02*
X85030509Y-109469491D01*
X77080509Y-104969491D02*
X77080509Y-109269491D01*
X77080509Y-109269491D02*
X77280509Y-109469491D01*
X94969491Y-103969491D02*
X94000000Y-103000000D01*
X88050000Y-103000000D02*
X87050000Y-104000000D01*
X94000000Y-103000000D02*
X88050000Y-103000000D01*
X88950000Y-104000000D02*
X93868629Y-104000000D01*
X93868629Y-104000000D02*
X94403806Y-104535177D01*
X74999480Y-127502540D02*
X79747460Y-127502540D01*
X94280509Y-113850862D02*
X95535177Y-112596194D01*
X94280509Y-114469491D02*
X94280509Y-113850862D01*
X92280509Y-116469491D02*
X94280509Y-114469491D01*
X92280509Y-122219491D02*
X92280509Y-116469491D01*
X85030509Y-122219491D02*
X89530509Y-122219491D01*
X79747460Y-127502540D02*
X85030509Y-122219491D01*
X96100862Y-113161880D02*
X96088120Y-113161880D01*
X96088120Y-113161880D02*
X95030509Y-114219491D01*
X95030509Y-114219491D02*
X95030509Y-114969491D01*
X96666548Y-113727565D02*
X96666548Y-113833452D01*
X96666548Y-113833452D02*
X96030509Y-114469491D01*
X96030509Y-114469491D02*
X96030509Y-120969491D01*
X96030509Y-120969491D02*
X100780509Y-125719491D01*
X100780509Y-125719491D02*
X111316431Y-125719491D01*
X111316431Y-125719491D02*
X113099480Y-127502540D01*
X105930509Y-95219491D02*
X105930509Y-94319491D01*
X105930509Y-94319491D02*
X110030509Y-90219491D01*
X94325378Y-106719491D02*
X93272435Y-105666548D01*
X96780509Y-106719491D02*
X94325378Y-106719491D01*
X98030509Y-105469491D02*
X96780509Y-106719491D01*
X94706749Y-105969491D02*
X93838120Y-105100862D01*
X96280509Y-105969491D02*
X94706749Y-105969491D01*
X97530509Y-104719491D02*
X96280509Y-105969491D01*
X101500000Y-99188982D02*
X101530509Y-99219491D01*
X101500000Y-97350000D02*
X101500000Y-99188982D01*
X101950002Y-98969491D02*
X101780509Y-98969491D01*
X98030509Y-88369491D02*
X98330509Y-88069491D01*
X98330509Y-88069491D02*
X104130509Y-88069491D01*
X104730509Y-90969491D02*
X104930509Y-91169491D01*
X104930509Y-91169491D02*
X104430509Y-94169491D01*
X104430509Y-94169491D02*
X102630509Y-95969491D01*
X102630509Y-95969491D02*
X102630509Y-98288984D01*
X102630509Y-98288984D02*
X101950002Y-98969491D01*
X101530509Y-100944008D02*
X100767767Y-101706750D01*
X101530509Y-99219491D02*
X101530509Y-100944008D01*
X101780509Y-98969491D02*
X101530509Y-99219491D01*
X108280509Y-88719491D02*
X101780509Y-88719491D01*
X109920000Y-87080000D02*
X108280509Y-88719491D01*
X97780509Y-85219491D02*
X101780509Y-85219491D01*
X111000000Y-87080000D02*
X109920000Y-87080000D01*
X93838120Y-110899138D02*
X93838120Y-110911880D01*
X93838120Y-110911880D02*
X92280509Y-112469491D01*
X92280509Y-112469491D02*
X90530509Y-112469491D01*
X90530509Y-112469491D02*
X89530509Y-113469491D01*
X89530509Y-113469491D02*
X85780509Y-113469491D01*
X85780509Y-113469491D02*
X85780509Y-110719491D01*
X85780509Y-110719491D02*
X90280509Y-106219491D01*
X90280509Y-106219491D02*
X90530509Y-106219491D01*
X91590000Y-94920000D02*
X91590000Y-91410000D01*
X96530509Y-84219491D02*
X102530509Y-84219491D01*
X95530509Y-85219491D02*
X96530509Y-84219491D01*
X95530509Y-87469491D02*
X95530509Y-85219491D01*
X91590000Y-91410000D02*
X95530509Y-87469491D01*
X72540000Y-94920000D02*
X85830000Y-94920000D01*
X88030509Y-92469491D02*
X90481018Y-94920000D01*
X85830000Y-94920000D02*
X86030509Y-94719491D01*
X90481018Y-94920000D02*
X91590000Y-94920000D01*
X72540000Y-113970000D02*
X91590000Y-113970000D01*
X91590000Y-113970000D02*
X91898629Y-113970000D01*
X91898629Y-113970000D02*
X94403806Y-111464823D01*
X91590000Y-133020000D02*
X91590000Y-116160000D01*
X93280509Y-113719491D02*
X94969491Y-112030509D01*
X93280509Y-114469491D02*
X93280509Y-113719491D01*
X91590000Y-116160000D02*
X93280509Y-114469491D01*
X91590000Y-133020000D02*
X110640000Y-133020000D01*
X72540000Y-133020000D02*
X91590000Y-133020000D01*
X96666548Y-102272435D02*
X96833453Y-102272435D01*
X96833453Y-102272435D02*
X97830509Y-103269491D01*
X98330509Y-92369491D02*
X99930509Y-90769491D01*
X99930509Y-90769491D02*
X103530509Y-90769491D01*
X103530509Y-90769491D02*
X104030509Y-90269491D01*
X104030509Y-90269491D02*
X108730509Y-90269491D01*
X108730509Y-90269491D02*
X109430509Y-89569491D01*
X109430509Y-89569491D02*
X110630509Y-89569491D01*
X97232233Y-101706750D02*
X97167768Y-101706750D01*
X97167768Y-101706750D02*
X96530509Y-101069491D01*
X96530509Y-101069491D02*
X96530509Y-90169491D01*
X96530509Y-90169491D02*
X96830509Y-89869491D01*
X96830509Y-89869491D02*
X102930509Y-89869491D01*
X102930509Y-89869491D02*
X103530509Y-89269491D01*
X103530509Y-89269491D02*
X108530509Y-89269491D01*
X108530509Y-89269491D02*
X108930509Y-88869491D01*
X108930509Y-88869491D02*
X114930509Y-88869491D01*
X114930509Y-88869491D02*
X115330509Y-88469491D01*
X115330509Y-88469491D02*
X115330509Y-86330509D01*
X115330509Y-86330509D02*
X113540000Y-84540000D01*
X112280509Y-90219491D02*
X111030509Y-91469491D01*
X111030509Y-91469491D02*
X111030509Y-92719491D01*
X111030509Y-92719491D02*
X112530509Y-94219491D01*
X112530509Y-94219491D02*
X112530509Y-96219491D01*
X112530509Y-96219491D02*
X111530509Y-97219491D01*
X111530509Y-97219491D02*
X108280509Y-97219491D01*
X100280509Y-99219491D02*
X98358936Y-101141064D01*
X98358936Y-101141064D02*
X97797918Y-101141064D01*
X86280509Y-86469491D02*
X84530509Y-84719491D01*
X91280509Y-86469491D02*
X86280509Y-86469491D01*
X91780509Y-86969491D02*
X91280509Y-86469491D01*
X113540000Y-82000000D02*
X114561018Y-82000000D01*
X109130509Y-102969491D02*
X107469491Y-102969491D01*
X110430509Y-101669491D02*
X109130509Y-102969491D01*
X110430509Y-99369491D02*
X110430509Y-101669491D01*
X115930509Y-93869491D02*
X110430509Y-99369491D01*
X115930509Y-83369491D02*
X115930509Y-93869491D01*
X114561018Y-82000000D02*
X115930509Y-83369491D01*
X92141064Y-109202082D02*
X92141064Y-108858936D01*
X92141064Y-108858936D02*
X93655509Y-107344491D01*
X101500000Y-95150000D02*
X101600000Y-91488982D01*
X100280509Y-89219491D02*
X95280509Y-89219491D01*
X100530509Y-89219491D02*
X100280509Y-89219491D01*
X101600000Y-91488982D02*
X101430509Y-91469491D01*
X85280509Y-102469491D02*
X85280509Y-99719491D01*
X87030509Y-97969491D02*
X87030509Y-89219491D01*
X85280509Y-99719491D02*
X87030509Y-97969491D01*
X112000000Y-110950000D02*
X106475483Y-110950000D01*
X106475483Y-110950000D02*
X105293250Y-109767767D01*
X95535177Y-103403806D02*
X95464824Y-103403806D01*
X95464824Y-103403806D02*
X94530509Y-102469491D01*
X94530509Y-102469491D02*
X85280509Y-102469491D01*
X97797918Y-114858936D02*
X97891064Y-114858936D01*
X97891064Y-114858936D02*
X98780509Y-113969491D01*
X94030509Y-108719491D02*
X94030509Y-107719491D01*
X98780509Y-113469491D02*
X94030509Y-108719491D01*
X98780509Y-113969491D02*
X98780509Y-113469491D01*
X105293250Y-109767767D02*
X105293250Y-109732232D01*
X105293250Y-109732232D02*
X103530509Y-107969491D01*
X103530509Y-107969491D02*
X102280509Y-107969491D01*
X92706750Y-106232233D02*
X92706750Y-106395732D01*
X92706750Y-106395732D02*
X93655509Y-107344491D01*
X93655509Y-107344491D02*
X94030509Y-107719491D01*
X99530509Y-104075378D02*
X101333452Y-102272435D01*
X102280509Y-107969491D02*
X99530509Y-105219491D01*
X99530509Y-105219491D02*
X99530509Y-104075378D01*
X85280509Y-102469491D02*
X85280509Y-104719491D01*
X85280509Y-104719491D02*
X85780509Y-105219491D01*
X85780509Y-105219491D02*
X91530509Y-105219491D01*
X91530509Y-105219491D02*
X92543251Y-106232233D01*
X92543251Y-106232233D02*
X92706750Y-106232233D01*
X87050000Y-112000000D02*
X87050000Y-111450000D01*
X90343146Y-111000000D02*
X92141064Y-109202082D01*
X87500000Y-111000000D02*
X90343146Y-111000000D01*
X87050000Y-111450000D02*
X87500000Y-111000000D01*
X97797918Y-114858936D02*
X97591064Y-114858936D01*
X108050000Y-104000000D02*
X108050000Y-103550000D01*
X102355887Y-101250000D02*
X101333452Y-102272435D01*
X105750000Y-101250000D02*
X102355887Y-101250000D01*
X108050000Y-103550000D02*
X107469491Y-102969491D01*
X107469491Y-102969491D02*
X105750000Y-101250000D01*
X104161880Y-110899138D02*
X104210156Y-110899138D01*
X104210156Y-110899138D02*
X105280509Y-111969491D01*
X108380509Y-93619491D02*
X108130509Y-95219491D01*
X108030509Y-93969491D02*
X108380509Y-93619491D01*
X105280509Y-111969491D02*
X109530509Y-111969491D01*
X104161880Y-110899138D02*
X104149138Y-110899138D01*
D25*
G36*
X111021838Y-111785317D02*
X111160910Y-112001441D01*
X111373110Y-112146431D01*
X111625000Y-112197440D01*
X112375000Y-112197440D01*
X112610317Y-112153162D01*
X112653509Y-112125369D01*
X112653509Y-117659795D01*
X112339405Y-117789580D01*
X111921049Y-118207206D01*
X111694358Y-118753139D01*
X111694062Y-119092491D01*
X110728863Y-119092491D01*
X110729355Y-118529374D01*
X110329972Y-117562793D01*
X109591096Y-116822627D01*
X108625215Y-116421558D01*
X107579374Y-116420645D01*
X106612793Y-116820028D01*
X105872627Y-117558904D01*
X105471558Y-118524785D01*
X105471062Y-119092491D01*
X104505864Y-119092491D01*
X104506158Y-118755733D01*
X104312903Y-118288021D01*
X104642114Y-118288308D01*
X105295840Y-118018194D01*
X105796436Y-117518471D01*
X106067691Y-116865218D01*
X106068308Y-116157886D01*
X105798194Y-115504160D01*
X105298471Y-115003564D01*
X104645218Y-114732309D01*
X103937886Y-114731692D01*
X103284160Y-115001806D01*
X102783564Y-115501529D01*
X102512309Y-116154782D01*
X102511692Y-116862114D01*
X102781806Y-117515840D01*
X102829815Y-117563933D01*
X102725733Y-117563842D01*
X102179405Y-117789580D01*
X101761049Y-118207206D01*
X101534358Y-118753139D01*
X101534062Y-119092491D01*
X96790509Y-119092491D01*
X96790509Y-118979491D01*
X97044759Y-118979491D01*
X97203509Y-118820741D01*
X97203509Y-118096491D01*
X97183509Y-118096491D01*
X97183509Y-117842491D01*
X97203509Y-117842491D01*
X97203509Y-117118241D01*
X97457509Y-117118241D01*
X97457509Y-117842491D01*
X97477509Y-117842491D01*
X97477509Y-118096491D01*
X97457509Y-118096491D01*
X97457509Y-118820741D01*
X97616259Y-118979491D01*
X98056818Y-118979491D01*
X98290207Y-118882818D01*
X98291577Y-118881448D01*
X98378619Y-118940922D01*
X98630509Y-118991931D01*
X99830509Y-118991931D01*
X100065826Y-118947653D01*
X100281950Y-118808581D01*
X100426940Y-118596381D01*
X100477949Y-118344491D01*
X100477949Y-117594491D01*
X100433671Y-117359174D01*
X100294599Y-117143050D01*
X100082399Y-116998060D01*
X99830509Y-116947051D01*
X98630509Y-116947051D01*
X98395192Y-116991329D01*
X98291863Y-117057820D01*
X98290207Y-117056164D01*
X98056818Y-116959491D01*
X97616259Y-116959491D01*
X97457509Y-117118241D01*
X97203509Y-117118241D01*
X97044759Y-116959491D01*
X96790509Y-116959491D01*
X96790509Y-115827805D01*
X97004233Y-116041529D01*
X97201936Y-116176614D01*
X97453098Y-116231098D01*
X97705669Y-116183574D01*
X97919851Y-116041529D01*
X98481427Y-115479953D01*
X99760671Y-115479953D01*
X99760671Y-115704459D01*
X100178259Y-116122047D01*
X100411648Y-116218720D01*
X100664267Y-116218721D01*
X100897656Y-116122048D01*
X100979369Y-116040335D01*
X100979369Y-115815828D01*
X100202082Y-115038541D01*
X99760671Y-115479953D01*
X98481427Y-115479953D01*
X98980511Y-114980869D01*
X99003474Y-114947262D01*
X99356559Y-115300347D01*
X99581065Y-115300347D01*
X100022477Y-114858936D01*
X100008335Y-114844794D01*
X100011560Y-114841569D01*
X100645834Y-115475843D01*
X100843537Y-115610928D01*
X101094699Y-115665412D01*
X101249827Y-115636223D01*
X101383481Y-115636223D01*
X101465194Y-115554510D01*
X101473663Y-115534065D01*
X101561452Y-115475843D01*
X101950360Y-115086935D01*
X102024751Y-114978060D01*
X102127137Y-114910158D01*
X102516045Y-114521250D01*
X102590435Y-114412376D01*
X102692823Y-114344473D01*
X103081731Y-113955565D01*
X103156124Y-113846688D01*
X103258508Y-113778787D01*
X103647416Y-113389879D01*
X103721806Y-113281005D01*
X103824194Y-113213102D01*
X104213102Y-112824194D01*
X104287495Y-112715317D01*
X104389879Y-112647416D01*
X104636756Y-112400540D01*
X104743108Y-112506892D01*
X104989670Y-112671639D01*
X105280509Y-112729491D01*
X108968046Y-112729491D01*
X109000182Y-112761683D01*
X109235765Y-112859506D01*
X109133564Y-112961529D01*
X108862309Y-113614782D01*
X108861692Y-114322114D01*
X109131806Y-114975840D01*
X109631529Y-115476436D01*
X110284782Y-115747691D01*
X110992114Y-115748308D01*
X111645840Y-115478194D01*
X112146436Y-114978471D01*
X112417691Y-114325218D01*
X112418308Y-113617886D01*
X112148194Y-112964160D01*
X111648471Y-112463564D01*
X110995218Y-112192309D01*
X110450588Y-112191834D01*
X110465347Y-112156290D01*
X110465671Y-111784324D01*
X110434961Y-111710000D01*
X111007666Y-111710000D01*
X111021838Y-111785317D01*
X111021838Y-111785317D01*
G37*
X111021838Y-111785317D02*
X111160910Y-112001441D01*
X111373110Y-112146431D01*
X111625000Y-112197440D01*
X112375000Y-112197440D01*
X112610317Y-112153162D01*
X112653509Y-112125369D01*
X112653509Y-117659795D01*
X112339405Y-117789580D01*
X111921049Y-118207206D01*
X111694358Y-118753139D01*
X111694062Y-119092491D01*
X110728863Y-119092491D01*
X110729355Y-118529374D01*
X110329972Y-117562793D01*
X109591096Y-116822627D01*
X108625215Y-116421558D01*
X107579374Y-116420645D01*
X106612793Y-116820028D01*
X105872627Y-117558904D01*
X105471558Y-118524785D01*
X105471062Y-119092491D01*
X104505864Y-119092491D01*
X104506158Y-118755733D01*
X104312903Y-118288021D01*
X104642114Y-118288308D01*
X105295840Y-118018194D01*
X105796436Y-117518471D01*
X106067691Y-116865218D01*
X106068308Y-116157886D01*
X105798194Y-115504160D01*
X105298471Y-115003564D01*
X104645218Y-114732309D01*
X103937886Y-114731692D01*
X103284160Y-115001806D01*
X102783564Y-115501529D01*
X102512309Y-116154782D01*
X102511692Y-116862114D01*
X102781806Y-117515840D01*
X102829815Y-117563933D01*
X102725733Y-117563842D01*
X102179405Y-117789580D01*
X101761049Y-118207206D01*
X101534358Y-118753139D01*
X101534062Y-119092491D01*
X96790509Y-119092491D01*
X96790509Y-118979491D01*
X97044759Y-118979491D01*
X97203509Y-118820741D01*
X97203509Y-118096491D01*
X97183509Y-118096491D01*
X97183509Y-117842491D01*
X97203509Y-117842491D01*
X97203509Y-117118241D01*
X97457509Y-117118241D01*
X97457509Y-117842491D01*
X97477509Y-117842491D01*
X97477509Y-118096491D01*
X97457509Y-118096491D01*
X97457509Y-118820741D01*
X97616259Y-118979491D01*
X98056818Y-118979491D01*
X98290207Y-118882818D01*
X98291577Y-118881448D01*
X98378619Y-118940922D01*
X98630509Y-118991931D01*
X99830509Y-118991931D01*
X100065826Y-118947653D01*
X100281950Y-118808581D01*
X100426940Y-118596381D01*
X100477949Y-118344491D01*
X100477949Y-117594491D01*
X100433671Y-117359174D01*
X100294599Y-117143050D01*
X100082399Y-116998060D01*
X99830509Y-116947051D01*
X98630509Y-116947051D01*
X98395192Y-116991329D01*
X98291863Y-117057820D01*
X98290207Y-117056164D01*
X98056818Y-116959491D01*
X97616259Y-116959491D01*
X97457509Y-117118241D01*
X97203509Y-117118241D01*
X97044759Y-116959491D01*
X96790509Y-116959491D01*
X96790509Y-115827805D01*
X97004233Y-116041529D01*
X97201936Y-116176614D01*
X97453098Y-116231098D01*
X97705669Y-116183574D01*
X97919851Y-116041529D01*
X98481427Y-115479953D01*
X99760671Y-115479953D01*
X99760671Y-115704459D01*
X100178259Y-116122047D01*
X100411648Y-116218720D01*
X100664267Y-116218721D01*
X100897656Y-116122048D01*
X100979369Y-116040335D01*
X100979369Y-115815828D01*
X100202082Y-115038541D01*
X99760671Y-115479953D01*
X98481427Y-115479953D01*
X98980511Y-114980869D01*
X99003474Y-114947262D01*
X99356559Y-115300347D01*
X99581065Y-115300347D01*
X100022477Y-114858936D01*
X100008335Y-114844794D01*
X100011560Y-114841569D01*
X100645834Y-115475843D01*
X100843537Y-115610928D01*
X101094699Y-115665412D01*
X101249827Y-115636223D01*
X101383481Y-115636223D01*
X101465194Y-115554510D01*
X101473663Y-115534065D01*
X101561452Y-115475843D01*
X101950360Y-115086935D01*
X102024751Y-114978060D01*
X102127137Y-114910158D01*
X102516045Y-114521250D01*
X102590435Y-114412376D01*
X102692823Y-114344473D01*
X103081731Y-113955565D01*
X103156124Y-113846688D01*
X103258508Y-113778787D01*
X103647416Y-113389879D01*
X103721806Y-113281005D01*
X103824194Y-113213102D01*
X104213102Y-112824194D01*
X104287495Y-112715317D01*
X104389879Y-112647416D01*
X104636756Y-112400540D01*
X104743108Y-112506892D01*
X104989670Y-112671639D01*
X105280509Y-112729491D01*
X108968046Y-112729491D01*
X109000182Y-112761683D01*
X109235765Y-112859506D01*
X109133564Y-112961529D01*
X108862309Y-113614782D01*
X108861692Y-114322114D01*
X109131806Y-114975840D01*
X109631529Y-115476436D01*
X110284782Y-115747691D01*
X110992114Y-115748308D01*
X111645840Y-115478194D01*
X112146436Y-114978471D01*
X112417691Y-114325218D01*
X112418308Y-113617886D01*
X112148194Y-112964160D01*
X111648471Y-112463564D01*
X110995218Y-112192309D01*
X110450588Y-112191834D01*
X110465347Y-112156290D01*
X110465671Y-111784324D01*
X110434961Y-111710000D01*
X111007666Y-111710000D01*
X111021838Y-111785317D01*
G36*
X98993108Y-105756892D02*
X101345387Y-108109171D01*
X101345347Y-108154658D01*
X101487392Y-108498434D01*
X101750182Y-108761683D01*
X102093710Y-108904329D01*
X102465676Y-108904653D01*
X102809452Y-108762608D01*
X102842627Y-108729491D01*
X103215707Y-108729491D01*
X103785478Y-109299262D01*
X103544972Y-109539767D01*
X103470579Y-109648644D01*
X103368195Y-109716545D01*
X102979287Y-110105453D01*
X102904897Y-110214327D01*
X102802509Y-110282230D01*
X102413601Y-110671138D01*
X102339208Y-110780015D01*
X102236824Y-110847916D01*
X101847916Y-111236824D01*
X101773526Y-111345698D01*
X101671138Y-111413601D01*
X101282230Y-111802509D01*
X101207837Y-111911386D01*
X101105453Y-111979287D01*
X100716545Y-112368195D01*
X100642155Y-112477069D01*
X100539767Y-112544972D01*
X100150859Y-112933880D01*
X100076468Y-113042755D01*
X99974082Y-113110657D01*
X99585174Y-113499565D01*
X99540509Y-113564934D01*
X99540509Y-113469491D01*
X99482657Y-113178652D01*
X99482657Y-113178651D01*
X99317910Y-112932090D01*
X94790509Y-108404689D01*
X94790509Y-108281954D01*
X94822701Y-108249818D01*
X94965347Y-107906290D01*
X94965671Y-107534324D01*
X94943015Y-107479491D01*
X96780509Y-107479491D01*
X97071348Y-107421639D01*
X97317910Y-107256892D01*
X98170189Y-106404613D01*
X98215676Y-106404653D01*
X98559452Y-106262608D01*
X98822701Y-105999818D01*
X98950224Y-105692711D01*
X98993108Y-105756892D01*
X98993108Y-105756892D01*
G37*
X98993108Y-105756892D02*
X101345387Y-108109171D01*
X101345347Y-108154658D01*
X101487392Y-108498434D01*
X101750182Y-108761683D01*
X102093710Y-108904329D01*
X102465676Y-108904653D01*
X102809452Y-108762608D01*
X102842627Y-108729491D01*
X103215707Y-108729491D01*
X103785478Y-109299262D01*
X103544972Y-109539767D01*
X103470579Y-109648644D01*
X103368195Y-109716545D01*
X102979287Y-110105453D01*
X102904897Y-110214327D01*
X102802509Y-110282230D01*
X102413601Y-110671138D01*
X102339208Y-110780015D01*
X102236824Y-110847916D01*
X101847916Y-111236824D01*
X101773526Y-111345698D01*
X101671138Y-111413601D01*
X101282230Y-111802509D01*
X101207837Y-111911386D01*
X101105453Y-111979287D01*
X100716545Y-112368195D01*
X100642155Y-112477069D01*
X100539767Y-112544972D01*
X100150859Y-112933880D01*
X100076468Y-113042755D01*
X99974082Y-113110657D01*
X99585174Y-113499565D01*
X99540509Y-113564934D01*
X99540509Y-113469491D01*
X99482657Y-113178652D01*
X99482657Y-113178651D01*
X99317910Y-112932090D01*
X94790509Y-108404689D01*
X94790509Y-108281954D01*
X94822701Y-108249818D01*
X94965347Y-107906290D01*
X94965671Y-107534324D01*
X94943015Y-107479491D01*
X96780509Y-107479491D01*
X97071348Y-107421639D01*
X97317910Y-107256892D01*
X98170189Y-106404613D01*
X98215676Y-106404653D01*
X98559452Y-106262608D01*
X98822701Y-105999818D01*
X98950224Y-105692711D01*
X98993108Y-105756892D01*
G36*
X89077000Y-111873000D02*
X89097000Y-111873000D01*
X89097000Y-112127000D01*
X89077000Y-112127000D01*
X89077000Y-112147000D01*
X88823000Y-112147000D01*
X88823000Y-112127000D01*
X88803000Y-112127000D01*
X88803000Y-111873000D01*
X88823000Y-111873000D01*
X88823000Y-111853000D01*
X89077000Y-111853000D01*
X89077000Y-111873000D01*
X89077000Y-111873000D01*
G37*
X89077000Y-111873000D02*
X89097000Y-111873000D01*
X89097000Y-112127000D01*
X89077000Y-112127000D01*
X89077000Y-112147000D01*
X88823000Y-112147000D01*
X88823000Y-112127000D01*
X88803000Y-112127000D01*
X88803000Y-111873000D01*
X88823000Y-111873000D01*
X88823000Y-111853000D01*
X89077000Y-111853000D01*
X89077000Y-111873000D01*
G36*
X112653509Y-98609795D02*
X112339405Y-98739580D01*
X111921049Y-99157206D01*
X111694358Y-99703139D01*
X111693842Y-100294267D01*
X111919580Y-100840595D01*
X112337206Y-101258951D01*
X112653509Y-101390291D01*
X112653509Y-107878043D01*
X112501310Y-107815000D01*
X112285750Y-107815000D01*
X112127000Y-107973750D01*
X112127000Y-108923000D01*
X112147000Y-108923000D01*
X112147000Y-109177000D01*
X112127000Y-109177000D01*
X112127000Y-109197000D01*
X111873000Y-109197000D01*
X111873000Y-109177000D01*
X111148750Y-109177000D01*
X110990000Y-109335750D01*
X110990000Y-109776309D01*
X111086673Y-110009698D01*
X111088043Y-110011068D01*
X111028569Y-110098110D01*
X111009961Y-110190000D01*
X106790285Y-110190000D01*
X106654412Y-110054127D01*
X106617888Y-109860016D01*
X106475843Y-109645834D01*
X106032091Y-109202082D01*
X106038541Y-109202082D01*
X106815828Y-109979369D01*
X107040335Y-109979369D01*
X107122048Y-109897656D01*
X107218721Y-109664267D01*
X107218720Y-109411648D01*
X107122047Y-109178259D01*
X106704459Y-108760671D01*
X106479953Y-108760671D01*
X106038541Y-109202082D01*
X106032091Y-109202082D01*
X105415183Y-108585174D01*
X105217480Y-108450089D01*
X105049461Y-108413641D01*
X104067910Y-107432090D01*
X103821348Y-107267343D01*
X103530509Y-107209491D01*
X102842972Y-107209491D01*
X102810836Y-107177299D01*
X102467308Y-107034653D01*
X102420432Y-107034612D01*
X100290509Y-104904689D01*
X100290509Y-104390180D01*
X100345625Y-104335064D01*
X100345347Y-104654658D01*
X100487392Y-104998434D01*
X100750182Y-105261683D01*
X101093710Y-105404329D01*
X101095347Y-105404330D01*
X101095347Y-105404658D01*
X101237392Y-105748434D01*
X101500182Y-106011683D01*
X101843710Y-106154329D01*
X102215676Y-106154653D01*
X102559452Y-106012608D01*
X102822701Y-105749818D01*
X102828605Y-105735600D01*
X102911386Y-105792163D01*
X102979287Y-105894547D01*
X103368195Y-106283455D01*
X103477069Y-106357845D01*
X103544972Y-106460233D01*
X103933880Y-106849141D01*
X104042755Y-106923532D01*
X104110657Y-107025918D01*
X104499565Y-107414826D01*
X104608442Y-107489219D01*
X104676343Y-107591603D01*
X105065251Y-107980511D01*
X105098858Y-108003474D01*
X105081649Y-108020683D01*
X105081649Y-108245190D01*
X105858936Y-109022477D01*
X106300347Y-108581065D01*
X106300347Y-108356559D01*
X106267479Y-108323691D01*
X110990000Y-108323691D01*
X110990000Y-108764250D01*
X111148750Y-108923000D01*
X111873000Y-108923000D01*
X111873000Y-107973750D01*
X111714250Y-107815000D01*
X111498690Y-107815000D01*
X111265301Y-107911673D01*
X111086673Y-108090302D01*
X110990000Y-108323691D01*
X106267479Y-108323691D01*
X105946856Y-108003068D01*
X105980869Y-107980511D01*
X107041529Y-106919851D01*
X107176614Y-106722148D01*
X107231098Y-106470986D01*
X107183574Y-106218415D01*
X107041529Y-106004233D01*
X106652621Y-105615325D01*
X106543744Y-105540932D01*
X106475843Y-105438548D01*
X106086935Y-105049640D01*
X105978060Y-104975249D01*
X105910158Y-104872863D01*
X105521250Y-104483955D01*
X105412376Y-104409565D01*
X105344473Y-104307177D01*
X104955565Y-103918269D01*
X104846688Y-103843876D01*
X104778787Y-103741492D01*
X104389879Y-103352584D01*
X104281005Y-103278194D01*
X104213102Y-103175806D01*
X103824194Y-102786898D01*
X103715317Y-102712505D01*
X103647416Y-102610121D01*
X103258508Y-102221213D01*
X103169701Y-102160533D01*
X103162250Y-102142546D01*
X103080537Y-102060833D01*
X102944199Y-102060833D01*
X102871749Y-102045117D01*
X102906866Y-102010000D01*
X105435198Y-102010000D01*
X106844263Y-103419066D01*
X106802560Y-103625000D01*
X106802560Y-104375000D01*
X106846838Y-104610317D01*
X106985910Y-104826441D01*
X107198110Y-104971431D01*
X107450000Y-105022440D01*
X108650000Y-105022440D01*
X108885317Y-104978162D01*
X108988646Y-104911671D01*
X108990302Y-104913327D01*
X109223691Y-105010000D01*
X109664250Y-105010000D01*
X109823000Y-104851250D01*
X109823000Y-104127000D01*
X110077000Y-104127000D01*
X110077000Y-104851250D01*
X110235750Y-105010000D01*
X110676309Y-105010000D01*
X110909698Y-104913327D01*
X111088327Y-104734699D01*
X111185000Y-104501310D01*
X111185000Y-104285750D01*
X111026250Y-104127000D01*
X110077000Y-104127000D01*
X109823000Y-104127000D01*
X109803000Y-104127000D01*
X109803000Y-103873000D01*
X109823000Y-103873000D01*
X109823000Y-103853000D01*
X110077000Y-103853000D01*
X110077000Y-103873000D01*
X111026250Y-103873000D01*
X111185000Y-103714250D01*
X111185000Y-103498690D01*
X111088327Y-103265301D01*
X110909698Y-103086673D01*
X110676309Y-102990000D01*
X110235750Y-102990000D01*
X110077002Y-103148748D01*
X110077002Y-103097800D01*
X110967910Y-102206892D01*
X111132657Y-101960330D01*
X111190509Y-101669491D01*
X111190509Y-99684293D01*
X112653509Y-98221293D01*
X112653509Y-98609795D01*
X112653509Y-98609795D01*
G37*
X112653509Y-98609795D02*
X112339405Y-98739580D01*
X111921049Y-99157206D01*
X111694358Y-99703139D01*
X111693842Y-100294267D01*
X111919580Y-100840595D01*
X112337206Y-101258951D01*
X112653509Y-101390291D01*
X112653509Y-107878043D01*
X112501310Y-107815000D01*
X112285750Y-107815000D01*
X112127000Y-107973750D01*
X112127000Y-108923000D01*
X112147000Y-108923000D01*
X112147000Y-109177000D01*
X112127000Y-109177000D01*
X112127000Y-109197000D01*
X111873000Y-109197000D01*
X111873000Y-109177000D01*
X111148750Y-109177000D01*
X110990000Y-109335750D01*
X110990000Y-109776309D01*
X111086673Y-110009698D01*
X111088043Y-110011068D01*
X111028569Y-110098110D01*
X111009961Y-110190000D01*
X106790285Y-110190000D01*
X106654412Y-110054127D01*
X106617888Y-109860016D01*
X106475843Y-109645834D01*
X106032091Y-109202082D01*
X106038541Y-109202082D01*
X106815828Y-109979369D01*
X107040335Y-109979369D01*
X107122048Y-109897656D01*
X107218721Y-109664267D01*
X107218720Y-109411648D01*
X107122047Y-109178259D01*
X106704459Y-108760671D01*
X106479953Y-108760671D01*
X106038541Y-109202082D01*
X106032091Y-109202082D01*
X105415183Y-108585174D01*
X105217480Y-108450089D01*
X105049461Y-108413641D01*
X104067910Y-107432090D01*
X103821348Y-107267343D01*
X103530509Y-107209491D01*
X102842972Y-107209491D01*
X102810836Y-107177299D01*
X102467308Y-107034653D01*
X102420432Y-107034612D01*
X100290509Y-104904689D01*
X100290509Y-104390180D01*
X100345625Y-104335064D01*
X100345347Y-104654658D01*
X100487392Y-104998434D01*
X100750182Y-105261683D01*
X101093710Y-105404329D01*
X101095347Y-105404330D01*
X101095347Y-105404658D01*
X101237392Y-105748434D01*
X101500182Y-106011683D01*
X101843710Y-106154329D01*
X102215676Y-106154653D01*
X102559452Y-106012608D01*
X102822701Y-105749818D01*
X102828605Y-105735600D01*
X102911386Y-105792163D01*
X102979287Y-105894547D01*
X103368195Y-106283455D01*
X103477069Y-106357845D01*
X103544972Y-106460233D01*
X103933880Y-106849141D01*
X104042755Y-106923532D01*
X104110657Y-107025918D01*
X104499565Y-107414826D01*
X104608442Y-107489219D01*
X104676343Y-107591603D01*
X105065251Y-107980511D01*
X105098858Y-108003474D01*
X105081649Y-108020683D01*
X105081649Y-108245190D01*
X105858936Y-109022477D01*
X106300347Y-108581065D01*
X106300347Y-108356559D01*
X106267479Y-108323691D01*
X110990000Y-108323691D01*
X110990000Y-108764250D01*
X111148750Y-108923000D01*
X111873000Y-108923000D01*
X111873000Y-107973750D01*
X111714250Y-107815000D01*
X111498690Y-107815000D01*
X111265301Y-107911673D01*
X111086673Y-108090302D01*
X110990000Y-108323691D01*
X106267479Y-108323691D01*
X105946856Y-108003068D01*
X105980869Y-107980511D01*
X107041529Y-106919851D01*
X107176614Y-106722148D01*
X107231098Y-106470986D01*
X107183574Y-106218415D01*
X107041529Y-106004233D01*
X106652621Y-105615325D01*
X106543744Y-105540932D01*
X106475843Y-105438548D01*
X106086935Y-105049640D01*
X105978060Y-104975249D01*
X105910158Y-104872863D01*
X105521250Y-104483955D01*
X105412376Y-104409565D01*
X105344473Y-104307177D01*
X104955565Y-103918269D01*
X104846688Y-103843876D01*
X104778787Y-103741492D01*
X104389879Y-103352584D01*
X104281005Y-103278194D01*
X104213102Y-103175806D01*
X103824194Y-102786898D01*
X103715317Y-102712505D01*
X103647416Y-102610121D01*
X103258508Y-102221213D01*
X103169701Y-102160533D01*
X103162250Y-102142546D01*
X103080537Y-102060833D01*
X102944199Y-102060833D01*
X102871749Y-102045117D01*
X102906866Y-102010000D01*
X105435198Y-102010000D01*
X106844263Y-103419066D01*
X106802560Y-103625000D01*
X106802560Y-104375000D01*
X106846838Y-104610317D01*
X106985910Y-104826441D01*
X107198110Y-104971431D01*
X107450000Y-105022440D01*
X108650000Y-105022440D01*
X108885317Y-104978162D01*
X108988646Y-104911671D01*
X108990302Y-104913327D01*
X109223691Y-105010000D01*
X109664250Y-105010000D01*
X109823000Y-104851250D01*
X109823000Y-104127000D01*
X110077000Y-104127000D01*
X110077000Y-104851250D01*
X110235750Y-105010000D01*
X110676309Y-105010000D01*
X110909698Y-104913327D01*
X111088327Y-104734699D01*
X111185000Y-104501310D01*
X111185000Y-104285750D01*
X111026250Y-104127000D01*
X110077000Y-104127000D01*
X109823000Y-104127000D01*
X109803000Y-104127000D01*
X109803000Y-103873000D01*
X109823000Y-103873000D01*
X109823000Y-103853000D01*
X110077000Y-103853000D01*
X110077000Y-103873000D01*
X111026250Y-103873000D01*
X111185000Y-103714250D01*
X111185000Y-103498690D01*
X111088327Y-103265301D01*
X110909698Y-103086673D01*
X110676309Y-102990000D01*
X110235750Y-102990000D01*
X110077002Y-103148748D01*
X110077002Y-103097800D01*
X110967910Y-102206892D01*
X111132657Y-101960330D01*
X111190509Y-101669491D01*
X111190509Y-99684293D01*
X112653509Y-98221293D01*
X112653509Y-98609795D01*
M02*
