M48
INCH,TZ
T1C0.016
T2C0.028
T3C0.039
T4C0.040
T5C0.059
%
G90
G05
T1
X32788Y-33059
X32788Y-33649
X32788Y-42212
X32788Y-45756
X33280Y-33354
X33870Y-37291
X33870Y-43098
X33969Y-42606
X34166Y-32764
X34264Y-35126
X34658Y-36405
X35248Y-48118
X35642Y-41819
X35740Y-48512
X36134Y-34240
X36331Y-48118
X36429Y-48512
X37020Y-42409
X37118Y-33453
X37414Y-45264
X37512Y-35126
X38004Y-34831
X38004Y-48315
X38299Y-47527
X38398Y-41228
X38496Y-33551
X38516Y-40657
X38595Y-34791
X38595Y-41523
X38713Y-36366
X39146Y-43689
X39481Y-39063
X39579Y-35126
X39874Y-41130
X39933Y-36012
X40071Y-33551
X40071Y-34929
X40169Y-41425
X40268Y-42508
X40366Y-33157
X40524Y-41878
X40957Y-34043
X40996Y-34673
X41232Y-35815
X42138Y-33551
X42532Y-36996
X42630Y-38275
X42729Y-32960
X43122Y-44082
X43319Y-35519
X43555Y-35264
X43811Y-39161
X44205Y-35519
T2
X25527Y-36221
X25527Y-50198
X25527Y-51221
X29527Y-36221
X29527Y-50198
X29527Y-51221
X33027Y-36221
X33027Y-50198
X33027Y-51221
X37027Y-36221
X37027Y-50198
X37027Y-51221
X40527Y-36221
X40527Y-50198
X40527Y-51221
X44527Y-36221
X44527Y-50198
X44527Y-51221
T3
X41126Y-32283
X42126Y-32283
T4
X43701Y-32283
X43701Y-33283
X43701Y-34283
X44701Y-32283
X44701Y-33283
X44701Y-34283
T5
X26059Y-38370
X26059Y-45870
X26059Y-53370
X28559Y-37370
X28559Y-44870
X28559Y-52370
X33559Y-38370
X33559Y-45870
X33559Y-53370
X36059Y-37370
X36059Y-44870
X36059Y-52370
X41059Y-38370
X41059Y-45870
X41059Y-53370
X43559Y-37370
X43559Y-44870
X43559Y-52370
T0
M30
